<svg width="2050" height="628" viewBox="0 0 2050 628" fill="none" xmlns="http://www.w3.org/2000/svg">
<g filter="url(#filter0_d)">
<rect x="1746" y="160" width="40" height="260" fill="#1BACBB"/>
<rect x="1736" y="371" width="50" height="49" fill="#1BACBB"/>
<rect x="1736" y="160" width="50" height="49" fill="#1BACBB"/>
<rect x="1786" y="270" width="164" height="40" fill="#1BACBB"/>
<rect x="1674" y="210" width="40" height="160" fill="#1BACBB"/>
<rect width="40" height="260" transform="matrix(-1 0 0 1 304 160)" fill="#1BACBB"/>
<rect width="50" height="49" transform="matrix(-1 0 0 1 314 371)" fill="#1BACBB"/>
<rect width="50" height="49" transform="matrix(-1 0 0 1 314 160)" fill="#1BACBB"/>
<rect x="100" y="270" width="164" height="40" fill="#1BACBB"/>
<rect width="40" height="160" transform="matrix(-1 0 0 1 376 210)" fill="#1BACBB"/>
</g>
<g filter="url(#filter1_d)">
<path d="M606.073 492.6C603.306 492.6 600.623 492.233 598.023 491.5C595.456 490.733 593.39 489.75 591.823 488.55L594.573 482.45C596.073 483.55 597.856 484.433 599.923 485.1C601.99 485.767 604.056 486.1 606.123 486.1C608.423 486.1 610.123 485.767 611.223 485.1C612.323 484.4 612.873 483.483 612.873 482.35C612.873 481.517 612.54 480.833 611.873 480.3C611.24 479.733 610.406 479.283 609.373 478.95C608.373 478.617 607.006 478.25 605.273 477.85C602.606 477.217 600.423 476.583 598.723 475.95C597.023 475.317 595.556 474.3 594.323 472.9C593.123 471.5 592.523 469.633 592.523 467.3C592.523 465.267 593.073 463.433 594.173 461.8C595.273 460.133 596.923 458.817 599.123 457.85C601.356 456.883 604.073 456.4 607.273 456.4C609.506 456.4 611.69 456.667 613.823 457.2C615.956 457.733 617.823 458.5 619.423 459.5L616.923 465.65C613.69 463.817 610.456 462.9 607.223 462.9C604.956 462.9 603.273 463.267 602.173 464C601.106 464.733 600.573 465.7 600.573 466.9C600.573 468.1 601.19 469 602.423 469.6C603.69 470.167 605.606 470.733 608.173 471.3C610.84 471.933 613.023 472.567 614.723 473.2C616.423 473.833 617.873 474.833 619.073 476.2C620.306 477.567 620.923 479.417 620.923 481.75C620.923 483.75 620.356 485.583 619.223 487.25C618.123 488.883 616.456 490.183 614.223 491.15C611.99 492.117 609.273 492.6 606.073 492.6ZM646.969 463.6H635.769V457H666.269V463.6H655.069V492H646.969V463.6ZM706.678 492L699.928 482.25H699.528H692.478V492H684.378V457H699.528C702.628 457 705.311 457.517 707.578 458.55C709.878 459.583 711.644 461.05 712.878 462.95C714.111 464.85 714.728 467.1 714.728 469.7C714.728 472.3 714.094 474.55 712.828 476.45C711.594 478.317 709.828 479.75 707.528 480.75L715.378 492H706.678ZM706.528 469.7C706.528 467.733 705.894 466.233 704.628 465.2C703.361 464.133 701.511 463.6 699.078 463.6H692.478V475.8H699.078C701.511 475.8 703.361 475.267 704.628 474.2C705.894 473.133 706.528 471.633 706.528 469.7ZM750.445 492.6C745.445 492.6 741.545 491.217 738.745 488.45C735.978 485.683 734.595 481.733 734.595 476.6V457H742.695V476.3C742.695 482.567 745.295 485.7 750.495 485.7C753.028 485.7 754.962 484.95 756.295 483.45C757.628 481.917 758.295 479.533 758.295 476.3V457H766.295V476.6C766.295 481.733 764.895 485.683 762.095 488.45C759.328 491.217 755.445 492.6 750.445 492.6ZM804.799 492.6C801.233 492.6 797.999 491.833 795.099 490.3C792.233 488.733 789.966 486.583 788.299 483.85C786.666 481.083 785.849 477.967 785.849 474.5C785.849 471.033 786.666 467.933 788.299 465.2C789.966 462.433 792.233 460.283 795.099 458.75C797.999 457.183 801.249 456.4 804.849 456.4C807.883 456.4 810.616 456.933 813.049 458C815.516 459.067 817.583 460.6 819.249 462.6L814.049 467.4C811.683 464.667 808.749 463.3 805.249 463.3C803.083 463.3 801.149 463.783 799.449 464.75C797.749 465.683 796.416 467 795.449 468.7C794.516 470.4 794.049 472.333 794.049 474.5C794.049 476.667 794.516 478.6 795.449 480.3C796.416 482 797.749 483.333 799.449 484.3C801.149 485.233 803.083 485.7 805.249 485.7C808.749 485.7 811.683 484.317 814.049 481.55L819.249 486.35C817.583 488.383 815.516 489.933 813.049 491C810.583 492.067 807.833 492.6 804.799 492.6ZM845.378 463.6H834.178V457H864.678V463.6H853.478V492H845.378V463.6ZM897.75 492.6C892.75 492.6 888.85 491.217 886.05 488.45C883.283 485.683 881.9 481.733 881.9 476.6V457H890V476.3C890 482.567 892.6 485.7 897.8 485.7C900.333 485.7 902.266 484.95 903.6 483.45C904.933 481.917 905.6 479.533 905.6 476.3V457H913.6V476.6C913.6 481.733 912.2 485.683 909.4 488.45C906.633 491.217 902.75 492.6 897.75 492.6ZM957.654 492L950.904 482.25H950.504H943.454V492H935.354V457H950.504C953.604 457 956.287 457.517 958.554 458.55C960.854 459.583 962.621 461.05 963.854 462.95C965.087 464.85 965.704 467.1 965.704 469.7C965.704 472.3 965.071 474.55 963.804 476.45C962.571 478.317 960.804 479.75 958.504 480.75L966.354 492H957.654ZM957.504 469.7C957.504 467.733 956.871 466.233 955.604 465.2C954.337 464.133 952.487 463.6 950.054 463.6H943.454V475.8H950.054C952.487 475.8 954.337 475.267 955.604 474.2C956.871 473.133 957.504 471.633 957.504 469.7ZM1008.92 484.5H992.672L989.572 492H981.272L996.872 457H1004.87L1020.52 492H1012.02L1008.92 484.5ZM1006.37 478.35L1000.82 464.95L995.272 478.35H1006.37ZM1037.9 457H1046V485.4H1063.55V492H1037.9V457ZM1132.79 484.5H1116.54L1113.44 492H1105.14L1120.74 457H1128.74L1144.39 492H1135.89L1132.79 484.5ZM1130.24 478.35L1124.69 464.95L1119.14 478.35H1130.24ZM1193.87 457V492H1187.22L1169.77 470.75V492H1161.77V457H1168.47L1185.87 478.25V457H1193.87ZM1238.95 484.5H1222.7L1219.6 492H1211.3L1226.9 457H1234.9L1250.55 492H1242.05L1238.95 484.5ZM1236.4 478.35L1230.85 464.95L1225.3 478.35H1236.4ZM1267.93 457H1276.03V485.4H1293.58V492H1267.93V457ZM1325.04 479.6V492H1316.94V479.5L1303.39 457H1311.99L1321.34 472.55L1330.69 457H1338.64L1325.04 479.6ZM1366.55 492.6C1363.78 492.6 1361.1 492.233 1358.5 491.5C1355.93 490.733 1353.87 489.75 1352.3 488.55L1355.05 482.45C1356.55 483.55 1358.33 484.433 1360.4 485.1C1362.47 485.767 1364.53 486.1 1366.6 486.1C1368.9 486.1 1370.6 485.767 1371.7 485.1C1372.8 484.4 1373.35 483.483 1373.35 482.35C1373.35 481.517 1373.02 480.833 1372.35 480.3C1371.72 479.733 1370.88 479.283 1369.85 478.95C1368.85 478.617 1367.48 478.25 1365.75 477.85C1363.08 477.217 1360.9 476.583 1359.2 475.95C1357.5 475.317 1356.03 474.3 1354.8 472.9C1353.6 471.5 1353 469.633 1353 467.3C1353 465.267 1353.55 463.433 1354.65 461.8C1355.75 460.133 1357.4 458.817 1359.6 457.85C1361.83 456.883 1364.55 456.4 1367.75 456.4C1369.98 456.4 1372.17 456.667 1374.3 457.2C1376.43 457.733 1378.3 458.5 1379.9 459.5L1377.4 465.65C1374.17 463.817 1370.93 462.9 1367.7 462.9C1365.43 462.9 1363.75 463.267 1362.65 464C1361.58 464.733 1361.05 465.7 1361.05 466.9C1361.05 468.1 1361.67 469 1362.9 469.6C1364.17 470.167 1366.08 470.733 1368.65 471.3C1371.32 471.933 1373.5 472.567 1375.2 473.2C1376.9 473.833 1378.35 474.833 1379.55 476.2C1380.78 477.567 1381.4 479.417 1381.4 481.75C1381.4 483.75 1380.83 485.583 1379.7 487.25C1378.6 488.883 1376.93 490.183 1374.7 491.15C1372.47 492.117 1369.75 492.6 1366.55 492.6ZM1400.69 457H1408.79V492H1400.69V457ZM1442.34 492.6C1439.58 492.6 1436.89 492.233 1434.29 491.5C1431.73 490.733 1429.66 489.75 1428.09 488.55L1430.84 482.45C1432.34 483.55 1434.13 484.433 1436.19 485.1C1438.26 485.767 1440.33 486.1 1442.39 486.1C1444.69 486.1 1446.39 485.767 1447.49 485.1C1448.59 484.4 1449.14 483.483 1449.14 482.35C1449.14 481.517 1448.81 480.833 1448.14 480.3C1447.51 479.733 1446.68 479.283 1445.64 478.95C1444.64 478.617 1443.28 478.25 1441.54 477.85C1438.88 477.217 1436.69 476.583 1434.99 475.95C1433.29 475.317 1431.83 474.3 1430.59 472.9C1429.39 471.5 1428.79 469.633 1428.79 467.3C1428.79 465.267 1429.34 463.433 1430.44 461.8C1431.54 460.133 1433.19 458.817 1435.39 457.85C1437.63 456.883 1440.34 456.4 1443.54 456.4C1445.78 456.4 1447.96 456.667 1450.09 457.2C1452.23 457.733 1454.09 458.5 1455.69 459.5L1453.19 465.65C1449.96 463.817 1446.73 462.9 1443.49 462.9C1441.23 462.9 1439.54 463.267 1438.44 464C1437.38 464.733 1436.84 465.7 1436.84 466.9C1436.84 468.1 1437.46 469 1438.69 469.6C1439.96 470.167 1441.88 470.733 1444.44 471.3C1447.11 471.933 1449.29 472.567 1450.99 473.2C1452.69 473.833 1454.14 474.833 1455.34 476.2C1456.58 477.567 1457.19 479.417 1457.19 481.75C1457.19 483.75 1456.63 485.583 1455.49 487.25C1454.39 488.883 1452.73 490.183 1450.49 491.15C1448.26 492.117 1445.54 492.6 1442.34 492.6Z" fill="#1BACBB"/>
<path d="M621.618 316H569.618L559.698 340H533.138L583.058 228H608.658L658.738 340H631.538L621.618 316ZM613.458 296.32L595.698 253.44L577.938 296.32H613.458ZM773.078 228V340H751.798L695.958 272V340H670.358V228H691.798L747.478 296V228H773.078ZM873.337 316H821.337L811.417 340H784.857L834.777 228H860.377L910.457 340H883.257L873.337 316ZM865.177 296.32L847.417 253.44L829.657 296.32H865.177ZM922.077 228H947.997V318.88H1004.16V340H922.077V228ZM1060.84 300.32V340H1034.92V300L991.557 228H1019.08L1049 277.76L1078.92 228H1104.36L1060.84 300.32ZM1205.92 318.88V340H1108V323.2L1169.44 249.12H1109.28V228H1203.52V244.8L1142.24 318.88H1205.92ZM1222.55 228H1248.47V340H1222.55V228ZM1377.77 228V340H1356.49L1300.65 272V340H1275.05V228H1296.49L1352.17 296V228H1377.77ZM1479.94 282.24H1503.62V327.68C1497.54 332.267 1490.5 335.787 1482.5 338.24C1474.5 340.693 1466.45 341.92 1458.34 341.92C1446.72 341.92 1436.26 339.467 1426.98 334.56C1417.7 329.547 1410.4 322.667 1405.06 313.92C1399.84 305.067 1397.22 295.093 1397.22 284C1397.22 272.907 1399.84 262.987 1405.06 254.24C1410.4 245.387 1417.76 238.507 1427.14 233.6C1436.53 228.587 1447.09 226.08 1458.82 226.08C1468.64 226.08 1477.54 227.733 1485.54 231.04C1493.54 234.347 1500.26 239.147 1505.7 245.44L1489.06 260.8C1481.06 252.373 1471.41 248.16 1460.1 248.16C1452.96 248.16 1446.61 249.653 1441.06 252.64C1435.52 255.627 1431.2 259.84 1428.1 265.28C1425.01 270.72 1423.46 276.96 1423.46 284C1423.46 290.933 1425.01 297.12 1428.1 302.56C1431.2 308 1435.46 312.267 1440.9 315.36C1446.45 318.347 1452.74 319.84 1459.78 319.84C1467.25 319.84 1473.97 318.24 1479.94 315.04V282.24Z" fill="#1BACBB"/>
<path d="M710.432 160L707.732 156.1H707.572H704.752V160H701.512V146H707.572C708.812 146 709.885 146.207 710.792 146.62C711.712 147.033 712.418 147.62 712.912 148.38C713.405 149.14 713.652 150.04 713.652 151.08C713.652 152.12 713.398 153.02 712.892 153.78C712.398 154.527 711.692 155.1 710.772 155.5L713.912 160H710.432ZM710.372 151.08C710.372 150.293 710.118 149.693 709.612 149.28C709.105 148.853 708.365 148.64 707.392 148.64H704.752V153.52H707.392C708.365 153.52 709.105 153.307 709.612 152.88C710.118 152.453 710.372 151.853 710.372 151.08ZM727.939 160.24C725.939 160.24 724.379 159.687 723.259 158.58C722.152 157.473 721.599 155.893 721.599 153.84V146H724.839V153.72C724.839 156.227 725.879 157.48 727.959 157.48C728.972 157.48 729.745 157.18 730.279 156.58C730.812 155.967 731.079 155.013 731.079 153.72V146H734.279V153.84C734.279 155.893 733.719 157.473 732.599 158.58C731.492 159.687 729.939 160.24 727.939 160.24ZM755.82 146V160H753.16L746.18 151.5V160H742.98V146H745.66L752.62 154.5V146H755.82ZM777.473 146V160H774.813L767.833 151.5V160H764.633V146H767.313L774.273 154.5V146H777.473ZM786.285 146H789.525V160H786.285V146ZM811.188 146V160H808.528L801.548 151.5V160H798.348V146H801.028L807.987 154.5V146H811.188ZM829.46 152.78H832.42V158.46C831.66 159.033 830.78 159.473 829.78 159.78C828.78 160.087 827.773 160.24 826.76 160.24C825.307 160.24 824 159.933 822.84 159.32C821.68 158.693 820.767 157.833 820.1 156.74C819.447 155.633 819.12 154.387 819.12 153C819.12 151.613 819.447 150.373 820.1 149.28C820.767 148.173 821.687 147.313 822.86 146.7C824.033 146.073 825.353 145.76 826.82 145.76C828.047 145.76 829.16 145.967 830.16 146.38C831.16 146.793 832 147.393 832.68 148.18L830.6 150.1C829.6 149.047 828.393 148.52 826.98 148.52C826.087 148.52 825.293 148.707 824.6 149.08C823.907 149.453 823.367 149.98 822.98 150.66C822.593 151.34 822.4 152.12 822.4 153C822.4 153.867 822.593 154.64 822.98 155.32C823.367 156 823.9 156.533 824.58 156.92C825.273 157.293 826.06 157.48 826.94 157.48C827.873 157.48 828.713 157.28 829.46 156.88V152.78ZM852.094 146H858.454C859.974 146 861.314 146.293 862.474 146.88C863.647 147.453 864.554 148.267 865.194 149.32C865.847 150.373 866.174 151.6 866.174 153C866.174 154.4 865.847 155.627 865.194 156.68C864.554 157.733 863.647 158.553 862.474 159.14C861.314 159.713 859.974 160 858.454 160H852.094V146ZM858.294 157.34C859.694 157.34 860.807 156.953 861.634 156.18C862.474 155.393 862.894 154.333 862.894 153C862.894 151.667 862.474 150.613 861.634 149.84C860.807 149.053 859.694 148.66 858.294 148.66H855.334V157.34H858.294ZM874.117 146H877.357V160H874.117V146ZM895.4 157H888.9L887.66 160H884.34L890.58 146H893.78L900.04 160H896.64L895.4 157ZM894.38 154.54L892.16 149.18L889.94 154.54H894.38ZM916.257 152.78H919.217V158.46C918.457 159.033 917.577 159.473 916.577 159.78C915.577 160.087 914.57 160.24 913.557 160.24C912.103 160.24 910.797 159.933 909.637 159.32C908.477 158.693 907.563 157.833 906.897 156.74C906.243 155.633 905.917 154.387 905.917 153C905.917 151.613 906.243 150.373 906.897 149.28C907.563 148.173 908.483 147.313 909.657 146.7C910.83 146.073 912.15 145.76 913.617 145.76C914.843 145.76 915.957 145.967 916.957 146.38C917.957 146.793 918.797 147.393 919.477 148.18L917.397 150.1C916.397 149.047 915.19 148.52 913.777 148.52C912.883 148.52 912.09 148.707 911.397 149.08C910.703 149.453 910.163 149.98 909.777 150.66C909.39 151.34 909.197 152.12 909.197 153C909.197 153.867 909.39 154.64 909.777 155.32C910.163 156 910.697 156.533 911.377 156.92C912.07 157.293 912.857 157.48 913.737 157.48C914.67 157.48 915.51 157.28 916.257 156.88V152.78ZM940.566 146V160H937.906L930.926 151.5V160H927.726V146H930.406L937.366 154.5V146H940.566ZM956.159 160.24C954.705 160.24 953.392 159.927 952.219 159.3C951.059 158.673 950.145 157.813 949.479 156.72C948.825 155.613 948.499 154.373 948.499 153C948.499 151.627 948.825 150.393 949.479 149.3C950.145 148.193 951.059 147.327 952.219 146.7C953.392 146.073 954.705 145.76 956.159 145.76C957.612 145.76 958.919 146.073 960.079 146.7C961.239 147.327 962.152 148.193 962.819 149.3C963.485 150.393 963.819 151.627 963.819 153C963.819 154.373 963.485 155.613 962.819 156.72C962.152 157.813 961.239 158.673 960.079 159.3C958.919 159.927 957.612 160.24 956.159 160.24ZM956.159 157.48C956.985 157.48 957.732 157.293 958.399 156.92C959.065 156.533 959.585 156 959.959 155.32C960.345 154.64 960.539 153.867 960.539 153C960.539 152.133 960.345 151.36 959.959 150.68C959.585 150 959.065 149.473 958.399 149.1C957.732 148.713 956.985 148.52 956.159 148.52C955.332 148.52 954.585 148.713 953.919 149.1C953.252 149.473 952.725 150 952.339 150.68C951.965 151.36 951.779 152.133 951.779 153C951.779 153.867 951.965 154.64 952.339 155.32C952.725 156 953.252 156.533 953.919 156.92C954.585 157.293 955.332 157.48 956.159 157.48ZM976.354 160.24C975.247 160.24 974.174 160.093 973.134 159.8C972.107 159.493 971.28 159.1 970.654 158.62L971.754 156.18C972.354 156.62 973.067 156.973 973.894 157.24C974.72 157.507 975.547 157.64 976.374 157.64C977.294 157.64 977.974 157.507 978.414 157.24C978.854 156.96 979.074 156.593 979.074 156.14C979.074 155.807 978.94 155.533 978.674 155.32C978.42 155.093 978.087 154.913 977.674 154.78C977.274 154.647 976.727 154.5 976.034 154.34C974.967 154.087 974.094 153.833 973.414 153.58C972.734 153.327 972.147 152.92 971.654 152.36C971.174 151.8 970.934 151.053 970.934 150.12C970.934 149.307 971.154 148.573 971.594 147.92C972.034 147.253 972.694 146.727 973.574 146.34C974.467 145.953 975.554 145.76 976.834 145.76C977.727 145.76 978.6 145.867 979.454 146.08C980.307 146.293 981.054 146.6 981.694 147L980.694 149.46C979.4 148.727 978.107 148.36 976.814 148.36C975.907 148.36 975.234 148.507 974.794 148.8C974.367 149.093 974.154 149.48 974.154 149.96C974.154 150.44 974.4 150.8 974.894 151.04C975.4 151.267 976.167 151.493 977.194 151.72C978.26 151.973 979.134 152.227 979.814 152.48C980.494 152.733 981.074 153.133 981.554 153.68C982.047 154.227 982.294 154.967 982.294 155.9C982.294 156.7 982.067 157.433 981.614 158.1C981.174 158.753 980.507 159.273 979.614 159.66C978.72 160.047 977.634 160.24 976.354 160.24ZM990.008 146H993.248V160H990.008V146ZM1004.97 148.64H1000.49V146H1012.69V148.64H1008.21V160H1004.97V148.64ZM1026.44 160.24C1025.01 160.24 1023.72 159.933 1022.56 159.32C1021.41 158.693 1020.5 157.833 1019.84 156.74C1019.18 155.633 1018.86 154.387 1018.86 153C1018.86 151.613 1019.18 150.373 1019.84 149.28C1020.5 148.173 1021.41 147.313 1022.56 146.7C1023.72 146.073 1025.02 145.76 1026.46 145.76C1027.67 145.76 1028.76 145.973 1029.74 146.4C1030.72 146.827 1031.55 147.44 1032.22 148.24L1030.14 150.16C1029.19 149.067 1028.02 148.52 1026.62 148.52C1025.75 148.52 1024.98 148.713 1024.3 149.1C1023.62 149.473 1023.08 150 1022.7 150.68C1022.32 151.36 1022.14 152.133 1022.14 153C1022.14 153.867 1022.32 154.64 1022.7 155.32C1023.08 156 1023.62 156.533 1024.3 156.92C1024.98 157.293 1025.75 157.48 1026.62 157.48C1028.02 157.48 1029.19 156.927 1030.14 155.82L1032.22 157.74C1031.55 158.553 1030.72 159.173 1029.74 159.6C1028.75 160.027 1027.65 160.24 1026.44 160.24ZM1044.39 160.24C1043.28 160.24 1042.21 160.093 1041.17 159.8C1040.14 159.493 1039.32 159.1 1038.69 158.62L1039.79 156.18C1040.39 156.62 1041.1 156.973 1041.93 157.24C1042.76 157.507 1043.58 157.64 1044.41 157.64C1045.33 157.64 1046.01 157.507 1046.45 157.24C1046.89 156.96 1047.11 156.593 1047.11 156.14C1047.11 155.807 1046.98 155.533 1046.71 155.32C1046.46 155.093 1046.12 154.913 1045.71 154.78C1045.31 154.647 1044.76 154.5 1044.07 154.34C1043 154.087 1042.13 153.833 1041.45 153.58C1040.77 153.327 1040.18 152.92 1039.69 152.36C1039.21 151.8 1038.97 151.053 1038.97 150.12C1038.97 149.307 1039.19 148.573 1039.63 147.92C1040.07 147.253 1040.73 146.727 1041.61 146.34C1042.5 145.953 1043.59 145.76 1044.87 145.76C1045.76 145.76 1046.64 145.867 1047.49 146.08C1048.34 146.293 1049.09 146.6 1049.73 147L1048.73 149.46C1047.44 148.727 1046.14 148.36 1044.85 148.36C1043.94 148.36 1043.27 148.507 1042.83 148.8C1042.4 149.093 1042.19 149.48 1042.19 149.96C1042.19 150.44 1042.44 150.8 1042.93 151.04C1043.44 151.267 1044.2 151.493 1045.23 151.72C1046.3 151.973 1047.17 152.227 1047.85 152.48C1048.53 152.733 1049.11 153.133 1049.59 153.68C1050.08 154.227 1050.33 154.967 1050.33 155.9C1050.33 156.7 1050.1 157.433 1049.65 158.1C1049.21 158.753 1048.54 159.273 1047.65 159.66C1046.76 160.047 1045.67 160.24 1044.39 160.24ZM1059.41 156.28C1059.97 156.28 1060.43 156.46 1060.79 156.82C1061.15 157.167 1061.33 157.627 1061.33 158.2C1061.33 158.467 1061.3 158.733 1061.23 159C1061.17 159.267 1061.02 159.667 1060.79 160.2L1059.65 163.08H1057.67L1058.55 159.9C1058.22 159.767 1057.95 159.553 1057.75 159.26C1057.57 158.953 1057.47 158.6 1057.47 158.2C1057.47 157.627 1057.65 157.167 1058.01 156.82C1058.39 156.46 1058.85 156.28 1059.41 156.28ZM1086.39 146C1087.63 146 1088.71 146.207 1089.61 146.62C1090.53 147.033 1091.24 147.62 1091.73 148.38C1092.23 149.14 1092.47 150.04 1092.47 151.08C1092.47 152.107 1092.23 153.007 1091.73 153.78C1091.24 154.54 1090.53 155.127 1089.61 155.54C1088.71 155.94 1087.63 156.14 1086.39 156.14H1083.57V160H1080.33V146H1086.39ZM1086.21 153.5C1087.19 153.5 1087.93 153.293 1088.43 152.88C1088.94 152.453 1089.19 151.853 1089.19 151.08C1089.19 150.293 1088.94 149.693 1088.43 149.28C1087.93 148.853 1087.19 148.64 1086.21 148.64H1083.57V153.5H1086.21ZM1100.29 146H1103.53V157.36H1110.55V160H1100.29V146ZM1128.7 157.4V160H1117.86V146H1128.44V148.6H1121.08V151.64H1127.58V154.16H1121.08V157.4H1128.7ZM1145.99 157H1139.49L1138.25 160H1134.93L1141.17 146H1144.37L1150.63 160H1147.23L1145.99 157ZM1144.97 154.54L1142.75 149.18L1140.53 154.54H1144.97ZM1162.19 160.24C1161.08 160.24 1160.01 160.093 1158.97 159.8C1157.94 159.493 1157.11 159.1 1156.49 158.62L1157.59 156.18C1158.19 156.62 1158.9 156.973 1159.73 157.24C1160.55 157.507 1161.38 157.64 1162.21 157.64C1163.13 157.64 1163.81 157.507 1164.25 157.24C1164.69 156.96 1164.91 156.593 1164.91 156.14C1164.91 155.807 1164.77 155.533 1164.51 155.32C1164.25 155.093 1163.92 154.913 1163.51 154.78C1163.11 154.647 1162.56 154.5 1161.87 154.34C1160.8 154.087 1159.93 153.833 1159.25 153.58C1158.57 153.327 1157.98 152.92 1157.49 152.36C1157.01 151.8 1156.77 151.053 1156.77 150.12C1156.77 149.307 1156.99 148.573 1157.43 147.92C1157.87 147.253 1158.53 146.727 1159.41 146.34C1160.3 145.953 1161.39 145.76 1162.67 145.76C1163.56 145.76 1164.43 145.867 1165.29 146.08C1166.14 146.293 1166.89 146.6 1167.53 147L1166.53 149.46C1165.23 148.727 1163.94 148.36 1162.65 148.36C1161.74 148.36 1161.07 148.507 1160.63 148.8C1160.2 149.093 1159.99 149.48 1159.99 149.96C1159.99 150.44 1160.23 150.8 1160.73 151.04C1161.23 151.267 1162 151.493 1163.03 151.72C1164.09 151.973 1164.97 152.227 1165.65 152.48C1166.33 152.733 1166.91 153.133 1167.39 153.68C1167.88 154.227 1168.13 154.967 1168.13 155.9C1168.13 156.7 1167.9 157.433 1167.45 158.1C1167.01 158.753 1166.34 159.273 1165.45 159.66C1164.55 160.047 1163.47 160.24 1162.19 160.24ZM1186.68 157.4V160H1175.84V146H1186.42V148.6H1179.06V151.64H1185.56V154.16H1179.06V157.4H1186.68ZM1210.52 160.24C1209.42 160.24 1208.34 160.093 1207.3 159.8C1206.28 159.493 1205.45 159.1 1204.82 158.62L1205.92 156.18C1206.52 156.62 1207.24 156.973 1208.06 157.24C1208.89 157.507 1209.72 157.64 1210.54 157.64C1211.46 157.64 1212.14 157.507 1212.58 157.24C1213.02 156.96 1213.24 156.593 1213.24 156.14C1213.24 155.807 1213.11 155.533 1212.84 155.32C1212.59 155.093 1212.26 154.913 1211.84 154.78C1211.44 154.647 1210.9 154.5 1210.2 154.34C1209.14 154.087 1208.26 153.833 1207.58 153.58C1206.9 153.327 1206.32 152.92 1205.82 152.36C1205.34 151.8 1205.1 151.053 1205.1 150.12C1205.1 149.307 1205.32 148.573 1205.76 147.92C1206.2 147.253 1206.86 146.727 1207.74 146.34C1208.64 145.953 1209.72 145.76 1211 145.76C1211.9 145.76 1212.77 145.867 1213.62 146.08C1214.48 146.293 1215.22 146.6 1215.86 147L1214.86 149.46C1213.57 148.727 1212.28 148.36 1210.98 148.36C1210.08 148.36 1209.4 148.507 1208.96 148.8C1208.54 149.093 1208.32 149.48 1208.32 149.96C1208.32 150.44 1208.57 150.8 1209.06 151.04C1209.57 151.267 1210.34 151.493 1211.36 151.72C1212.43 151.973 1213.3 152.227 1213.98 152.48C1214.66 152.733 1215.24 153.133 1215.72 153.68C1216.22 154.227 1216.46 154.967 1216.46 155.9C1216.46 156.7 1216.24 157.433 1215.78 158.1C1215.34 158.753 1214.68 159.273 1213.78 159.66C1212.89 160.047 1211.8 160.24 1210.52 160.24ZM1226.88 148.64H1222.4V146H1234.6V148.64H1230.12V160H1226.88V148.64ZM1250.36 157H1243.86L1242.62 160H1239.3L1245.54 146H1248.74L1255 160H1251.6L1250.36 157ZM1249.34 154.54L1247.12 149.18L1244.9 154.54H1249.34ZM1274.79 146V160H1272.13L1265.15 151.5V160H1261.95V146H1264.63L1271.59 154.5V146H1274.79ZM1283.61 146H1289.97C1291.49 146 1292.83 146.293 1293.99 146.88C1295.16 147.453 1296.07 148.267 1296.71 149.32C1297.36 150.373 1297.69 151.6 1297.69 153C1297.69 154.4 1297.36 155.627 1296.71 156.68C1296.07 157.733 1295.16 158.553 1293.99 159.14C1292.83 159.713 1291.49 160 1289.97 160H1283.61V146ZM1289.81 157.34C1291.21 157.34 1292.32 156.953 1293.15 156.18C1293.99 155.393 1294.41 154.333 1294.41 153C1294.41 151.667 1293.99 150.613 1293.15 149.84C1292.32 149.053 1291.21 148.66 1289.81 148.66H1286.85V157.34H1289.81ZM1327.07 152.72C1327.87 152.973 1328.5 153.4 1328.95 154C1329.41 154.587 1329.63 155.313 1329.63 156.18C1329.63 157.407 1329.15 158.353 1328.19 159.02C1327.25 159.673 1325.86 160 1324.03 160H1316.79V146H1323.63C1325.34 146 1326.65 146.327 1327.55 146.98C1328.47 147.633 1328.93 148.52 1328.93 149.64C1328.93 150.32 1328.77 150.927 1328.43 151.46C1328.11 151.993 1327.66 152.413 1327.07 152.72ZM1320.01 148.44V151.74H1323.23C1324.03 151.74 1324.64 151.6 1325.05 151.32C1325.47 151.04 1325.67 150.627 1325.67 150.08C1325.67 149.533 1325.47 149.127 1325.05 148.86C1324.64 148.58 1324.03 148.44 1323.23 148.44H1320.01ZM1323.79 157.56C1324.65 157.56 1325.29 157.42 1325.71 157.14C1326.15 156.86 1326.37 156.427 1326.37 155.84C1326.37 154.68 1325.51 154.1 1323.79 154.1H1320.01V157.56H1323.79ZM1344.01 155.04V160H1340.77V155L1335.35 146H1338.79L1342.53 152.22L1346.27 146H1349.45L1344.01 155.04Z" fill="#1BACBB"/>
</g>
<g filter="url(#filter2_d)">
<rect x="324" y="97" width="1402" height="426" rx="21" stroke="#1BACBB" stroke-width="2"/>
</g>
<defs>
<filter id="filter0_d" x="0" y="60" width="2050" height="460" filterUnits="userSpaceOnUse" color-interpolation-filters="sRGB">
<feFlood flood-opacity="0" result="BackgroundImageFix"/>
<feColorMatrix in="SourceAlpha" type="matrix" values="0 0 0 0 0 0 0 0 0 0 0 0 0 0 0 0 0 0 127 0"/>
<feOffset/>
<feGaussianBlur stdDeviation="50"/>
<feColorMatrix type="matrix" values="0 0 0 0 0.105882 0 0 0 0 0.67451 0 0 0 0 0.733333 0 0 0 1 0"/>
<feBlend mode="normal" in2="BackgroundImageFix" result="effect1_dropShadow"/>
<feBlend mode="normal" in="SourceGraphic" in2="effect1_dropShadow" result="shape"/>
</filter>
<filter id="filter1_d" x="433.139" y="49.7598" width="1172.57" height="546.841" filterUnits="userSpaceOnUse" color-interpolation-filters="sRGB">
<feFlood flood-opacity="0" result="BackgroundImageFix"/>
<feColorMatrix in="SourceAlpha" type="matrix" values="0 0 0 0 0 0 0 0 0 0 0 0 0 0 0 0 0 0 127 0"/>
<feOffset dy="4"/>
<feGaussianBlur stdDeviation="50"/>
<feColorMatrix type="matrix" values="0 0 0 0 0.105882 0 0 0 0 0.67451 0 0 0 0 0.733333 0 0 0 1 0"/>
<feBlend mode="normal" in2="BackgroundImageFix" result="effect1_dropShadow"/>
<feBlend mode="normal" in="SourceGraphic" in2="effect1_dropShadow" result="shape"/>
</filter>
<filter id="filter2_d" x="223" y="0" width="1604" height="628" filterUnits="userSpaceOnUse" color-interpolation-filters="sRGB">
<feFlood flood-opacity="0" result="BackgroundImageFix"/>
<feColorMatrix in="SourceAlpha" type="matrix" values="0 0 0 0 0 0 0 0 0 0 0 0 0 0 0 0 0 0 127 0"/>
<feOffset dy="4"/>
<feGaussianBlur stdDeviation="50"/>
<feColorMatrix type="matrix" values="0 0 0 0 0.105882 0 0 0 0 0.67451 0 0 0 0 0.733333 0 0 0 1 0"/>
<feBlend mode="normal" in2="BackgroundImageFix" result="effect1_dropShadow"/>
<feBlend mode="normal" in="SourceGraphic" in2="effect1_dropShadow" result="shape"/>
</filter>
</defs>
</svg>
