<svg width="1667" height="1669" viewBox="0 0 1667 1669" fill="none" xmlns="http://www.w3.org/2000/svg">
<g filter="url(#filter0_d)">
<path d="M1374 835C1374 1133.23 1132.23 1375 834 1375C535.766 1375 294 1133.23 294 835C294 536.766 535.766 295 834 295C1132.23 295 1374 536.766 1374 835ZM357.704 835C357.704 1098.05 570.949 1311.3 834 1311.3C1097.05 1311.3 1310.3 1098.05 1310.3 835C1310.3 571.949 1097.05 358.704 834 358.704C570.949 358.704 357.704 571.949 357.704 835Z" fill="#3380D0"/>
</g>
<g filter="url(#filter1_d)">
<path d="M1374 835C1374 764.086 1360.03 693.867 1332.89 628.351C1305.76 562.835 1265.98 503.306 1215.84 453.162C1165.69 403.019 1106.16 363.243 1040.65 336.105C975.133 308.968 904.914 295 834 295V358.704C896.548 358.704 958.484 371.023 1016.27 394.96C1074.06 418.896 1126.56 453.979 1170.79 498.208C1215.02 542.436 1250.1 594.942 1274.04 652.729C1297.98 710.516 1310.3 772.452 1310.3 835H1374Z" fill="#A3C4E7"/>
</g>
<g filter="url(#filter2_d)">
<path d="M204.972 303.424C200.757 299.855 200.228 293.541 203.847 289.369C272.063 210.72 354.412 145.547 446.629 97.2231C451.52 94.6597 457.544 96.6251 460.049 101.547L466.098 113.437C468.603 118.359 466.64 124.374 461.749 126.94C373.482 173.25 294.644 235.645 229.295 310.912C225.674 315.082 219.369 315.611 215.154 312.043L204.972 303.424Z" fill="#3380D0"/>
</g>
<g filter="url(#filter3_d)">
<path d="M519.663 1465C517.912 1468.51 513.642 1469.94 510.148 1468.16C381.134 1402.22 275.306 1298.38 206.937 1170.51C137.45 1040.54 110.095 892.192 128.66 745.994C147.225 599.797 210.792 462.99 310.557 354.521C408.716 247.797 537.139 173.704 678.539 142.104C682.369 141.249 686.146 143.7 686.964 147.538C687.781 151.376 685.329 155.147 681.5 156.003C542.982 186.988 417.18 259.586 321.015 364.141C223.246 470.44 160.951 604.511 142.757 747.785C124.563 891.058 151.371 1036.44 219.468 1163.81C286.448 1289.08 390.112 1390.82 516.488 1455.44C519.982 1457.22 521.414 1461.49 519.663 1465Z" fill="#73A2D3"/>
</g>
<g filter="url(#filter4_d)">
<path d="M528.667 1429.13C526.142 1434.05 528.075 1440.08 533.024 1442.53C617.886 1484.58 710.65 1508.39 805.344 1512.39C900.039 1516.4 994.483 1500.51 1082.59 1465.78C1087.73 1463.76 1090.17 1457.91 1088.07 1452.8L1082.78 1439.94C1080.68 1434.84 1074.84 1432.41 1069.7 1434.43C986.126 1467.29 896.57 1482.32 806.777 1478.52C716.984 1474.73 629.018 1452.18 548.521 1412.38C543.57 1409.93 537.544 1411.86 535.02 1416.77L528.667 1429.13Z" fill="#3380D0"/>
</g>
<g filter="url(#filter5_d)">
<path d="M1348.83 377.356C1351.7 374.8 1356.11 375.057 1358.64 377.958C1422.46 451.208 1470.25 537.002 1498.94 629.824C1500.08 633.499 1497.97 637.38 1494.29 638.48C1490.6 639.579 1486.73 637.479 1485.59 633.805C1457.48 542.935 1410.69 458.941 1348.22 387.213C1345.7 384.313 1345.95 379.912 1348.83 377.356Z" fill="#81ACD8"/>
</g>
<g filter="url(#filter6_d)">
<path d="M1431.89 835.5C1436.92 835.5 1441.01 839.58 1440.93 844.612C1439.44 944.071 1413.55 1041.69 1365.47 1128.88C1315.92 1218.72 1244.42 1294.55 1157.64 1349.3C1070.87 1404.04 971.642 1435.92 869.218 1441.95C769.828 1447.8 670.57 1429.14 580.163 1387.66C575.589 1385.56 573.666 1380.11 575.833 1375.57C578 1371.03 583.436 1369.11 588.011 1371.21C675.64 1411.36 771.829 1429.43 868.146 1423.76C967.497 1417.9 1063.75 1386.98 1147.92 1333.88C1232.09 1280.78 1301.44 1207.22 1349.51 1120.07C1396.1 1035.59 1421.21 940.992 1422.7 844.612C1422.78 839.58 1426.85 835.5 1431.89 835.5Z" fill="#3380D0"/>
</g>
<g filter="url(#filter7_d)">
<path d="M1361.85 565.38C1365.87 563.416 1367.54 558.56 1365.51 554.571C1311.84 448.84 1224.85 363.707 1117.99 312.329C1113.96 310.391 1109.14 312.165 1107.26 316.225C1105.38 320.285 1107.16 325.094 1111.19 327.034C1214.67 376.847 1298.92 459.301 1350.96 561.687C1352.98 565.675 1357.83 567.345 1361.85 565.38Z" fill="#3380D0"/>
</g>
<defs>
<filter id="filter0_d" x="194" y="199" width="1280" height="1280" filterUnits="userSpaceOnUse" color-interpolation-filters="sRGB">
<feFlood flood-opacity="0" result="BackgroundImageFix"/>
<feColorMatrix in="SourceAlpha" type="matrix" values="0 0 0 0 0 0 0 0 0 0 0 0 0 0 0 0 0 0 127 0" result="hardAlpha"/>
<feOffset dy="4"/>
<feGaussianBlur stdDeviation="50"/>
<feColorMatrix type="matrix" values="0 0 0 0 0.2 0 0 0 0 0.501961 0 0 0 0 0.815686 0 0 0 1 0"/>
<feBlend mode="normal" in2="BackgroundImageFix" result="effect1_dropShadow"/>
<feBlend mode="normal" in="SourceGraphic" in2="effect1_dropShadow" result="shape"/>
</filter>
<filter id="filter1_d" x="734" y="199" width="740" height="740" filterUnits="userSpaceOnUse" color-interpolation-filters="sRGB">
<feFlood flood-opacity="0" result="BackgroundImageFix"/>
<feColorMatrix in="SourceAlpha" type="matrix" values="0 0 0 0 0 0 0 0 0 0 0 0 0 0 0 0 0 0 127 0" result="hardAlpha"/>
<feOffset dy="4"/>
<feGaussianBlur stdDeviation="50"/>
<feColorMatrix type="matrix" values="0 0 0 0 0.639216 0 0 0 0 0.768627 0 0 0 0 0.905882 0 0 0 1 0"/>
<feBlend mode="normal" in2="BackgroundImageFix" result="effect1_dropShadow"/>
<feBlend mode="normal" in="SourceGraphic" in2="effect1_dropShadow" result="shape"/>
</filter>
<filter id="filter2_d" x="101.438" y="0.0961914" width="465.749" height="418.316" filterUnits="userSpaceOnUse" color-interpolation-filters="sRGB">
<feFlood flood-opacity="0" result="BackgroundImageFix"/>
<feColorMatrix in="SourceAlpha" type="matrix" values="0 0 0 0 0 0 0 0 0 0 0 0 0 0 0 0 0 0 127 0" result="hardAlpha"/>
<feOffset dy="4"/>
<feGaussianBlur stdDeviation="50"/>
<feColorMatrix type="matrix" values="0 0 0 0 0.2 0 0 0 0 0.501961 0 0 0 0 0.815686 0 0 0 1 0"/>
<feBlend mode="normal" in2="BackgroundImageFix" result="effect1_dropShadow"/>
<feBlend mode="normal" in="SourceGraphic" in2="effect1_dropShadow" result="shape"/>
</filter>
<filter id="filter3_d" x="23" y="45.9341" width="764.122" height="1526.99" filterUnits="userSpaceOnUse" color-interpolation-filters="sRGB">
<feFlood flood-opacity="0" result="BackgroundImageFix"/>
<feColorMatrix in="SourceAlpha" type="matrix" values="0 0 0 0 0 0 0 0 0 0 0 0 0 0 0 0 0 0 127 0" result="hardAlpha"/>
<feOffset dy="4"/>
<feGaussianBlur stdDeviation="50"/>
<feColorMatrix type="matrix" values="0 0 0 0 0.45098 0 0 0 0 0.635294 0 0 0 0 0.827451 0 0 0 1 0"/>
<feBlend mode="normal" in2="BackgroundImageFix" result="effect1_dropShadow"/>
<feBlend mode="normal" in="SourceGraphic" in2="effect1_dropShadow" result="shape"/>
</filter>
<filter id="filter4_d" x="427.559" y="1315.32" width="761.261" height="301.681" filterUnits="userSpaceOnUse" color-interpolation-filters="sRGB">
<feFlood flood-opacity="0" result="BackgroundImageFix"/>
<feColorMatrix in="SourceAlpha" type="matrix" values="0 0 0 0 0 0 0 0 0 0 0 0 0 0 0 0 0 0 127 0" result="hardAlpha"/>
<feOffset dy="4"/>
<feGaussianBlur stdDeviation="50"/>
<feColorMatrix type="matrix" values="0 0 0 0 0.2 0 0 0 0 0.501961 0 0 0 0 0.815686 0 0 0 1 0"/>
<feBlend mode="normal" in2="BackgroundImageFix" result="effect1_dropShadow"/>
<feBlend mode="normal" in="SourceGraphic" in2="effect1_dropShadow" result="shape"/>
</filter>
<filter id="filter5_d" x="1246.49" y="279.598" width="352.76" height="463.173" filterUnits="userSpaceOnUse" color-interpolation-filters="sRGB">
<feFlood flood-opacity="0" result="BackgroundImageFix"/>
<feColorMatrix in="SourceAlpha" type="matrix" values="0 0 0 0 0 0 0 0 0 0 0 0 0 0 0 0 0 0 127 0" result="hardAlpha"/>
<feOffset dy="4"/>
<feGaussianBlur stdDeviation="50"/>
<feColorMatrix type="matrix" values="0 0 0 0 0.505882 0 0 0 0 0.67451 0 0 0 0 0.847059 0 0 0 1 0"/>
<feBlend mode="normal" in2="BackgroundImageFix" result="effect1_dropShadow"/>
<feBlend mode="normal" in="SourceGraphic" in2="effect1_dropShadow" result="shape"/>
</filter>
<filter id="filter6_d" x="474.941" y="739.5" width="1065.99" height="807.5" filterUnits="userSpaceOnUse" color-interpolation-filters="sRGB">
<feFlood flood-opacity="0" result="BackgroundImageFix"/>
<feColorMatrix in="SourceAlpha" type="matrix" values="0 0 0 0 0 0 0 0 0 0 0 0 0 0 0 0 0 0 127 0" result="hardAlpha"/>
<feOffset dy="4"/>
<feGaussianBlur stdDeviation="50"/>
<feColorMatrix type="matrix" values="0 0 0 0 0.2 0 0 0 0 0.501961 0 0 0 0 0.815686 0 0 0 1 0"/>
<feBlend mode="normal" in2="BackgroundImageFix" result="effect1_dropShadow"/>
<feBlend mode="normal" in="SourceGraphic" in2="effect1_dropShadow" result="shape"/>
</filter>
<filter id="filter7_d" x="1006.51" y="215.542" width="459.863" height="454.663" filterUnits="userSpaceOnUse" color-interpolation-filters="sRGB">
<feFlood flood-opacity="0" result="BackgroundImageFix"/>
<feColorMatrix in="SourceAlpha" type="matrix" values="0 0 0 0 0 0 0 0 0 0 0 0 0 0 0 0 0 0 127 0" result="hardAlpha"/>
<feOffset dy="4"/>
<feGaussianBlur stdDeviation="50"/>
<feColorMatrix type="matrix" values="0 0 0 0 0.2 0 0 0 0 0.501961 0 0 0 0 0.815686 0 0 0 1 0"/>
<feBlend mode="normal" in2="BackgroundImageFix" result="effect1_dropShadow"/>
<feBlend mode="normal" in="SourceGraphic" in2="effect1_dropShadow" result="shape"/>
</filter>
</defs>
</svg>
