<svg width="1450" height="1450" viewBox="0 0 1450 1450" fill="none" xmlns="http://www.w3.org/2000/svg">
<g filter="url(#filter0_ddd)">
<path d="M786 790C786 793.866 782.866 797 779 797C775.134 797 772 793.866 772 790C772 786.134 775.134 783 779 783C782.866 783 786 786.134 786 790ZM773.4 790C773.4 793.093 775.907 795.6 779 795.6C782.093 795.6 784.6 793.093 784.6 790C784.6 786.907 782.093 784.4 779 784.4C775.907 784.4 773.4 786.907 773.4 790Z" fill="#07C4FF"/>
<path d="M749 754.651L751.046 753L775.541 783.348C775.888 783.778 775.82 784.407 775.391 784.754L774.901 785.149C774.471 785.496 773.842 785.429 773.495 784.999L749 754.651Z" fill="#07C4FF"/>
<g filter="url(#filter1_f)">
<circle cx="723" cy="719" r="15" fill="white"/>
</g>
<path d="M723.427 720.533L723.286 728.462L719.868 728.401L720.009 720.472L711.027 720.313L711.091 716.68L720.074 716.84L720.215 708.912L723.633 708.973L723.492 716.901L731.791 717.049L731.726 720.681L723.427 720.533Z" fill="#07C4FF"/>
<path d="M767 719C767 743.301 747.301 763 723 763C698.699 763 679 743.301 679 719C679 694.699 698.699 675 723 675C747.301 675 767 694.699 767 719ZM682.901 719C682.901 741.146 700.854 759.099 723 759.099C745.146 759.099 763.099 741.146 763.099 719C763.099 696.854 745.146 678.901 723 678.901C700.854 678.901 682.901 696.854 682.901 719Z" fill="#07C4FF"/>
<path d="M720.648 830.514L723.276 830.593L721.955 874.573C721.938 875.125 721.477 875.559 720.925 875.543L720.296 875.524C719.744 875.507 719.31 875.046 719.327 874.494L720.648 830.514Z" fill="#07C4FF"/>
<path d="M757.56 825.032C757.876 826.15 757.227 827.314 756.103 827.609C734.268 833.348 711.218 832.457 689.891 825.049C688.794 824.667 688.236 823.456 688.638 822.366C689.039 821.276 690.248 820.72 691.345 821.1C711.837 828.202 733.979 829.059 754.959 823.56C756.082 823.266 757.244 823.914 757.56 825.032Z" fill="#07C4FF"/>
<path d="M615.539 717.037L615.46 719.665L571.48 718.343C570.928 718.327 570.494 717.866 570.51 717.314L570.529 716.685C570.546 716.133 571.007 715.699 571.559 715.715L615.539 717.037Z" fill="#07C4FF"/>
<path d="M621.02 753.949C619.902 754.265 618.738 753.615 618.443 752.492C612.704 730.657 613.595 707.606 621.003 686.28C621.384 685.183 622.595 684.625 623.686 685.026C624.776 685.428 625.332 686.636 624.952 687.734C617.85 708.226 616.993 730.368 622.491 751.347C622.786 752.471 622.138 753.633 621.02 753.949Z" fill="#07C4FF"/>
<path d="M729.012 611.924L726.384 611.845L727.705 567.865C727.722 567.313 728.183 566.879 728.735 566.896L729.364 566.914C729.916 566.931 730.35 567.392 730.333 567.944L729.012 611.924Z" fill="#07C4FF"/>
<path d="M692.1 617.407C691.784 616.289 692.434 615.124 693.557 614.829C715.392 609.09 738.443 609.982 759.769 617.39C760.866 617.771 761.424 618.982 761.022 620.072C760.621 621.162 759.413 621.718 758.315 621.338C737.823 614.236 715.681 613.38 694.702 618.878C693.578 619.172 692.416 618.524 692.1 617.407Z" fill="#07C4FF"/>
<path d="M834.125 725.401L834.204 722.774L878.184 724.095C878.736 724.112 879.17 724.573 879.154 725.125L879.135 725.753C879.118 726.305 878.657 726.74 878.105 726.723L834.125 725.401Z" fill="#07C4FF"/>
<path d="M828.644 688.489C829.762 688.173 830.926 688.823 831.221 689.946C836.96 711.781 836.069 734.832 828.661 756.158C828.28 757.255 827.069 757.813 825.979 757.412C824.888 757.01 824.332 755.802 824.713 754.704C831.814 734.212 832.671 712.07 827.173 691.091C826.878 689.967 827.526 688.805 828.644 688.489Z" fill="#07C4FF"/>
<path d="M775.689 850.217C776.184 851.607 775.458 853.138 774.06 853.607C740.984 864.704 705.003 863.452 672.778 850.081C671.416 849.516 670.798 847.938 671.389 846.586C671.98 845.234 673.554 844.619 674.917 845.184C705.896 858.012 740.471 859.215 772.267 848.573C773.666 848.104 775.194 848.827 775.689 850.217Z" fill="#07C4FF"/>
<path d="M596.633 771.69C595.244 772.185 593.713 771.46 593.243 770.061C582.146 736.985 583.399 701.004 596.77 668.779C597.335 667.417 598.912 666.8 600.265 667.39C601.617 667.981 602.231 669.555 601.667 670.918C588.839 701.897 587.635 736.472 598.278 768.268C598.746 769.667 598.023 771.195 596.633 771.69Z" fill="#07C4FF"/>
<path d="M675.159 592.632C674.664 591.242 675.389 589.712 676.788 589.242C709.864 578.145 745.845 579.398 778.069 592.768C779.432 593.334 780.049 594.911 779.459 596.263C778.868 597.616 777.294 598.23 775.931 597.666C744.952 584.838 710.377 583.634 678.581 594.277C677.182 594.745 675.654 594.022 675.159 592.632Z" fill="#07C4FF"/>
<path d="M854.218 671.159C855.608 670.664 857.139 671.39 857.608 672.788C868.705 705.865 867.453 741.846 854.082 774.07C853.517 775.433 851.939 776.05 850.587 775.459C849.235 774.869 848.62 773.294 849.185 771.931C862.013 740.953 863.216 706.377 852.574 674.582C852.106 673.182 852.828 671.655 854.218 671.159Z" fill="#07C4FF"/>
<path d="M784.152 932.441L789.214 930.986L796.21 955.333C796.362 955.864 796.055 956.418 795.525 956.57L792.385 957.472C791.854 957.625 791.3 957.318 791.148 956.787L784.152 932.441Z" fill="#07C4FF"/>
<path d="M894.83 858.593C896.594 860.111 896.796 862.774 895.246 864.51C864.807 898.586 824.796 922.747 780.395 933.799C735.993 944.852 689.325 942.268 646.463 926.437C644.28 925.631 643.21 923.184 644.057 921.016C644.903 918.849 647.345 917.782 649.529 918.586C690.765 933.783 735.651 936.253 778.359 925.622C821.068 914.991 859.558 891.767 888.858 859.012C890.409 857.278 893.066 857.076 894.83 858.593Z" fill="#07C4FF"/>
<path d="M514.309 780.149L515.763 785.211L491.416 792.206C490.885 792.359 490.331 792.052 490.179 791.521L489.277 788.382C489.124 787.851 489.431 787.297 489.962 787.144L514.309 780.149Z" fill="#07C4FF"/>
<path d="M588.157 890.828C586.639 892.592 583.976 892.794 582.24 891.244C548.164 860.805 524.003 820.794 512.951 776.393C501.898 731.991 504.482 685.323 520.313 642.461C521.119 640.278 523.566 639.208 525.734 640.055C527.901 640.901 528.968 643.343 528.164 645.527C512.967 686.762 510.497 731.648 521.128 774.357C531.759 817.066 554.983 855.556 587.738 884.856C589.472 886.407 589.674 889.064 588.157 890.828Z" fill="#07C4FF"/>
<path d="M666.598 510.308L661.536 511.762L654.54 487.416C654.388 486.885 654.695 486.331 655.225 486.178L658.365 485.276C658.896 485.124 659.45 485.43 659.602 485.961L666.598 510.308Z" fill="#07C4FF"/>
<path d="M555.92 584.155C554.156 582.638 553.954 579.974 555.504 578.239C585.943 544.162 625.954 520.002 670.355 508.949C714.757 497.897 761.425 500.481 804.287 516.312C806.47 517.118 807.54 519.565 806.693 521.733C805.847 523.9 803.405 524.967 801.221 524.163C759.985 508.966 715.099 506.496 672.391 517.127C629.682 527.758 591.192 550.982 561.892 583.737C560.341 585.471 557.684 585.673 555.92 584.155Z" fill="#07C4FF"/>
<path d="M936.441 662.6L934.987 657.538L959.334 650.543C959.865 650.39 960.419 650.697 960.571 651.228L961.473 654.367C961.626 654.898 961.319 655.452 960.788 655.604L936.441 662.6Z" fill="#07C4FF"/>
<path d="M862.593 551.921C864.111 550.157 866.774 549.955 868.51 551.505C902.586 581.944 926.747 621.955 937.799 666.356C948.852 710.758 946.268 757.426 930.437 800.288C929.631 802.471 927.184 803.541 925.016 802.694C922.849 801.848 921.782 799.406 922.586 797.222C937.783 755.986 940.253 711.1 929.622 668.392C918.991 625.683 895.767 587.193 863.012 557.893C861.278 556.342 861.076 553.684 862.593 551.921Z" fill="#07C4FF"/>
<path d="M544.213 507.852L543.318 515.731L539.922 515.345L540.817 507.466L531.89 506.453L532.3 502.843L541.227 503.857L542.122 495.978L545.518 496.363L544.623 504.242L552.871 505.179L552.461 508.789L544.213 507.852Z" fill="white" fill-opacity="0.75"/>
<path d="M388.461 805.598C377.159 764.486 374.18 721.683 379.687 679.499L404.612 682.482C399.503 721.62 402.266 761.332 412.752 799.474L388.461 805.598Z" fill="#07C4FF"/>
<path d="M389.035 633.954C400.612 592.913 420.288 554.373 446.999 520.417L467.063 534.889C442.281 566.393 424.026 602.149 413.286 640.227L389.035 633.954Z" fill="#07C4FF"/>
<path d="M481.557 888.562L485.539 895.419L482.584 897.135L478.601 890.278L470.832 894.79L469.007 891.649L476.777 887.137L472.794 880.28L475.75 878.563L479.732 885.42L486.91 881.251L488.735 884.393L481.557 888.562Z" fill="white" fill-opacity="0.75"/>
<path d="M637.953 1056.58C596.912 1045 558.372 1025.33 524.416 998.619L538.888 978.555C570.392 1003.34 606.149 1021.59 644.226 1032.33L637.953 1056.58Z" fill="#07C4FF"/>
<path d="M809.597 1057.16C768.485 1068.46 725.682 1071.44 683.498 1065.93L686.481 1041.01C725.619 1046.11 765.331 1043.35 803.473 1032.86L809.597 1057.16Z" fill="#07C4FF"/>
<path d="M948.576 932.439L952.914 939.077L950.053 940.947L945.715 934.309L938.194 939.224L936.207 936.183L943.728 931.268L939.39 924.63L942.251 922.76L946.589 929.398L953.537 924.857L955.525 927.898L948.576 932.439Z" fill="white" fill-opacity="0.75"/>
<path d="M1060.58 807.662C1049 848.703 1029.33 887.243 1002.62 921.199L982.555 906.727C1007.34 875.223 1025.59 839.466 1036.33 801.389L1060.58 807.662Z" fill="#07C4FF"/>
<path d="M1061.16 636.018C1072.46 677.13 1075.44 719.933 1069.93 762.117L1045.01 759.134C1050.11 719.996 1047.35 680.284 1036.86 642.142L1061.16 636.018Z" fill="#07C4FF"/>
<path d="M985.614 583.441L993.003 586.318L991.763 589.503L984.374 586.626L981.115 594.998L977.729 593.68L980.989 585.308L973.599 582.431L974.839 579.246L982.229 582.123L985.24 574.388L988.625 575.706L985.614 583.441Z" fill="white" fill-opacity="0.75"/>
<path d="M811.66 385.034C852.702 396.612 891.241 416.287 925.198 442.998L910.725 463.062C879.221 438.28 843.465 420.026 805.387 409.285L811.66 385.034Z" fill="#07C4FF"/>
<path d="M640.016 384.46C681.128 373.158 723.931 370.179 766.115 375.686L763.132 400.611C723.995 395.502 684.282 398.266 646.14 408.751L640.016 384.46Z" fill="#07C4FF"/>
<path d="M891.855 1019.84C890.895 1020.8 889.339 1020.8 888.379 1019.84C887.419 1018.88 887.419 1017.32 888.379 1016.36L891.855 1012.89L895.331 1016.36L891.855 1019.84Z" fill="#07C4FF"/>
<path d="M932.674 972.865C933.607 971.879 935.163 971.835 936.149 972.768C937.135 973.701 937.179 975.256 936.246 976.243L932.868 979.814L929.296 976.436L932.674 972.865Z" fill="#07C4FF"/>
<path d="M890.004 977.125C889.044 976.165 889.044 974.608 890.004 973.649C890.964 972.689 892.52 972.689 893.48 973.649L896.956 977.125L893.48 980.601L890.004 977.125Z" fill="#07C4FF"/>
<path d="M936.98 1015.49C937.966 1016.42 938.009 1017.97 937.077 1018.96C936.144 1019.95 934.588 1019.99 933.602 1019.06L930.03 1015.68L933.408 1012.11L936.98 1015.49Z" fill="#07C4FF"/>
<mask id="path-42-outside-1" maskUnits="userSpaceOnUse" x="887.266" y="971.754" width="51" height="51" fill="black">
<rect fill="white" x="887.266" y="971.754" width="51" height="51"/>
<path d="M937.426 997.334C937.426 1010.91 926.421 1021.91 912.846 1021.91C899.27 1021.91 888.266 1010.91 888.266 997.334C888.266 983.759 899.27 972.754 912.846 972.754C926.421 972.754 937.426 983.759 937.426 997.334ZM888.577 997.334C888.577 1010.74 899.443 1021.6 912.846 1021.6C926.249 1021.6 937.114 1010.74 937.114 997.334C937.114 983.931 926.249 973.066 912.846 973.066C899.443 973.066 888.577 983.931 888.577 997.334Z"/>
</mask>
<path d="M937.426 997.334C937.426 1010.91 926.421 1021.91 912.846 1021.91C899.27 1021.91 888.266 1010.91 888.266 997.334C888.266 983.759 899.27 972.754 912.846 972.754C926.421 972.754 937.426 983.759 937.426 997.334ZM888.577 997.334C888.577 1010.74 899.443 1021.6 912.846 1021.6C926.249 1021.6 937.114 1010.74 937.114 997.334C937.114 983.931 926.249 973.066 912.846 973.066C899.443 973.066 888.577 983.931 888.577 997.334Z" fill="#07C4FF"/>
<path d="M937.426 997.334C937.426 1010.91 926.421 1021.91 912.846 1021.91C899.27 1021.91 888.266 1010.91 888.266 997.334C888.266 983.759 899.27 972.754 912.846 972.754C926.421 972.754 937.426 983.759 937.426 997.334ZM888.577 997.334C888.577 1010.74 899.443 1021.6 912.846 1021.6C926.249 1021.6 937.114 1010.74 937.114 997.334C937.114 983.931 926.249 973.066 912.846 973.066C899.443 973.066 888.577 983.931 888.577 997.334Z" stroke="#07C4FF" stroke-width="1.5" mask="url(#path-42-outside-1)"/>
<path d="M522.32 470.921C521.36 471.881 519.804 471.881 518.844 470.921C517.884 469.961 517.884 468.405 518.844 467.445L522.32 463.969L525.796 467.445L522.32 470.921Z" fill="#07C4FF"/>
<path d="M563.139 423.946C564.072 422.96 565.628 422.916 566.614 423.849C567.6 424.782 567.644 426.338 566.711 427.324L563.333 430.895L559.761 427.518L563.139 423.946Z" fill="#07C4FF"/>
<path d="M520.469 428.206C519.509 427.246 519.509 425.689 520.469 424.73C521.428 423.77 522.985 423.77 523.945 424.73L527.421 428.206L523.945 431.682L520.469 428.206Z" fill="#07C4FF"/>
<path d="M567.445 466.567C568.431 467.5 568.474 469.055 567.542 470.042C566.609 471.028 565.053 471.071 564.067 470.138L560.495 466.761L563.873 463.189L567.445 466.567Z" fill="#07C4FF"/>
<mask id="path-47-outside-2" maskUnits="userSpaceOnUse" x="517.73" y="422.835" width="51" height="51" fill="black">
<rect fill="white" x="517.73" y="422.835" width="51" height="51"/>
<path d="M567.891 448.415C567.891 461.99 556.886 472.995 543.311 472.995C529.735 472.995 518.73 461.99 518.73 448.415C518.73 434.84 529.735 423.835 543.311 423.835C556.886 423.835 567.891 434.84 567.891 448.415ZM519.042 448.415C519.042 461.818 529.907 472.683 543.311 472.683C556.714 472.683 567.579 461.818 567.579 448.415C567.579 435.012 556.714 424.147 543.311 424.147C529.907 424.147 519.042 435.012 519.042 448.415Z"/>
</mask>
<path d="M567.891 448.415C567.891 461.99 556.886 472.995 543.311 472.995C529.735 472.995 518.73 461.99 518.73 448.415C518.73 434.84 529.735 423.835 543.311 423.835C556.886 423.835 567.891 434.84 567.891 448.415ZM519.042 448.415C519.042 461.818 529.907 472.683 543.311 472.683C556.714 472.683 567.579 461.818 567.579 448.415C567.579 435.012 556.714 424.147 543.311 424.147C529.907 424.147 519.042 435.012 519.042 448.415Z" fill="#07C4FF"/>
<path d="M567.891 448.415C567.891 461.99 556.886 472.995 543.311 472.995C529.735 472.995 518.73 461.99 518.73 448.415C518.73 434.84 529.735 423.835 543.311 423.835C556.886 423.835 567.891 434.84 567.891 448.415ZM519.042 448.415C519.042 461.818 529.907 472.683 543.311 472.683C556.714 472.683 567.579 461.818 567.579 448.415C567.579 435.012 556.714 424.147 543.311 424.147C529.907 424.147 519.042 435.012 519.042 448.415Z" stroke="#07C4FF" stroke-width="1.5" mask="url(#path-47-outside-2)"/>
<path d="M1086.17 911.759L1064.96 900.272L1067.19 896.15L1068.85 897.051L1067.77 899.058L1085.65 908.744L1086.74 906.736L1088.4 907.637L1086.17 911.759ZM1095.32 887.397C1094.59 888.743 1093.63 889.72 1092.43 890.329C1091.23 890.931 1089.9 891.171 1088.43 891.05C1086.95 890.925 1085.44 890.442 1083.88 889.601L1083.66 889.479C1082.1 888.638 1080.87 887.638 1079.96 886.48C1079.05 885.31 1078.52 884.057 1078.38 882.719C1078.23 881.378 1078.51 880.034 1079.24 878.689C1080.01 877.265 1081 876.258 1082.2 875.667C1083.39 875.065 1084.72 874.841 1086.18 874.995C1087.64 875.144 1089.14 875.639 1090.7 876.48L1090.92 876.602C1092.48 877.443 1093.72 878.434 1094.64 879.575C1095.56 880.713 1096.1 881.946 1096.25 883.277C1096.4 884.6 1096.09 885.973 1095.32 887.397ZM1093.56 886.444C1094.12 885.406 1094.32 884.43 1094.15 883.514C1093.98 882.591 1093.52 881.729 1092.76 880.928C1091.99 880.124 1091 879.391 1089.77 878.728L1089.52 878.594C1088.31 877.935 1087.16 877.512 1086.08 877.323C1084.99 877.124 1084.02 877.207 1083.15 877.572C1082.28 877.933 1081.57 878.625 1081.01 879.648C1080.51 880.586 1080.34 881.521 1080.51 882.456C1080.68 883.39 1081.13 884.275 1081.87 885.111C1082.61 885.944 1083.58 886.687 1084.79 887.342L1085.03 887.476C1086.25 888.135 1087.41 888.548 1088.53 888.715C1089.63 888.879 1090.62 888.777 1091.5 888.408C1092.37 888.036 1093.05 887.382 1093.56 886.444ZM1108.44 870.627L1106.78 869.726L1107.87 867.708L1089.99 858.023L1088.9 860.041L1087.23 859.14L1089.47 855.007L1110.68 866.494L1108.44 870.627Z" fill="white"/>
<path d="M428.547 999.68L444.446 981.54L447.971 984.63L446.724 986.053L445.007 984.548L431.602 999.842L433.319 1001.35L432.072 1002.77L428.547 999.68ZM450.276 1014C449.126 1012.99 448.386 1011.84 448.058 1010.53C447.736 1009.23 447.797 1007.88 448.241 1006.47C448.69 1005.06 449.496 1003.69 450.66 1002.36L450.829 1002.17C451.993 1000.84 453.241 999.86 454.572 999.23C455.915 998.599 457.254 998.361 458.591 998.516C459.933 998.664 461.179 999.242 462.329 1000.25C463.547 1001.32 464.311 1002.5 464.622 1003.8C464.944 1005.1 464.868 1006.45 464.395 1007.84C463.926 1009.23 463.11 1010.58 461.946 1011.91L461.777 1012.1C460.613 1013.43 459.372 1014.42 458.054 1015.07C456.741 1015.72 455.42 1015.97 454.089 1015.82C452.765 1015.67 451.494 1015.07 450.276 1014ZM451.596 1012.5C452.483 1013.27 453.392 1013.68 454.323 1013.72C455.26 1013.76 456.203 1013.5 457.152 1012.94C458.107 1012.36 459.042 1011.56 459.96 1010.51L460.145 1010.3C461.057 1009.26 461.724 1008.23 462.148 1007.22C462.583 1006.2 462.718 1005.23 462.553 1004.31C462.394 1003.38 461.877 1002.53 461.002 1001.77C460.2 1001.06 459.325 1000.69 458.376 1000.65C457.428 1000.61 456.464 1000.86 455.484 1001.39C454.51 1001.92 453.57 1002.71 452.663 1003.74L452.478 1003.95C451.566 1004.99 450.905 1006.04 450.496 1007.08C450.091 1008.13 449.972 1009.11 450.137 1010.05C450.308 1010.98 450.794 1011.79 451.596 1012.5ZM463.724 1030.51L464.971 1029.09L466.697 1030.6L480.102 1015.31L478.376 1013.8L479.623 1012.37L483.158 1015.47L467.258 1033.61L463.724 1030.51Z" fill="white"/>
<path d="M389.686 532.947L369.279 520.087L371.778 516.121L373.379 517.13L372.162 519.061L389.367 529.903L390.584 527.972L392.185 528.981L389.686 532.947ZM400.426 509.241C399.61 510.535 398.584 511.447 397.346 511.975C396.113 512.497 394.767 512.649 393.307 512.431C391.841 512.21 390.361 511.628 388.867 510.686L388.65 510.55C387.156 509.608 385.993 508.529 385.163 507.313C384.33 506.086 383.885 504.801 383.828 503.456C383.764 502.108 384.139 500.786 384.955 499.492C385.818 498.122 386.868 497.182 388.103 496.671C389.336 496.15 390.677 496.014 392.126 496.263C393.569 496.508 395.037 497.102 396.531 498.043L396.748 498.18C398.242 499.121 399.414 500.192 400.265 501.391C401.108 502.587 401.561 503.853 401.622 505.19C401.688 506.521 401.289 507.871 400.426 509.241ZM398.732 508.174C399.361 507.175 399.621 506.214 399.511 505.289C399.406 504.357 399 503.466 398.294 502.617C397.582 501.764 396.637 500.966 395.459 500.225L395.222 500.075C394.051 499.337 392.932 498.839 391.864 498.58C390.794 498.309 389.816 498.327 388.929 498.635C388.036 498.938 387.28 499.581 386.659 500.566C386.091 501.468 385.86 502.39 385.968 503.334C386.076 504.277 386.472 505.19 387.156 506.073C387.834 506.952 388.754 507.759 389.918 508.492L390.155 508.641C391.326 509.379 392.46 509.868 393.559 510.108C394.651 510.345 395.646 510.308 396.544 509.998C397.434 509.684 398.164 509.076 398.732 508.174ZM414.625 493.372L413.024 492.363L414.248 490.421L397.042 479.579L395.818 481.521L394.218 480.512L396.723 476.536L417.13 489.396L414.625 493.372Z" fill="white"/>
<rect x="709.242" y="246" width="22.5118" height="31.5166" fill="#07C4FF"/>
<rect x="709.242" y="1164.48" width="22.5118" height="31.5166" fill="#07C4FF"/>
<rect x="394.832" y="1062.58" width="22.5118" height="31.5166" transform="rotate(-135 394.832 1062.58)" fill="#07C4FF"/>
<rect x="1046.55" y="413.118" width="22.5118" height="31.5166" transform="rotate(-135 1046.55 413.118)" fill="#07C4FF"/>
<rect x="250" y="732.256" width="22.5118" height="31.5166" transform="rotate(-90 250 732.256)" fill="#07C4FF"/>
<rect x="1168.48" y="732.256" width="22.5118" height="31.5166" transform="rotate(-90 1168.48 732.256)" fill="#07C4FF"/>
<rect x="378.914" y="395.335" width="22.5118" height="31.5166" transform="rotate(-45 378.914 395.335)" fill="#07C4FF"/>
<rect x="1028.38" y="1044.8" width="22.5118" height="31.5166" transform="rotate(-45 1028.38 1044.8)" fill="#07C4FF"/>
<path d="M1170.73 721C1170.73 967.173 971.173 1166.73 725 1166.73C478.828 1166.73 279.266 967.173 279.266 721C279.266 474.828 478.828 275.266 725 275.266C971.173 275.266 1170.73 474.828 1170.73 721ZM284.918 721C284.918 964.051 481.95 1161.08 725 1161.08C968.051 1161.08 1165.08 964.051 1165.08 721C1165.08 477.95 968.051 280.918 725 280.918C481.95 280.918 284.918 477.95 284.918 721Z" fill="#07C4FF"/>
</g>
<defs>
<filter id="filter0_ddd" x="0" y="0" width="1450" height="1450" filterUnits="userSpaceOnUse" color-interpolation-filters="sRGB">
<feFlood flood-opacity="0" result="BackgroundImageFix"/>
<feColorMatrix in="SourceAlpha" type="matrix" values="0 0 0 0 0 0 0 0 0 0 0 0 0 0 0 0 0 0 127 0"/>
<feOffset/>
<feGaussianBlur stdDeviation="35"/>
<feColorMatrix type="matrix" values="0 0 0 0 0 0 0 0 0 0.82 0 0 0 0 1 0 0 0 1 0"/>
<feBlend mode="normal" in2="BackgroundImageFix" result="effect1_dropShadow"/>
<feColorMatrix in="SourceAlpha" type="matrix" values="0 0 0 0 0 0 0 0 0 0 0 0 0 0 0 0 0 0 127 0"/>
<feOffset/>
<feGaussianBlur stdDeviation="12"/>
<feColorMatrix type="matrix" values="0 0 0 0 1 0 0 0 0 1 0 0 0 0 1 0 0 0 1 0"/>
<feBlend mode="normal" in2="effect1_dropShadow" result="effect2_dropShadow"/>
<feColorMatrix in="SourceAlpha" type="matrix" values="0 0 0 0 0 0 0 0 0 0 0 0 0 0 0 0 0 0 127 0"/>
<feOffset dy="4"/>
<feGaussianBlur stdDeviation="125"/>
<feColorMatrix type="matrix" values="0 0 0 0 0.027451 0 0 0 0 0.768627 0 0 0 0 1 0 0 0 1 0"/>
<feBlend mode="normal" in2="effect2_dropShadow" result="effect3_dropShadow"/>
<feBlend mode="normal" in="SourceGraphic" in2="effect3_dropShadow" result="shape"/>
</filter>
<filter id="filter1_f" x="693" y="689" width="60" height="60" filterUnits="userSpaceOnUse" color-interpolation-filters="sRGB">
<feFlood flood-opacity="0" result="BackgroundImageFix"/>
<feBlend mode="normal" in="SourceGraphic" in2="BackgroundImageFix" result="shape"/>
<feGaussianBlur stdDeviation="7.5" result="effect1_foregroundBlur"/>
</filter>
</defs>
</svg>
