<svg width="536" height="539" viewBox="0 0 536 539" fill="none" xmlns="http://www.w3.org/2000/svg">
<path d="M298.332 449.255V506.991C298.332 511.41 294.75 514.991 290.332 514.991H240.596C236.178 514.991 232.596 511.41 232.596 506.991V449.255H298.332Z" fill="#07C4FF"/>
<path d="M233.188 81.4622V23.7262C233.188 19.3079 236.769 15.7262 241.188 15.7262H290.923C295.342 15.7262 298.923 19.3079 298.923 23.7262V81.4622H233.188Z" fill="#07C4FF"/>
<path d="M450.027 231.821H507.763C512.182 231.821 515.763 235.403 515.763 239.821V289.557C515.763 293.976 512.182 297.557 507.763 297.557H450.027V231.821Z" fill="#07C4FF"/>
<path d="M83.4258 297.557H25.6898C21.2716 297.557 17.6898 293.975 17.6898 289.557V239.821C17.6898 235.403 21.2716 231.821 25.6898 231.821H83.4258L83.4258 297.557Z" fill="#07C4FF"/>
<path d="M455.089 265.953C455.089 369.981 370.758 454.312 266.73 454.312C162.702 454.312 78.3711 369.981 78.3711 265.953C78.3711 161.926 162.702 77.5945 266.73 77.5945C370.758 77.5945 455.089 161.926 455.089 265.953ZM100.974 265.953C100.974 357.498 175.186 431.709 266.73 431.709C358.274 431.709 432.486 357.498 432.486 265.953C432.486 174.409 358.274 100.198 266.73 100.198C175.186 100.198 100.974 174.409 100.974 265.953Z" fill="#07C4FF"/>
<path d="M428.84 411.428L531.828 515.818C533.789 517.806 533.768 521.007 531.78 522.969C529.792 524.93 526.59 524.908 524.629 522.92L421.641 418.531L428.84 411.428Z" fill="#07C4FF"/>
<path d="M475.597 312.074C478.492 312.721 480.322 315.595 479.603 318.474C470.781 353.799 453.118 386.335 428.24 413C403.362 439.666 372.128 459.541 337.499 470.79C334.677 471.707 331.683 470.08 330.837 467.236C329.991 464.392 331.614 461.408 334.435 460.487C367.231 449.786 396.81 430.937 420.383 405.67C443.956 380.403 460.71 349.589 469.113 316.13C469.836 313.253 472.701 311.427 475.597 312.074Z" fill="#07C4FF"/>
<path d="M117.691 421.472L10.6023 521.651C8.5629 523.558 5.363 523.452 3.45517 521.412C1.54734 519.373 1.65403 516.173 3.69347 514.265L110.783 414.087L117.691 421.472Z" fill="#07C4FF"/>
<path d="M215.771 470.852C215.047 473.73 212.125 475.483 209.267 474.688C174.188 464.929 142.133 446.409 116.138 420.831C90.1424 395.253 71.1049 363.502 60.7798 328.587C59.9384 325.741 61.6436 322.791 64.5092 322.021C67.3748 321.251 70.3152 322.953 71.1603 325.797C80.9865 358.866 99.0424 388.936 123.674 413.172C148.306 437.408 178.664 454.974 211.888 464.263C214.745 465.062 216.494 467.975 215.771 470.852Z" fill="#07C4FF"/>
<path d="M113.391 117.691L13.2121 10.6016C11.3043 8.56216 11.411 5.36227 13.4504 3.45444C15.4899 1.54661 18.6898 1.65329 20.5976 3.69273L120.776 110.782L113.391 117.691Z" fill="#07C4FF"/>
<path d="M64.0138 215.768C61.1361 215.044 59.3832 212.122 60.1785 209.264C69.9366 174.185 88.4573 142.13 114.035 116.135C139.613 90.1395 171.364 71.102 206.279 60.7769C209.125 59.9354 212.075 61.6407 212.845 64.5063C213.615 67.3719 211.913 70.3122 209.069 71.1574C176 80.9836 145.93 99.0395 121.694 123.671C97.4585 148.303 79.892 178.662 70.6028 211.885C69.8038 214.742 66.8914 216.491 64.0138 215.768Z" fill="#07C4FF"/>
<path d="M417.176 110.862L524.265 10.6831C526.304 8.77527 529.504 8.88196 531.412 10.9214C533.32 12.9608 533.213 16.1607 531.174 18.0685L424.085 118.247L417.176 110.862Z" fill="#07C4FF"/>
<path d="M319.096 61.4815C319.82 58.6039 322.742 56.851 325.6 57.6462C360.679 67.4044 392.734 85.9251 418.729 111.503C444.725 137.081 463.762 168.831 474.087 203.747C474.929 206.592 473.224 209.542 470.358 210.312C467.492 211.082 464.552 209.381 463.707 206.537C453.881 173.468 435.825 143.398 411.193 119.162C386.561 94.9262 356.203 77.3598 322.979 68.0706C320.122 67.2716 318.373 64.3592 319.096 61.4815Z" fill="#07C4FF"/>
</svg>
