<svg width="806" height="798" viewBox="0 0 806 798" fill="none" xmlns="http://www.w3.org/2000/svg">
<path d="M780.77 428.259V431.94C780.77 433.973 779.121 435.622 777.088 435.622C775.055 435.622 773.407 433.973 773.407 431.94V428.259H780.77Z" fill="white"/>
<path d="M773.473 387.064V383.383C773.473 381.35 775.121 379.702 777.154 379.702C779.187 379.702 780.835 381.35 780.835 383.383V387.064H773.473Z" fill="white"/>
<path d="M797.762 403.905H801.443C803.476 403.905 805.124 405.553 805.124 407.587C805.124 409.62 803.476 411.268 801.443 411.268H797.762V403.905Z" fill="white"/>
<path d="M756.699 411.268H753.018C750.985 411.268 749.337 409.62 749.337 407.586C749.337 405.553 750.985 403.905 753.018 403.905H756.699V411.268Z" fill="white"/>
<path d="M798.327 407.728C798.327 419.38 788.881 428.825 777.23 428.825C765.578 428.825 756.133 419.38 756.133 407.728C756.133 396.077 765.578 386.631 777.23 386.631C788.881 386.631 798.327 396.077 798.327 407.728ZM758.664 407.728C758.664 417.982 766.976 426.294 777.23 426.294C787.483 426.294 795.795 417.982 795.795 407.728C795.795 397.475 787.483 389.163 777.23 389.163C766.976 389.163 758.664 397.475 758.664 407.728Z" fill="white"/>
<path d="M31.4336 428.168V431.849C31.4336 433.883 29.7854 435.531 27.7522 435.531C25.7191 435.531 24.0709 433.883 24.0709 431.849V428.168H31.4336Z" fill="white"/>
<path d="M24.1367 386.974V383.292C24.1367 381.259 25.7849 379.611 27.8181 379.611C29.8512 379.611 31.4994 381.259 31.4994 383.292V386.974H24.1367Z" fill="white"/>
<path d="M48.4258 403.814H52.1071C54.1403 403.814 55.7885 405.463 55.7885 407.496C55.7885 409.529 54.1403 411.177 52.1071 411.177H48.4258V403.814Z" fill="white"/>
<path d="M7.36328 411.177H3.68193C1.64877 411.177 0.000572681 409.529 0.000572681 407.496C0.000572681 405.462 1.64877 403.814 3.68193 403.814H7.36328V411.177Z" fill="white"/>
<path d="M48.9909 407.638C48.9909 419.289 39.5454 428.735 27.8939 428.735C16.2423 428.735 6.79687 419.289 6.79687 407.638C6.79688 395.986 16.2423 386.541 27.8939 386.541C39.5454 386.541 48.9909 395.986 48.9909 407.638ZM9.32851 407.638C9.32851 417.891 17.6405 426.203 27.8939 426.203C38.1472 426.203 46.4592 417.891 46.4592 407.638C46.4592 397.384 38.1472 389.072 27.8939 389.072C17.6405 389.072 9.32851 397.384 9.32851 407.638Z" fill="white"/>
<path d="M409.434 790.168V793.849C409.434 795.883 407.785 797.531 405.752 797.531C403.719 797.531 402.071 795.883 402.071 793.849V790.168H409.434Z" fill="white"/>
<path d="M402.137 748.974V745.292C402.137 743.259 403.785 741.611 405.818 741.611C407.851 741.611 409.499 743.259 409.499 745.292V748.974H402.137Z" fill="white"/>
<path d="M426.426 765.814H430.107C432.14 765.814 433.788 767.463 433.788 769.496C433.788 771.529 432.14 773.177 430.107 773.177H426.426V765.814Z" fill="white"/>
<path d="M385.363 773.177H381.682C379.649 773.177 378.001 771.529 378.001 769.496C378.001 767.462 379.649 765.814 381.682 765.814H385.363V773.177Z" fill="white"/>
<path d="M426.991 769.638C426.991 781.289 417.545 790.735 405.894 790.735C394.242 790.735 384.797 781.289 384.797 769.638C384.797 757.986 394.242 748.541 405.894 748.541C417.545 748.541 426.991 757.986 426.991 769.638ZM387.329 769.638C387.329 779.891 395.641 788.203 405.894 788.203C416.147 788.203 424.459 779.891 424.459 769.638C424.459 759.384 416.147 751.072 405.894 751.072C395.641 751.072 387.329 759.384 387.329 769.638Z" fill="white"/>
<path d="M410.645 63.3455V68.1147C410.645 70.7854 408.479 72.9505 405.809 72.9505C403.138 72.9505 400.973 70.7854 400.973 68.1147V63.3455H410.645Z" fill="white"/>
<path d="M401.062 9.60498V4.83578C401.062 2.16502 403.228 -5.18796e-05 405.898 -5.18796e-05C408.569 -5.18796e-05 410.734 2.16502 410.734 4.83578V9.60498H401.062Z" fill="white"/>
<path d="M432.965 31.5746H437.834C440.486 31.5746 442.636 33.7247 442.636 36.3771C442.636 39.0295 440.486 41.1796 437.834 41.1796H432.965V31.5746Z" fill="white"/>
<path d="M379.027 41.1794H374.158C371.506 41.1794 369.356 39.0293 369.356 36.3769C369.356 33.7246 371.506 31.5744 374.158 31.5744H379.027V41.1794Z" fill="white"/>
<path d="M433.707 36.562C433.707 51.7621 421.3 64.0841 405.994 64.0841C390.689 64.0841 378.281 51.7621 378.281 36.562C378.281 21.362 390.689 9.03992 405.994 9.03992C421.3 9.03992 433.707 21.362 433.707 36.562ZM381.607 36.562C381.607 49.9381 392.525 60.7815 405.994 60.7815C419.463 60.7815 430.382 49.9381 430.382 36.562C430.382 23.186 419.463 12.3426 405.994 12.3426C392.525 12.3426 381.607 23.186 381.607 36.562Z" fill="white"/>
<ellipse cx="406.313" cy="36.9564" rx="13.7661" ry="13.6712" fill="white"/>
<path d="M656.703 406.579C656.703 544.65 544.774 656.579 406.703 656.579C268.632 656.579 156.703 544.65 156.703 406.579C156.703 268.507 268.632 156.579 406.703 156.579C544.774 156.579 656.703 268.507 656.703 406.579ZM194.225 406.579C194.225 523.927 289.355 619.057 406.703 619.057C524.052 619.057 619.181 523.927 619.181 406.579C619.181 289.23 524.052 194.1 406.703 194.1C289.355 194.1 194.225 289.23 194.225 406.579Z" fill="white"/>
<path d="M418.859 475.987V493.361C418.859 497.779 415.278 501.361 410.859 501.361H401.486C397.068 501.361 393.486 497.779 393.486 493.361V475.987H418.859Z" fill="white"/>
<path d="M393.715 334.022V316.649C393.715 312.231 397.297 308.649 401.715 308.649H411.088C415.507 308.649 419.088 312.231 419.088 316.649V334.022H393.715Z" fill="white"/>
<path d="M477.414 392.06H494.788C499.206 392.06 502.788 395.642 502.788 400.06V409.434C502.788 413.852 499.206 417.434 494.788 417.434H477.414V392.06Z" fill="white"/>
<path d="M335.91 417.433H318.537C314.118 417.433 310.537 413.851 310.537 409.433V400.06C310.537 395.641 314.118 392.06 318.537 392.06H335.91V417.433Z" fill="white"/>
<path d="M479.367 405.234C479.367 445.388 446.816 477.939 406.662 477.939C366.508 477.939 333.957 445.388 333.957 405.234C333.957 365.081 366.508 332.53 406.662 332.53C446.816 332.53 479.367 365.081 479.367 405.234ZM342.682 405.234C342.682 440.57 371.327 469.214 406.662 469.214C441.997 469.214 470.642 440.57 470.642 405.234C470.642 369.899 441.997 341.254 406.662 341.254C371.327 341.254 342.682 369.899 342.682 405.234Z" fill="white"/>
<circle cx="407.189" cy="406.097" r="14.4783" fill="#FB9999"/>
<path d="M469.23 461.386L508.983 501.68C509.74 502.447 509.732 503.683 508.964 504.44C508.197 505.197 506.961 505.189 506.204 504.421L466.452 464.128L469.23 461.386Z" fill="white"/>
<path d="M487.277 423.036C488.395 423.286 489.101 424.395 488.823 425.506C485.418 439.141 478.6 451.7 468.998 461.993C459.395 472.286 447.339 479.957 433.973 484.299C432.883 484.653 431.728 484.025 431.401 482.927C431.075 481.829 431.701 480.677 432.79 480.322C445.449 476.192 456.866 468.916 465.965 459.163C475.064 449.411 481.531 437.516 484.774 424.602C485.053 423.491 486.159 422.786 487.277 423.036Z" fill="white"/>
<path d="M349.129 465.263L307.794 503.931C307.006 504.668 305.771 504.627 305.035 503.839C304.298 503.052 304.34 501.817 305.127 501.081L346.462 462.413L349.129 465.263Z" fill="white"/>
<path d="M386.987 484.324C386.708 485.434 385.58 486.111 384.477 485.804C370.937 482.038 358.564 474.889 348.53 465.016C338.496 455.143 331.147 442.888 327.162 429.411C326.837 428.312 327.495 427.174 328.602 426.876C329.708 426.579 330.843 427.236 331.169 428.334C334.962 441.098 341.931 452.705 351.439 462.059C360.946 471.414 372.664 478.195 385.488 481.78C386.591 482.089 387.266 483.213 386.987 484.324Z" fill="white"/>
<path d="M347.469 348.006L308.801 306.671C308.064 305.884 308.106 304.648 308.893 303.912C309.68 303.176 310.915 303.217 311.651 304.004L350.319 345.339L347.469 348.006Z" fill="white"/>
<path d="M328.41 385.863C327.299 385.584 326.622 384.456 326.929 383.353C330.696 369.813 337.845 357.44 347.717 347.406C357.59 337.372 369.846 330.023 383.323 326.038C384.421 325.713 385.56 326.371 385.857 327.477C386.154 328.584 385.497 329.719 384.4 330.045C371.635 333.838 360.029 340.807 350.674 350.315C341.319 359.822 334.538 371.54 330.953 384.364C330.645 385.467 329.52 386.142 328.41 385.863Z" fill="white"/>
<path d="M464.727 345.37L506.062 306.702C506.849 305.965 508.084 306.006 508.821 306.794C509.557 307.581 509.516 308.816 508.729 309.552L467.393 348.22L464.727 345.37Z" fill="white"/>
<path d="M426.868 326.309C427.148 325.198 428.275 324.522 429.379 324.829C442.919 328.595 455.292 335.744 465.326 345.617C475.36 355.49 482.708 367.745 486.693 381.222C487.018 382.321 486.36 383.459 485.254 383.756C484.148 384.054 483.013 383.397 482.687 382.299C478.894 369.535 471.924 357.928 462.417 348.573C452.909 339.218 441.191 332.438 428.367 328.852C427.264 328.544 426.589 327.42 426.868 326.309Z" fill="white"/>
<path d="M656.703 406.579C656.703 373.748 650.237 341.239 637.673 310.908C625.109 280.576 606.694 253.017 583.48 229.802C560.265 206.587 532.705 188.172 502.374 175.609C472.043 163.045 439.534 156.579 406.703 156.579V194.594C434.541 194.594 462.107 200.078 487.826 210.731C513.545 221.384 536.914 236.999 556.599 256.683C576.283 276.368 591.898 299.737 602.551 325.456C613.204 351.175 618.687 378.74 618.687 406.579H656.703Z" fill="#FF0000"/>
<path d="M402.703 654.578V616.078C402.703 614.145 404.27 612.578 406.203 612.578C408.136 612.578 409.703 614.145 409.703 616.078V654.578H402.703Z" fill="black"/>
<path d="M406.203 200.578C404.27 200.578 402.703 199.011 402.703 197.078V157.578H409.703V197.078C409.703 199.011 408.136 200.578 406.203 200.578Z" fill="black"/>
<path d="M159.703 402.578H197.203C199.136 402.578 200.703 404.145 200.703 406.078C200.703 408.011 199.136 409.578 197.203 409.578H159.703V402.578Z" fill="black"/>
<path d="M612.703 406.078C612.703 404.145 614.27 402.578 616.203 402.578H652.703V409.578H616.203C614.27 409.578 612.703 408.011 612.703 406.078Z" fill="black"/>
<path d="M520.945 234.796C519.338 233.722 518.906 231.549 519.98 229.941L542.291 196.55L548.111 200.439L525.8 233.83C524.726 235.438 522.553 235.87 520.945 234.796Z" fill="black"/>
<path d="M580.77 586.012L551.954 557.197C550.588 555.831 550.588 553.614 551.954 552.248C553.321 550.881 555.537 550.881 556.904 552.248L585.719 581.063L580.77 586.012Z" fill="black"/>
<path d="M260.627 260.92C259.26 262.286 257.044 262.286 255.677 260.92L227.521 232.763L232.47 227.813L260.627 255.97C261.994 257.337 261.994 259.553 260.627 260.92Z" fill="black"/>
<path d="M227.441 580.065L255.678 551.829C257.045 550.462 259.261 550.462 260.628 551.829C261.994 553.196 261.994 555.412 260.628 556.779L232.391 585.015L227.441 580.065Z" fill="black"/>
<path d="M551.955 260.501C550.589 259.134 550.589 256.918 551.955 255.551L580.191 227.316L585.141 232.265L556.905 260.501C555.538 261.868 553.322 261.868 551.955 260.501Z" fill="black"/>
<path d="M498.41 638.185L483.165 601.38C482.425 599.595 483.273 597.547 485.059 596.807C486.845 596.068 488.892 596.916 489.632 598.702L504.877 635.507L498.41 638.185Z" fill="black"/>
<path d="M327.394 216.169C325.608 216.909 323.56 216.061 322.821 214.275L307.469 177.212L313.936 174.533L329.288 211.596C330.028 213.382 329.18 215.43 327.394 216.169Z" fill="black"/>
<path d="M175.035 498.141L211.493 483.04C213.279 482.301 215.326 483.149 216.066 484.934C216.805 486.72 215.957 488.768 214.171 489.507L177.714 504.609L175.035 498.141Z" fill="black"/>
<path d="M596.703 327.269C595.963 325.483 596.811 323.435 598.597 322.696L635.78 307.294L638.459 313.761L601.276 329.163C599.49 329.903 597.442 329.055 596.703 327.269Z" fill="black"/>
<path d="M636.008 505.549L598.599 490.054C596.813 489.314 595.965 487.267 596.705 485.481C597.445 483.695 599.492 482.847 601.278 483.587L638.687 499.082L636.008 505.549Z" fill="black"/>
<path d="M216.066 327.815C215.326 329.601 213.279 330.449 211.493 329.709L174.076 314.211L176.755 307.743L214.172 323.242C215.958 323.982 216.806 326.029 216.066 327.815Z" fill="black"/>
<path d="M485.331 215.759C483.545 215.019 482.697 212.972 483.437 211.186L498.819 174.052L505.286 176.73L489.904 213.865C489.164 215.651 487.117 216.499 485.331 215.759Z" fill="black"/>
<path d="M307.32 635.892L322.819 598.475C323.559 596.689 325.606 595.841 327.392 596.581C329.178 597.32 330.026 599.368 329.286 601.154L313.787 638.571L307.32 635.892Z" fill="black"/>
<path d="M451.539 652.257L443.649 612.592C443.272 610.696 444.503 608.854 446.399 608.476C448.295 608.099 450.138 609.331 450.515 611.226L458.405 650.891L451.539 652.257Z" fill="black"/>
<path d="M366.023 204.393C364.127 204.771 362.284 203.539 361.907 201.644L354.197 162.881L361.062 161.515L368.773 200.278C369.15 202.174 367.918 204.016 366.023 204.393Z" fill="black"/>
<path d="M161.641 451.214L200.289 443.526C202.185 443.149 204.027 444.38 204.404 446.276C204.782 448.172 203.55 450.015 201.654 450.392L163.006 458.079L161.641 451.214Z" fill="black"/>
<path d="M608.488 365.899C608.11 364.003 609.342 362.16 611.237 361.783L650.634 353.947L651.999 360.812L612.603 368.649C610.707 369.026 608.865 367.794 608.488 365.899Z" fill="black"/>
<path d="M612.293 548.447L578.588 525.926C576.981 524.852 576.548 522.678 577.622 521.071C578.696 519.464 580.87 519.032 582.477 520.105L616.182 542.626L612.293 548.447Z" fill="black"/>
<path d="M235.058 292.176C233.984 293.783 231.81 294.215 230.203 293.141L197.198 271.088L201.087 265.268L234.092 287.321C235.699 288.395 236.132 290.569 235.058 292.176Z" fill="black"/>
<path d="M264.715 611.746L286.955 578.462C288.029 576.855 290.202 576.422 291.809 577.496C293.417 578.57 293.849 580.744 292.775 582.351L270.535 615.635L264.715 611.746Z" fill="black"/>
<path d="M542.102 616.151L519.737 582.68C518.663 581.073 519.096 578.899 520.703 577.826C522.31 576.752 524.484 577.184 525.557 578.791L547.922 612.262L542.102 616.151Z" fill="black"/>
<path d="M291.809 235.26C290.201 236.334 288.028 235.901 286.954 234.294L265.207 201.747L271.027 197.858L292.774 230.405C293.848 232.012 293.416 234.186 291.809 235.26Z" fill="black"/>
<path d="M197.93 541.177L230.201 519.614C231.809 518.54 233.982 518.973 235.056 520.58C236.13 522.187 235.698 524.361 234.09 525.434L201.819 546.998L197.93 541.177Z" fill="black"/>
<path d="M577.62 291.685C576.546 290.077 576.979 287.904 578.586 286.83L612.162 264.395L616.051 270.216L582.475 292.65C580.868 293.724 578.694 293.292 577.62 291.685Z" fill="black"/>
<path d="M649.695 458.622L611.238 450.973C609.342 450.595 608.111 448.753 608.488 446.857C608.865 444.961 610.708 443.73 612.604 444.107L651.061 451.757L649.695 458.622Z" fill="black"/>
<path d="M204.405 366.479C204.028 368.375 202.186 369.606 200.29 369.229L161.042 361.422L162.408 354.557L201.656 362.364C203.551 362.741 204.783 364.584 204.405 366.479Z" fill="black"/>
<path d="M354.082 650.458L361.908 611.112C362.285 609.216 364.128 607.985 366.024 608.362C367.92 608.74 369.151 610.582 368.774 612.478L360.948 651.824L354.082 650.458Z" fill="black"/>
<path d="M446.401 204.279C444.506 203.902 443.274 202.059 443.652 200.163L451.522 160.596L458.387 161.962L450.517 201.529C450.14 203.425 448.297 204.656 446.401 204.279Z" fill="black"/>
<path d="M403.703 161.579V129.079C403.703 127.698 404.822 126.579 406.203 126.579C407.584 126.579 408.703 127.698 408.703 129.079V161.579H403.703Z" fill="white"/>
<path d="M406.203 686.579C404.822 686.579 403.703 685.459 403.703 684.079V651.579H408.703V684.079C408.703 685.459 407.584 686.579 406.203 686.579Z" fill="white"/>
<path d="M161.203 409.079H128.703C127.322 409.079 126.203 407.959 126.203 406.579C126.203 405.198 127.322 404.079 128.703 404.079H161.203V409.079Z" fill="white"/>
<path d="M687.203 406.579C687.203 407.959 686.084 409.079 684.703 409.079H652.203V404.079H684.703C686.084 404.079 687.203 405.198 687.203 406.579Z" fill="white"/>
<path d="M656.703 406.579C656.703 544.65 544.774 656.579 406.703 656.579C268.632 656.579 156.703 544.65 156.703 406.579C156.703 268.507 268.632 156.579 406.703 156.579C544.774 156.579 656.703 268.507 656.703 406.579ZM161.703 406.579C161.703 541.888 271.393 651.579 406.703 651.579C542.013 651.579 651.703 541.888 651.703 406.579C651.703 271.269 542.013 161.579 406.703 161.579C271.393 161.579 161.703 271.269 161.703 406.579Z" fill="black"/>
<path d="M708.547 403.172C708.547 403.74 708.396 404.245 708.094 404.688C707.797 405.131 707.393 405.477 706.883 405.727C707.477 405.982 707.945 406.355 708.289 406.844C708.638 407.334 708.812 407.889 708.812 408.508C708.812 409.493 708.479 410.277 707.812 410.86C707.151 411.443 706.279 411.735 705.195 411.735C704.102 411.735 703.224 411.443 702.562 410.86C701.906 410.271 701.578 409.487 701.578 408.508C701.578 407.894 701.745 407.339 702.078 406.844C702.417 406.349 702.883 405.974 703.477 405.719C702.971 405.469 702.573 405.123 702.281 404.68C701.99 404.237 701.844 403.735 701.844 403.172C701.844 402.214 702.151 401.454 702.766 400.891C703.38 400.329 704.19 400.047 705.195 400.047C706.195 400.047 707.003 400.329 707.617 400.891C708.237 401.454 708.547 402.214 708.547 403.172ZM707.367 408.477C707.367 407.842 707.164 407.323 706.758 406.922C706.357 406.521 705.831 406.321 705.18 406.321C704.529 406.321 704.005 406.519 703.609 406.915C703.219 407.31 703.023 407.831 703.023 408.477C703.023 409.123 703.214 409.631 703.594 410C703.979 410.37 704.513 410.555 705.195 410.555C705.872 410.555 706.404 410.37 706.789 410C707.174 409.625 707.367 409.118 707.367 408.477ZM705.195 401.235C704.628 401.235 704.167 401.412 703.812 401.766C703.464 402.115 703.289 402.592 703.289 403.196C703.289 403.774 703.461 404.243 703.805 404.602C704.154 404.956 704.617 405.133 705.195 405.133C705.773 405.133 706.234 404.956 706.578 404.602C706.927 404.243 707.102 403.774 707.102 403.196C707.102 402.618 706.922 402.146 706.562 401.782C706.203 401.417 705.747 401.235 705.195 401.235ZM717.766 406.727C717.766 408.42 717.477 409.678 716.898 410.5C716.32 411.323 715.417 411.735 714.188 411.735C712.974 411.735 712.076 411.334 711.492 410.532C710.909 409.724 710.607 408.521 710.586 406.922V404.993C710.586 403.321 710.875 402.079 711.453 401.266C712.031 400.454 712.938 400.047 714.172 400.047C715.396 400.047 716.297 400.441 716.875 401.227C717.453 402.008 717.75 403.217 717.766 404.852V406.727ZM716.32 404.75C716.32 403.527 716.148 402.636 715.805 402.079C715.461 401.516 714.917 401.235 714.172 401.235C713.432 401.235 712.893 401.514 712.555 402.071C712.216 402.628 712.042 403.485 712.031 404.641V406.954C712.031 408.183 712.208 409.092 712.562 409.68C712.922 410.264 713.464 410.555 714.188 410.555C714.901 410.555 715.43 410.279 715.773 409.727C716.122 409.175 716.305 408.305 716.32 407.118V404.75ZM726.75 406.727C726.75 408.42 726.461 409.678 725.883 410.5C725.305 411.323 724.401 411.735 723.172 411.735C721.958 411.735 721.06 411.334 720.477 410.532C719.893 409.724 719.591 408.521 719.57 406.922V404.993C719.57 403.321 719.859 402.079 720.438 401.266C721.016 400.454 721.922 400.047 723.156 400.047C724.38 400.047 725.281 400.441 725.859 401.227C726.438 402.008 726.734 403.217 726.75 404.852V406.727ZM725.305 404.75C725.305 403.527 725.133 402.636 724.789 402.079C724.445 401.516 723.901 401.235 723.156 401.235C722.417 401.235 721.878 401.514 721.539 402.071C721.201 402.628 721.026 403.485 721.016 404.641V406.954C721.016 408.183 721.193 409.092 721.547 409.68C721.906 410.264 722.448 410.555 723.172 410.555C723.885 410.555 724.414 410.279 724.758 409.727C725.107 409.175 725.289 408.305 725.305 407.118V404.75Z" fill="white"/>
<path d="M703.188 465.579C702.885 465.938 702.523 466.227 702.102 466.446C701.685 466.665 701.227 466.774 700.727 466.774C700.07 466.774 699.497 466.612 699.008 466.29C698.523 465.967 698.148 465.514 697.883 464.93C697.617 464.342 697.484 463.693 697.484 462.985C697.484 462.224 697.628 461.54 697.914 460.93C698.206 460.321 698.617 459.855 699.148 459.532C699.68 459.209 700.299 459.047 701.008 459.047C702.133 459.047 703.018 459.469 703.664 460.313C704.315 461.152 704.641 462.297 704.641 463.75V464.172C704.641 466.386 704.203 468.003 703.328 469.024C702.453 470.04 701.133 470.56 699.367 470.586H699.086V469.368H699.391C700.583 469.347 701.5 469.037 702.141 468.438C702.781 467.834 703.13 466.881 703.188 465.579ZM700.961 465.579C701.445 465.579 701.891 465.43 702.297 465.133C702.708 464.836 703.008 464.469 703.195 464.032V463.454C703.195 462.506 702.99 461.735 702.578 461.141C702.167 460.547 701.646 460.25 701.016 460.25C700.38 460.25 699.87 460.495 699.484 460.985C699.099 461.469 698.906 462.11 698.906 462.907C698.906 463.683 699.091 464.323 699.461 464.829C699.836 465.329 700.336 465.579 700.961 465.579ZM713.766 465.727C713.766 467.42 713.477 468.678 712.898 469.5C712.32 470.323 711.417 470.735 710.188 470.735C708.974 470.735 708.076 470.334 707.492 469.532C706.909 468.724 706.607 467.521 706.586 465.922V463.993C706.586 462.321 706.875 461.079 707.453 460.266C708.031 459.454 708.938 459.047 710.172 459.047C711.396 459.047 712.297 459.441 712.875 460.227C713.453 461.008 713.75 462.217 713.766 463.852V465.727ZM712.32 463.75C712.32 462.527 712.148 461.636 711.805 461.079C711.461 460.516 710.917 460.235 710.172 460.235C709.432 460.235 708.893 460.514 708.555 461.071C708.216 461.628 708.042 462.485 708.031 463.641V465.954C708.031 467.183 708.208 468.092 708.562 468.68C708.922 469.264 709.464 469.555 710.188 469.555C710.901 469.555 711.43 469.279 711.773 468.727C712.122 468.175 712.305 467.305 712.32 466.118V463.75ZM722.75 465.727C722.75 467.42 722.461 468.678 721.883 469.5C721.305 470.323 720.401 470.735 719.172 470.735C717.958 470.735 717.06 470.334 716.477 469.532C715.893 468.724 715.591 467.521 715.57 465.922V463.993C715.57 462.321 715.859 461.079 716.438 460.266C717.016 459.454 717.922 459.047 719.156 459.047C720.38 459.047 721.281 459.441 721.859 460.227C722.438 461.008 722.734 462.217 722.75 463.852V465.727ZM721.305 463.75C721.305 462.527 721.133 461.636 720.789 461.079C720.445 460.516 719.901 460.235 719.156 460.235C718.417 460.235 717.878 460.514 717.539 461.071C717.201 461.628 717.026 462.485 717.016 463.641V465.954C717.016 467.183 717.193 468.092 717.547 468.68C717.906 469.264 718.448 469.555 719.172 469.555C719.885 469.555 720.414 469.279 720.758 468.727C721.107 468.175 721.289 467.305 721.305 466.118V463.75Z" fill="white"/>
<path d="M685.398 526.579H683.945V516.946L681.031 518.016V516.704L685.172 515.149H685.398V526.579ZM696.766 521.727C696.766 523.42 696.477 524.678 695.898 525.5C695.32 526.323 694.417 526.735 693.188 526.735C691.974 526.735 691.076 526.334 690.492 525.532C689.909 524.724 689.607 523.521 689.586 521.922V519.993C689.586 518.321 689.875 517.079 690.453 516.266C691.031 515.454 691.938 515.047 693.172 515.047C694.396 515.047 695.297 515.441 695.875 516.227C696.453 517.008 696.75 518.217 696.766 519.852V521.727ZM695.32 519.75C695.32 518.527 695.148 517.636 694.805 517.079C694.461 516.516 693.917 516.235 693.172 516.235C692.432 516.235 691.893 516.514 691.555 517.071C691.216 517.628 691.042 518.485 691.031 519.641V521.954C691.031 523.183 691.208 524.092 691.562 524.68C691.922 525.264 692.464 525.555 693.188 525.555C693.901 525.555 694.43 525.279 694.773 524.727C695.122 524.175 695.305 523.305 695.32 522.118V519.75ZM705.75 521.727C705.75 523.42 705.461 524.678 704.883 525.5C704.305 526.323 703.401 526.735 702.172 526.735C700.958 526.735 700.06 526.334 699.477 525.532C698.893 524.724 698.591 523.521 698.57 521.922V519.993C698.57 518.321 698.859 517.079 699.438 516.266C700.016 515.454 700.922 515.047 702.156 515.047C703.38 515.047 704.281 515.441 704.859 516.227C705.438 517.008 705.734 518.217 705.75 519.852V521.727ZM704.305 519.75C704.305 518.527 704.133 517.636 703.789 517.079C703.445 516.516 702.901 516.235 702.156 516.235C701.417 516.235 700.878 516.514 700.539 517.071C700.201 517.628 700.026 518.485 700.016 519.641V521.954C700.016 523.183 700.193 524.092 700.547 524.68C700.906 525.264 701.448 525.555 702.172 525.555C702.885 525.555 703.414 525.279 703.758 524.727C704.107 524.175 704.289 523.305 704.305 522.118V519.75ZM714.734 521.727C714.734 523.42 714.445 524.678 713.867 525.5C713.289 526.323 712.385 526.735 711.156 526.735C709.943 526.735 709.044 526.334 708.461 525.532C707.878 524.724 707.576 523.521 707.555 521.922V519.993C707.555 518.321 707.844 517.079 708.422 516.266C709 515.454 709.906 515.047 711.141 515.047C712.365 515.047 713.266 515.441 713.844 516.227C714.422 517.008 714.719 518.217 714.734 519.852V521.727ZM713.289 519.75C713.289 518.527 713.117 517.636 712.773 517.079C712.43 516.516 711.885 516.235 711.141 516.235C710.401 516.235 709.862 516.514 709.523 517.071C709.185 517.628 709.01 518.485 709 519.641V521.954C709 523.183 709.177 524.092 709.531 524.68C709.891 525.264 710.432 525.555 711.156 525.555C711.87 525.555 712.398 525.279 712.742 524.727C713.091 524.175 713.273 523.305 713.289 522.118V519.75Z" fill="white"/>
<path d="M657.398 580.579H655.945V570.946L653.031 572.016V570.704L657.172 569.149H657.398V580.579ZM666.383 580.579H664.93V570.946L662.016 572.016V570.704L666.156 569.149H666.383V580.579ZM677.75 575.727C677.75 577.42 677.461 578.678 676.883 579.5C676.305 580.323 675.401 580.735 674.172 580.735C672.958 580.735 672.06 580.334 671.477 579.532C670.893 578.724 670.591 577.521 670.57 575.922V573.993C670.57 572.321 670.859 571.079 671.438 570.266C672.016 569.454 672.922 569.047 674.156 569.047C675.38 569.047 676.281 569.441 676.859 570.227C677.438 571.008 677.734 572.217 677.75 573.852V575.727ZM676.305 573.75C676.305 572.527 676.133 571.636 675.789 571.079C675.445 570.516 674.901 570.235 674.156 570.235C673.417 570.235 672.878 570.514 672.539 571.071C672.201 571.628 672.026 572.485 672.016 573.641V575.954C672.016 577.183 672.193 578.092 672.547 578.68C672.906 579.264 673.448 579.555 674.172 579.555C674.885 579.555 675.414 579.279 675.758 578.727C676.107 578.175 676.289 577.305 676.305 576.118V573.75ZM686.734 575.727C686.734 577.42 686.445 578.678 685.867 579.5C685.289 580.323 684.385 580.735 683.156 580.735C681.943 580.735 681.044 580.334 680.461 579.532C679.878 578.724 679.576 577.521 679.555 575.922V573.993C679.555 572.321 679.844 571.079 680.422 570.266C681 569.454 681.906 569.047 683.141 569.047C684.365 569.047 685.266 569.441 685.844 570.227C686.422 571.008 686.719 572.217 686.734 573.852V575.727ZM685.289 573.75C685.289 572.527 685.117 571.636 684.773 571.079C684.43 570.516 683.885 570.235 683.141 570.235C682.401 570.235 681.862 570.514 681.523 571.071C681.185 571.628 681.01 572.485 681 573.641V575.954C681 577.183 681.177 578.092 681.531 578.68C681.891 579.264 682.432 579.555 683.156 579.555C683.87 579.555 684.398 579.279 684.742 578.727C685.091 578.175 685.273 577.305 685.289 576.118V573.75Z" fill="white"/>
<path d="M620.398 629.579H618.945V619.946L616.031 621.016V619.704L620.172 618.149H620.398V629.579ZM632.086 629.579H624.633V628.54L628.57 624.165C629.154 623.503 629.555 622.967 629.773 622.555C629.997 622.139 630.109 621.709 630.109 621.266C630.109 620.672 629.93 620.185 629.57 619.805C629.211 619.425 628.732 619.235 628.133 619.235C627.414 619.235 626.854 619.441 626.453 619.852C626.057 620.258 625.859 620.826 625.859 621.555H624.414C624.414 620.508 624.75 619.662 625.422 619.016C626.099 618.37 627.003 618.047 628.133 618.047C629.19 618.047 630.026 618.326 630.641 618.883C631.255 619.435 631.562 620.172 631.562 621.094C631.562 622.214 630.849 623.547 629.422 625.094L626.375 628.399H632.086V629.579ZM640.75 624.727C640.75 626.42 640.461 627.678 639.883 628.5C639.305 629.323 638.401 629.735 637.172 629.735C635.958 629.735 635.06 629.334 634.477 628.532C633.893 627.724 633.591 626.521 633.57 624.922V622.993C633.57 621.321 633.859 620.079 634.438 619.266C635.016 618.454 635.922 618.047 637.156 618.047C638.38 618.047 639.281 618.441 639.859 619.227C640.438 620.008 640.734 621.217 640.75 622.852V624.727ZM639.305 622.75C639.305 621.527 639.133 620.636 638.789 620.079C638.445 619.516 637.901 619.235 637.156 619.235C636.417 619.235 635.878 619.514 635.539 620.071C635.201 620.628 635.026 621.485 635.016 622.641V624.954C635.016 626.183 635.193 627.092 635.547 627.68C635.906 628.264 636.448 628.555 637.172 628.555C637.885 628.555 638.414 628.279 638.758 627.727C639.107 627.175 639.289 626.305 639.305 625.118V622.75ZM649.734 624.727C649.734 626.42 649.445 627.678 648.867 628.5C648.289 629.323 647.385 629.735 646.156 629.735C644.943 629.735 644.044 629.334 643.461 628.532C642.878 627.724 642.576 626.521 642.555 624.922V622.993C642.555 621.321 642.844 620.079 643.422 619.266C644 618.454 644.906 618.047 646.141 618.047C647.365 618.047 648.266 618.441 648.844 619.227C649.422 620.008 649.719 621.217 649.734 622.852V624.727ZM648.289 622.75C648.289 621.527 648.117 620.636 647.773 620.079C647.43 619.516 646.885 619.235 646.141 619.235C645.401 619.235 644.862 619.514 644.523 620.071C644.185 620.628 644.01 621.485 644 622.641V624.954C644 626.183 644.177 627.092 644.531 627.68C644.891 628.264 645.432 628.555 646.156 628.555C646.87 628.555 647.398 628.279 647.742 627.727C648.091 627.175 648.273 626.305 648.289 625.118V622.75Z" fill="white"/>
<path d="M565.398 671.579H563.945V661.946L561.031 663.016V661.704L565.172 660.149H565.398V671.579ZM571.734 665.188H572.82C573.503 665.178 574.039 664.998 574.43 664.649C574.82 664.3 575.016 663.829 575.016 663.235C575.016 661.902 574.352 661.235 573.023 661.235C572.398 661.235 571.898 661.415 571.523 661.774C571.154 662.128 570.969 662.599 570.969 663.188H569.523C569.523 662.287 569.852 661.54 570.508 660.946C571.169 660.347 572.008 660.047 573.023 660.047C574.096 660.047 574.938 660.331 575.547 660.899C576.156 661.467 576.461 662.256 576.461 663.266C576.461 663.761 576.299 664.24 575.977 664.704C575.659 665.167 575.224 665.514 574.672 665.743C575.297 665.941 575.779 666.269 576.117 666.727C576.461 667.185 576.633 667.745 576.633 668.407C576.633 669.428 576.299 670.237 575.633 670.836C574.966 671.435 574.099 671.735 573.031 671.735C571.964 671.735 571.094 671.446 570.422 670.868C569.755 670.29 569.422 669.527 569.422 668.579H570.875C570.875 669.178 571.07 669.657 571.461 670.016C571.852 670.375 572.375 670.555 573.031 670.555C573.729 670.555 574.263 670.373 574.633 670.008C575.003 669.644 575.188 669.12 575.188 668.438C575.188 667.777 574.984 667.269 574.578 666.915C574.172 666.56 573.586 666.378 572.82 666.368H571.734V665.188ZM585.75 666.727C585.75 668.42 585.461 669.678 584.883 670.5C584.305 671.323 583.401 671.735 582.172 671.735C580.958 671.735 580.06 671.334 579.477 670.532C578.893 669.724 578.591 668.521 578.57 666.922V664.993C578.57 663.321 578.859 662.079 579.438 661.266C580.016 660.454 580.922 660.047 582.156 660.047C583.38 660.047 584.281 660.441 584.859 661.227C585.438 662.008 585.734 663.217 585.75 664.852V666.727ZM584.305 664.75C584.305 663.527 584.133 662.636 583.789 662.079C583.445 661.516 582.901 661.235 582.156 661.235C581.417 661.235 580.878 661.514 580.539 662.071C580.201 662.628 580.026 663.485 580.016 664.641V666.954C580.016 668.183 580.193 669.092 580.547 669.68C580.906 670.264 581.448 670.555 582.172 670.555C582.885 670.555 583.414 670.279 583.758 669.727C584.107 669.175 584.289 668.305 584.305 667.118V664.75ZM594.734 666.727C594.734 668.42 594.445 669.678 593.867 670.5C593.289 671.323 592.385 671.735 591.156 671.735C589.943 671.735 589.044 671.334 588.461 670.532C587.878 669.724 587.576 668.521 587.555 666.922V664.993C587.555 663.321 587.844 662.079 588.422 661.266C589 660.454 589.906 660.047 591.141 660.047C592.365 660.047 593.266 660.441 593.844 661.227C594.422 662.008 594.719 663.217 594.734 664.852V666.727ZM593.289 664.75C593.289 663.527 593.117 662.636 592.773 662.079C592.43 661.516 591.885 661.235 591.141 661.235C590.401 661.235 589.862 661.514 589.523 662.071C589.185 662.628 589.01 663.485 589 664.641V666.954C589 668.183 589.177 669.092 589.531 669.68C589.891 670.264 590.432 670.555 591.156 670.555C591.87 670.555 592.398 670.279 592.742 669.727C593.091 669.175 593.273 668.305 593.289 667.118V664.75Z" fill="white"/>
<path d="M509.398 692.579H507.945V682.946L505.031 684.016V682.704L509.172 681.149H509.398V692.579ZM519.734 688.758H521.312V689.938H519.734V692.579H518.281V689.938H513.102V689.086L518.195 681.204H519.734V688.758ZM514.742 688.758H518.281V683.18L518.109 683.493L514.742 688.758ZM529.75 687.727C529.75 689.42 529.461 690.678 528.883 691.5C528.305 692.323 527.401 692.735 526.172 692.735C524.958 692.735 524.06 692.334 523.477 691.532C522.893 690.724 522.591 689.521 522.57 687.922V685.993C522.57 684.321 522.859 683.079 523.438 682.266C524.016 681.454 524.922 681.047 526.156 681.047C527.38 681.047 528.281 681.441 528.859 682.227C529.438 683.008 529.734 684.217 529.75 685.852V687.727ZM528.305 685.75C528.305 684.527 528.133 683.636 527.789 683.079C527.445 682.516 526.901 682.235 526.156 682.235C525.417 682.235 524.878 682.514 524.539 683.071C524.201 683.628 524.026 684.485 524.016 685.641V687.954C524.016 689.183 524.193 690.092 524.547 690.68C524.906 691.264 525.448 691.555 526.172 691.555C526.885 691.555 527.414 691.279 527.758 690.727C528.107 690.175 528.289 689.305 528.305 688.118V685.75ZM538.734 687.727C538.734 689.42 538.445 690.678 537.867 691.5C537.289 692.323 536.385 692.735 535.156 692.735C533.943 692.735 533.044 692.334 532.461 691.532C531.878 690.724 531.576 689.521 531.555 687.922V685.993C531.555 684.321 531.844 683.079 532.422 682.266C533 681.454 533.906 681.047 535.141 681.047C536.365 681.047 537.266 681.441 537.844 682.227C538.422 683.008 538.719 684.217 538.734 685.852V687.727ZM537.289 685.75C537.289 684.527 537.117 683.636 536.773 683.079C536.43 682.516 535.885 682.235 535.141 682.235C534.401 682.235 533.862 682.514 533.523 683.071C533.185 683.628 533.01 684.485 533 685.641V687.954C533 689.183 533.177 690.092 533.531 690.68C533.891 691.264 534.432 691.555 535.156 691.555C535.87 691.555 536.398 691.279 536.742 690.727C537.091 690.175 537.273 689.305 537.289 688.118V685.75Z" fill="white"/>
<path d="M454.398 710.579H452.945V700.946L450.031 702.016V700.704L454.172 699.149H454.398V710.579ZM459.297 704.875L459.875 699.204H465.703V700.54H461.102L460.758 703.641C461.315 703.313 461.948 703.149 462.656 703.149C463.693 703.149 464.516 703.493 465.125 704.18C465.734 704.862 466.039 705.787 466.039 706.954C466.039 708.125 465.721 709.05 465.086 709.727C464.456 710.399 463.573 710.735 462.438 710.735C461.432 710.735 460.612 710.456 459.977 709.899C459.341 709.342 458.979 708.571 458.891 707.586H460.258C460.346 708.237 460.578 708.73 460.953 709.063C461.328 709.391 461.823 709.555 462.438 709.555C463.109 709.555 463.635 709.326 464.016 708.868C464.401 708.409 464.594 707.777 464.594 706.969C464.594 706.209 464.385 705.599 463.969 705.141C463.557 704.678 463.008 704.446 462.32 704.446C461.69 704.446 461.195 704.584 460.836 704.86L460.453 705.172L459.297 704.875ZM474.75 705.727C474.75 707.42 474.461 708.678 473.883 709.5C473.305 710.323 472.401 710.735 471.172 710.735C469.958 710.735 469.06 710.334 468.477 709.532C467.893 708.724 467.591 707.521 467.57 705.922V703.993C467.57 702.321 467.859 701.079 468.438 700.266C469.016 699.454 469.922 699.047 471.156 699.047C472.38 699.047 473.281 699.441 473.859 700.227C474.438 701.008 474.734 702.217 474.75 703.852V705.727ZM473.305 703.75C473.305 702.527 473.133 701.636 472.789 701.079C472.445 700.516 471.901 700.235 471.156 700.235C470.417 700.235 469.878 700.514 469.539 701.071C469.201 701.628 469.026 702.485 469.016 703.641V705.954C469.016 707.183 469.193 708.092 469.547 708.68C469.906 709.264 470.448 709.555 471.172 709.555C471.885 709.555 472.414 709.279 472.758 708.727C473.107 708.175 473.289 707.305 473.305 706.118V703.75ZM483.734 705.727C483.734 707.42 483.445 708.678 482.867 709.5C482.289 710.323 481.385 710.735 480.156 710.735C478.943 710.735 478.044 710.334 477.461 709.532C476.878 708.724 476.576 707.521 476.555 705.922V703.993C476.555 702.321 476.844 701.079 477.422 700.266C478 699.454 478.906 699.047 480.141 699.047C481.365 699.047 482.266 699.441 482.844 700.227C483.422 701.008 483.719 702.217 483.734 703.852V705.727ZM482.289 703.75C482.289 702.527 482.117 701.636 481.773 701.079C481.43 700.516 480.885 700.235 480.141 700.235C479.401 700.235 478.862 700.514 478.523 701.071C478.185 701.628 478.01 702.485 478 703.641V705.954C478 707.183 478.177 708.092 478.531 708.68C478.891 709.264 479.432 709.555 480.156 709.555C480.87 709.555 481.398 709.279 481.742 708.727C482.091 708.175 482.273 707.305 482.289 706.118V703.75Z" fill="white"/>
<path d="M394.398 715.579H392.945V705.946L390.031 707.016V705.704L394.172 704.149H394.398V715.579ZM404.305 704.196V705.422H404.039C402.914 705.443 402.018 705.777 401.352 706.422C400.685 707.068 400.299 707.977 400.195 709.149C400.794 708.461 401.612 708.118 402.648 708.118C403.638 708.118 404.427 708.467 405.016 709.165C405.609 709.862 405.906 710.764 405.906 711.868C405.906 713.04 405.586 713.977 404.945 714.68C404.31 715.383 403.456 715.735 402.383 715.735C401.294 715.735 400.411 715.318 399.734 714.485C399.057 713.646 398.719 712.568 398.719 711.25V710.696C398.719 708.602 399.164 707.003 400.055 705.899C400.951 704.79 402.281 704.222 404.047 704.196H404.305ZM402.406 709.321C401.911 709.321 401.456 709.469 401.039 709.766C400.622 710.063 400.333 710.435 400.172 710.883V711.415C400.172 712.352 400.383 713.107 400.805 713.68C401.227 714.253 401.753 714.54 402.383 714.54C403.034 714.54 403.544 714.3 403.914 713.821C404.289 713.342 404.477 712.714 404.477 711.938C404.477 711.157 404.286 710.527 403.906 710.047C403.531 709.563 403.031 709.321 402.406 709.321ZM414.75 710.727C414.75 712.42 414.461 713.678 413.883 714.5C413.305 715.323 412.401 715.735 411.172 715.735C409.958 715.735 409.06 715.334 408.477 714.532C407.893 713.724 407.591 712.521 407.57 710.922V708.993C407.57 707.321 407.859 706.079 408.438 705.266C409.016 704.454 409.922 704.047 411.156 704.047C412.38 704.047 413.281 704.441 413.859 705.227C414.438 706.008 414.734 707.217 414.75 708.852V710.727ZM413.305 708.75C413.305 707.527 413.133 706.636 412.789 706.079C412.445 705.516 411.901 705.235 411.156 705.235C410.417 705.235 409.878 705.514 409.539 706.071C409.201 706.628 409.026 707.485 409.016 708.641V710.954C409.016 712.183 409.193 713.092 409.547 713.68C409.906 714.264 410.448 714.555 411.172 714.555C411.885 714.555 412.414 714.279 412.758 713.727C413.107 713.175 413.289 712.305 413.305 711.118V708.75ZM423.734 710.727C423.734 712.42 423.445 713.678 422.867 714.5C422.289 715.323 421.385 715.735 420.156 715.735C418.943 715.735 418.044 715.334 417.461 714.532C416.878 713.724 416.576 712.521 416.555 710.922V708.993C416.555 707.321 416.844 706.079 417.422 705.266C418 704.454 418.906 704.047 420.141 704.047C421.365 704.047 422.266 704.441 422.844 705.227C423.422 706.008 423.719 707.217 423.734 708.852V710.727ZM422.289 708.75C422.289 707.527 422.117 706.636 421.773 706.079C421.43 705.516 420.885 705.235 420.141 705.235C419.401 705.235 418.862 705.514 418.523 706.071C418.185 706.628 418.01 707.485 418 708.641V710.954C418 712.183 418.177 713.092 418.531 713.68C418.891 714.264 419.432 714.555 420.156 714.555C420.87 714.555 421.398 714.279 421.742 713.727C422.091 713.175 422.273 712.305 422.289 711.118V708.75Z" fill="white"/>
<path d="M336.398 709.579H334.945V699.946L332.031 701.016V699.704L336.172 698.149H336.398V709.579ZM347.977 699.016L343.266 709.579H341.75L346.445 699.391H340.289V698.204H347.977V699.016ZM356.75 704.727C356.75 706.42 356.461 707.678 355.883 708.5C355.305 709.323 354.401 709.735 353.172 709.735C351.958 709.735 351.06 709.334 350.477 708.532C349.893 707.724 349.591 706.521 349.57 704.922V702.993C349.57 701.321 349.859 700.079 350.438 699.266C351.016 698.454 351.922 698.047 353.156 698.047C354.38 698.047 355.281 698.441 355.859 699.227C356.438 700.008 356.734 701.217 356.75 702.852V704.727ZM355.305 702.75C355.305 701.527 355.133 700.636 354.789 700.079C354.445 699.516 353.901 699.235 353.156 699.235C352.417 699.235 351.878 699.514 351.539 700.071C351.201 700.628 351.026 701.485 351.016 702.641V704.954C351.016 706.183 351.193 707.092 351.547 707.68C351.906 708.264 352.448 708.555 353.172 708.555C353.885 708.555 354.414 708.279 354.758 707.727C355.107 707.175 355.289 706.305 355.305 705.118V702.75ZM365.734 704.727C365.734 706.42 365.445 707.678 364.867 708.5C364.289 709.323 363.385 709.735 362.156 709.735C360.943 709.735 360.044 709.334 359.461 708.532C358.878 707.724 358.576 706.521 358.555 704.922V702.993C358.555 701.321 358.844 700.079 359.422 699.266C360 698.454 360.906 698.047 362.141 698.047C363.365 698.047 364.266 698.441 364.844 699.227C365.422 700.008 365.719 701.217 365.734 702.852V704.727ZM364.289 702.75C364.289 701.527 364.117 700.636 363.773 700.079C363.43 699.516 362.885 699.235 362.141 699.235C361.401 699.235 360.862 699.514 360.523 700.071C360.185 700.628 360.01 701.485 360 702.641V704.954C360 706.183 360.177 707.092 360.531 707.68C360.891 708.264 361.432 708.555 362.156 708.555C362.87 708.555 363.398 708.279 363.742 707.727C364.091 707.175 364.273 706.305 364.289 705.118V702.75Z" fill="white"/>
<path d="M278.398 692.579H276.945V682.946L274.031 684.016V682.704L278.172 681.149H278.398V692.579ZM289.531 684.172C289.531 684.74 289.38 685.245 289.078 685.688C288.781 686.131 288.378 686.477 287.867 686.727C288.461 686.982 288.93 687.355 289.273 687.844C289.622 688.334 289.797 688.889 289.797 689.508C289.797 690.493 289.464 691.277 288.797 691.86C288.135 692.443 287.263 692.735 286.18 692.735C285.086 692.735 284.208 692.443 283.547 691.86C282.891 691.271 282.562 690.487 282.562 689.508C282.562 688.894 282.729 688.339 283.062 687.844C283.401 687.349 283.867 686.974 284.461 686.719C283.956 686.469 283.557 686.123 283.266 685.68C282.974 685.237 282.828 684.735 282.828 684.172C282.828 683.214 283.135 682.454 283.75 681.891C284.365 681.329 285.174 681.047 286.18 681.047C287.18 681.047 287.987 681.329 288.602 681.891C289.221 682.454 289.531 683.214 289.531 684.172ZM288.352 689.477C288.352 688.842 288.148 688.323 287.742 687.922C287.341 687.521 286.815 687.321 286.164 687.321C285.513 687.321 284.99 687.519 284.594 687.915C284.203 688.31 284.008 688.831 284.008 689.477C284.008 690.123 284.198 690.631 284.578 691C284.964 691.37 285.497 691.555 286.18 691.555C286.857 691.555 287.388 691.37 287.773 691C288.159 690.625 288.352 690.118 288.352 689.477ZM286.18 682.235C285.612 682.235 285.151 682.412 284.797 682.766C284.448 683.115 284.273 683.592 284.273 684.196C284.273 684.774 284.445 685.243 284.789 685.602C285.138 685.956 285.602 686.133 286.18 686.133C286.758 686.133 287.219 685.956 287.562 685.602C287.911 685.243 288.086 684.774 288.086 684.196C288.086 683.618 287.906 683.146 287.547 682.782C287.188 682.417 286.732 682.235 286.18 682.235ZM298.75 687.727C298.75 689.42 298.461 690.678 297.883 691.5C297.305 692.323 296.401 692.735 295.172 692.735C293.958 692.735 293.06 692.334 292.477 691.532C291.893 690.724 291.591 689.521 291.57 687.922V685.993C291.57 684.321 291.859 683.079 292.438 682.266C293.016 681.454 293.922 681.047 295.156 681.047C296.38 681.047 297.281 681.441 297.859 682.227C298.438 683.008 298.734 684.217 298.75 685.852V687.727ZM297.305 685.75C297.305 684.527 297.133 683.636 296.789 683.079C296.445 682.516 295.901 682.235 295.156 682.235C294.417 682.235 293.878 682.514 293.539 683.071C293.201 683.628 293.026 684.485 293.016 685.641V687.954C293.016 689.183 293.193 690.092 293.547 690.68C293.906 691.264 294.448 691.555 295.172 691.555C295.885 691.555 296.414 691.279 296.758 690.727C297.107 690.175 297.289 689.305 297.305 688.118V685.75ZM307.734 687.727C307.734 689.42 307.445 690.678 306.867 691.5C306.289 692.323 305.385 692.735 304.156 692.735C302.943 692.735 302.044 692.334 301.461 691.532C300.878 690.724 300.576 689.521 300.555 687.922V685.993C300.555 684.321 300.844 683.079 301.422 682.266C302 681.454 302.906 681.047 304.141 681.047C305.365 681.047 306.266 681.441 306.844 682.227C307.422 683.008 307.719 684.217 307.734 685.852V687.727ZM306.289 685.75C306.289 684.527 306.117 683.636 305.773 683.079C305.43 682.516 304.885 682.235 304.141 682.235C303.401 682.235 302.862 682.514 302.523 683.071C302.185 683.628 302.01 684.485 302 685.641V687.954C302 689.183 302.177 690.092 302.531 690.68C302.891 691.264 303.432 691.555 304.156 691.555C304.87 691.555 305.398 691.279 305.742 690.727C306.091 690.175 306.273 689.305 306.289 688.118V685.75Z" fill="white"/>
<path d="M224.398 667.579H222.945V657.946L220.031 659.016V657.704L224.172 656.149H224.398V667.579ZM234.172 662.579C233.87 662.938 233.508 663.227 233.086 663.446C232.669 663.665 232.211 663.774 231.711 663.774C231.055 663.774 230.482 663.612 229.992 663.29C229.508 662.967 229.133 662.514 228.867 661.93C228.602 661.342 228.469 660.693 228.469 659.985C228.469 659.224 228.612 658.54 228.898 657.93C229.19 657.321 229.602 656.855 230.133 656.532C230.664 656.209 231.284 656.047 231.992 656.047C233.117 656.047 234.003 656.469 234.648 657.313C235.299 658.152 235.625 659.297 235.625 660.75V661.172C235.625 663.386 235.188 665.003 234.312 666.024C233.438 667.04 232.117 667.56 230.352 667.586H230.07V666.368H230.375C231.568 666.347 232.484 666.037 233.125 665.438C233.766 664.834 234.115 663.881 234.172 662.579ZM231.945 662.579C232.43 662.579 232.875 662.43 233.281 662.133C233.693 661.836 233.992 661.469 234.18 661.032V660.454C234.18 659.506 233.974 658.735 233.562 658.141C233.151 657.547 232.63 657.25 232 657.25C231.365 657.25 230.854 657.495 230.469 657.985C230.083 658.469 229.891 659.11 229.891 659.907C229.891 660.683 230.076 661.323 230.445 661.829C230.82 662.329 231.32 662.579 231.945 662.579ZM244.75 662.727C244.75 664.42 244.461 665.678 243.883 666.5C243.305 667.323 242.401 667.735 241.172 667.735C239.958 667.735 239.06 667.334 238.477 666.532C237.893 665.724 237.591 664.521 237.57 662.922V660.993C237.57 659.321 237.859 658.079 238.438 657.266C239.016 656.454 239.922 656.047 241.156 656.047C242.38 656.047 243.281 656.441 243.859 657.227C244.438 658.008 244.734 659.217 244.75 660.852V662.727ZM243.305 660.75C243.305 659.527 243.133 658.636 242.789 658.079C242.445 657.516 241.901 657.235 241.156 657.235C240.417 657.235 239.878 657.514 239.539 658.071C239.201 658.628 239.026 659.485 239.016 660.641V662.954C239.016 664.183 239.193 665.092 239.547 665.68C239.906 666.264 240.448 666.555 241.172 666.555C241.885 666.555 242.414 666.279 242.758 665.727C243.107 665.175 243.289 664.305 243.305 663.118V660.75ZM253.734 662.727C253.734 664.42 253.445 665.678 252.867 666.5C252.289 667.323 251.385 667.735 250.156 667.735C248.943 667.735 248.044 667.334 247.461 666.532C246.878 665.724 246.576 664.521 246.555 662.922V660.993C246.555 659.321 246.844 658.079 247.422 657.266C248 656.454 248.906 656.047 250.141 656.047C251.365 656.047 252.266 656.441 252.844 657.227C253.422 658.008 253.719 659.217 253.734 660.852V662.727ZM252.289 660.75C252.289 659.527 252.117 658.636 251.773 658.079C251.43 657.516 250.885 657.235 250.141 657.235C249.401 657.235 248.862 657.514 248.523 658.071C248.185 658.628 248.01 659.485 248 660.641V662.954C248 664.183 248.177 665.092 248.531 665.68C248.891 666.264 249.432 666.555 250.156 666.555C250.87 666.555 251.398 666.279 251.742 665.727C252.091 665.175 252.273 664.305 252.289 663.118V660.75Z" fill="white"/>
<path d="M182.102 631.579H174.648V630.54L178.586 626.165C179.169 625.503 179.57 624.967 179.789 624.555C180.013 624.139 180.125 623.709 180.125 623.266C180.125 622.672 179.945 622.185 179.586 621.805C179.227 621.425 178.747 621.235 178.148 621.235C177.43 621.235 176.87 621.441 176.469 621.852C176.073 622.258 175.875 622.826 175.875 623.555H174.43C174.43 622.508 174.766 621.662 175.438 621.016C176.115 620.37 177.018 620.047 178.148 620.047C179.206 620.047 180.042 620.326 180.656 620.883C181.271 621.435 181.578 622.172 181.578 623.094C181.578 624.214 180.865 625.547 179.438 627.094L176.391 630.399H182.102V631.579ZM190.766 626.727C190.766 628.42 190.477 629.678 189.898 630.5C189.32 631.323 188.417 631.735 187.188 631.735C185.974 631.735 185.076 631.334 184.492 630.532C183.909 629.724 183.607 628.521 183.586 626.922V624.993C183.586 623.321 183.875 622.079 184.453 621.266C185.031 620.454 185.938 620.047 187.172 620.047C188.396 620.047 189.297 620.441 189.875 621.227C190.453 622.008 190.75 623.217 190.766 624.852V626.727ZM189.32 624.75C189.32 623.527 189.148 622.636 188.805 622.079C188.461 621.516 187.917 621.235 187.172 621.235C186.432 621.235 185.893 621.514 185.555 622.071C185.216 622.628 185.042 623.485 185.031 624.641V626.954C185.031 628.183 185.208 629.092 185.562 629.68C185.922 630.264 186.464 630.555 187.188 630.555C187.901 630.555 188.43 630.279 188.773 629.727C189.122 629.175 189.305 628.305 189.32 627.118V624.75ZM199.75 626.727C199.75 628.42 199.461 629.678 198.883 630.5C198.305 631.323 197.401 631.735 196.172 631.735C194.958 631.735 194.06 631.334 193.477 630.532C192.893 629.724 192.591 628.521 192.57 626.922V624.993C192.57 623.321 192.859 622.079 193.438 621.266C194.016 620.454 194.922 620.047 196.156 620.047C197.38 620.047 198.281 620.441 198.859 621.227C199.438 622.008 199.734 623.217 199.75 624.852V626.727ZM198.305 624.75C198.305 623.527 198.133 622.636 197.789 622.079C197.445 621.516 196.901 621.235 196.156 621.235C195.417 621.235 194.878 621.514 194.539 622.071C194.201 622.628 194.026 623.485 194.016 624.641V626.954C194.016 628.183 194.193 629.092 194.547 629.68C194.906 630.264 195.448 630.555 196.172 630.555C196.885 630.555 197.414 630.279 197.758 629.727C198.107 629.175 198.289 628.305 198.305 627.118V624.75ZM208.734 626.727C208.734 628.42 208.445 629.678 207.867 630.5C207.289 631.323 206.385 631.735 205.156 631.735C203.943 631.735 203.044 631.334 202.461 630.532C201.878 629.724 201.576 628.521 201.555 626.922V624.993C201.555 623.321 201.844 622.079 202.422 621.266C203 620.454 203.906 620.047 205.141 620.047C206.365 620.047 207.266 620.441 207.844 621.227C208.422 622.008 208.719 623.217 208.734 624.852V626.727ZM207.289 624.75C207.289 623.527 207.117 622.636 206.773 622.079C206.43 621.516 205.885 621.235 205.141 621.235C204.401 621.235 203.862 621.514 203.523 622.071C203.185 622.628 203.01 623.485 203 624.641V626.954C203 628.183 203.177 629.092 203.531 629.68C203.891 630.264 204.432 630.555 205.156 630.555C205.87 630.555 206.398 630.279 206.742 629.727C207.091 629.175 207.273 628.305 207.289 627.118V624.75Z" fill="white"/>
<path d="M132.102 580.579H124.648V579.54L128.586 575.165C129.169 574.503 129.57 573.967 129.789 573.555C130.013 573.139 130.125 572.709 130.125 572.266C130.125 571.672 129.945 571.185 129.586 570.805C129.227 570.425 128.747 570.235 128.148 570.235C127.43 570.235 126.87 570.441 126.469 570.852C126.073 571.258 125.875 571.826 125.875 572.555H124.43C124.43 571.508 124.766 570.662 125.438 570.016C126.115 569.37 127.018 569.047 128.148 569.047C129.206 569.047 130.042 569.326 130.656 569.883C131.271 570.435 131.578 571.172 131.578 572.094C131.578 573.214 130.865 574.547 129.438 576.094L126.391 579.399H132.102V580.579ZM138.383 580.579H136.93V570.946L134.016 572.016V570.704L138.156 569.149H138.383V580.579ZM149.75 575.727C149.75 577.42 149.461 578.678 148.883 579.5C148.305 580.323 147.401 580.735 146.172 580.735C144.958 580.735 144.06 580.334 143.477 579.532C142.893 578.724 142.591 577.521 142.57 575.922V573.993C142.57 572.321 142.859 571.079 143.438 570.266C144.016 569.454 144.922 569.047 146.156 569.047C147.38 569.047 148.281 569.441 148.859 570.227C149.438 571.008 149.734 572.217 149.75 573.852V575.727ZM148.305 573.75C148.305 572.527 148.133 571.636 147.789 571.079C147.445 570.516 146.901 570.235 146.156 570.235C145.417 570.235 144.878 570.514 144.539 571.071C144.201 571.628 144.026 572.485 144.016 573.641V575.954C144.016 577.183 144.193 578.092 144.547 578.68C144.906 579.264 145.448 579.555 146.172 579.555C146.885 579.555 147.414 579.279 147.758 578.727C148.107 578.175 148.289 577.305 148.305 576.118V573.75ZM158.734 575.727C158.734 577.42 158.445 578.678 157.867 579.5C157.289 580.323 156.385 580.735 155.156 580.735C153.943 580.735 153.044 580.334 152.461 579.532C151.878 578.724 151.576 577.521 151.555 575.922V573.993C151.555 572.321 151.844 571.079 152.422 570.266C153 569.454 153.906 569.047 155.141 569.047C156.365 569.047 157.266 569.441 157.844 570.227C158.422 571.008 158.719 572.217 158.734 573.852V575.727ZM157.289 573.75C157.289 572.527 157.117 571.636 156.773 571.079C156.43 570.516 155.885 570.235 155.141 570.235C154.401 570.235 153.862 570.514 153.523 571.071C153.185 571.628 153.01 572.485 153 573.641V575.954C153 577.183 153.177 578.092 153.531 578.68C153.891 579.264 154.432 579.555 155.156 579.555C155.87 579.555 156.398 579.279 156.742 578.727C157.091 578.175 157.273 577.305 157.289 576.118V573.75Z" fill="white"/>
<path d="M106.102 525.579H98.6484V524.54L102.586 520.165C103.169 519.503 103.57 518.967 103.789 518.555C104.013 518.139 104.125 517.709 104.125 517.266C104.125 516.672 103.945 516.185 103.586 515.805C103.227 515.425 102.747 515.235 102.148 515.235C101.43 515.235 100.87 515.441 100.469 515.852C100.073 516.258 99.875 516.826 99.875 517.555H98.4297C98.4297 516.508 98.7656 515.662 99.4375 515.016C100.115 514.37 101.018 514.047 102.148 514.047C103.206 514.047 104.042 514.326 104.656 514.883C105.271 515.435 105.578 516.172 105.578 517.094C105.578 518.214 104.865 519.547 103.438 521.094L100.391 524.399H106.102V525.579ZM115.086 525.579H107.633V524.54L111.57 520.165C112.154 519.503 112.555 518.967 112.773 518.555C112.997 518.139 113.109 517.709 113.109 517.266C113.109 516.672 112.93 516.185 112.57 515.805C112.211 515.425 111.732 515.235 111.133 515.235C110.414 515.235 109.854 515.441 109.453 515.852C109.057 516.258 108.859 516.826 108.859 517.555H107.414C107.414 516.508 107.75 515.662 108.422 515.016C109.099 514.37 110.003 514.047 111.133 514.047C112.19 514.047 113.026 514.326 113.641 514.883C114.255 515.435 114.562 516.172 114.562 517.094C114.562 518.214 113.849 519.547 112.422 521.094L109.375 524.399H115.086V525.579ZM123.75 520.727C123.75 522.42 123.461 523.678 122.883 524.5C122.305 525.323 121.401 525.735 120.172 525.735C118.958 525.735 118.06 525.334 117.477 524.532C116.893 523.724 116.591 522.521 116.57 520.922V518.993C116.57 517.321 116.859 516.079 117.438 515.266C118.016 514.454 118.922 514.047 120.156 514.047C121.38 514.047 122.281 514.441 122.859 515.227C123.438 516.008 123.734 517.217 123.75 518.852V520.727ZM122.305 518.75C122.305 517.527 122.133 516.636 121.789 516.079C121.445 515.516 120.901 515.235 120.156 515.235C119.417 515.235 118.878 515.514 118.539 516.071C118.201 516.628 118.026 517.485 118.016 518.641V520.954C118.016 522.183 118.193 523.092 118.547 523.68C118.906 524.264 119.448 524.555 120.172 524.555C120.885 524.555 121.414 524.279 121.758 523.727C122.107 523.175 122.289 522.305 122.305 521.118V518.75ZM132.734 520.727C132.734 522.42 132.445 523.678 131.867 524.5C131.289 525.323 130.385 525.735 129.156 525.735C127.943 525.735 127.044 525.334 126.461 524.532C125.878 523.724 125.576 522.521 125.555 520.922V518.993C125.555 517.321 125.844 516.079 126.422 515.266C127 514.454 127.906 514.047 129.141 514.047C130.365 514.047 131.266 514.441 131.844 515.227C132.422 516.008 132.719 517.217 132.734 518.852V520.727ZM131.289 518.75C131.289 517.527 131.117 516.636 130.773 516.079C130.43 515.516 129.885 515.235 129.141 515.235C128.401 515.235 127.862 515.514 127.523 516.071C127.185 516.628 127.01 517.485 127 518.641V520.954C127 522.183 127.177 523.092 127.531 523.68C127.891 524.264 128.432 524.555 129.156 524.555C129.87 524.555 130.398 524.279 130.742 523.727C131.091 523.175 131.273 522.305 131.289 521.118V518.75Z" fill="white"/>
<path d="M88.1016 470.579H80.6484V469.54L84.5859 465.165C85.1693 464.503 85.5703 463.967 85.7891 463.555C86.013 463.139 86.125 462.709 86.125 462.266C86.125 461.672 85.9453 461.185 85.5859 460.805C85.2266 460.425 84.7474 460.235 84.1484 460.235C83.4297 460.235 82.8698 460.441 82.4688 460.852C82.0729 461.258 81.875 461.826 81.875 462.555H80.4297C80.4297 461.508 80.7656 460.662 81.4375 460.016C82.1146 459.37 83.0182 459.047 84.1484 459.047C85.2057 459.047 86.0417 459.326 86.6562 459.883C87.2708 460.435 87.5781 461.172 87.5781 462.094C87.5781 463.214 86.8646 464.547 85.4375 466.094L82.3906 469.399H88.1016V470.579ZM91.7344 464.188H92.8203C93.5026 464.178 94.0391 463.998 94.4297 463.649C94.8203 463.3 95.0156 462.829 95.0156 462.235C95.0156 460.902 94.3516 460.235 93.0234 460.235C92.3984 460.235 91.8984 460.415 91.5234 460.774C91.1536 461.128 90.9688 461.599 90.9688 462.188H89.5234C89.5234 461.287 89.8516 460.54 90.5078 459.946C91.1693 459.347 92.0078 459.047 93.0234 459.047C94.0964 459.047 94.9375 459.331 95.5469 459.899C96.1562 460.467 96.4609 461.256 96.4609 462.266C96.4609 462.761 96.2995 463.24 95.9766 463.704C95.6589 464.167 95.224 464.514 94.6719 464.743C95.2969 464.941 95.7786 465.269 96.1172 465.727C96.4609 466.185 96.6328 466.745 96.6328 467.407C96.6328 468.428 96.2995 469.237 95.6328 469.836C94.9661 470.435 94.099 470.735 93.0312 470.735C91.9635 470.735 91.0938 470.446 90.4219 469.868C89.7552 469.29 89.4219 468.527 89.4219 467.579H90.875C90.875 468.178 91.0703 468.657 91.4609 469.016C91.8516 469.375 92.375 469.555 93.0312 469.555C93.7292 469.555 94.263 469.373 94.6328 469.008C95.0026 468.644 95.1875 468.12 95.1875 467.438C95.1875 466.777 94.9844 466.269 94.5781 465.915C94.1719 465.56 93.5859 465.378 92.8203 465.368H91.7344V464.188ZM105.75 465.727C105.75 467.42 105.461 468.678 104.883 469.5C104.305 470.323 103.401 470.735 102.172 470.735C100.958 470.735 100.06 470.334 99.4766 469.532C98.8932 468.724 98.5911 467.521 98.5703 465.922V463.993C98.5703 462.321 98.8594 461.079 99.4375 460.266C100.016 459.454 100.922 459.047 102.156 459.047C103.38 459.047 104.281 459.441 104.859 460.227C105.438 461.008 105.734 462.217 105.75 463.852V465.727ZM104.305 463.75C104.305 462.527 104.133 461.636 103.789 461.079C103.445 460.516 102.901 460.235 102.156 460.235C101.417 460.235 100.878 460.514 100.539 461.071C100.201 461.628 100.026 462.485 100.016 463.641V465.954C100.016 467.183 100.193 468.092 100.547 468.68C100.906 469.264 101.448 469.555 102.172 469.555C102.885 469.555 103.414 469.279 103.758 468.727C104.107 468.175 104.289 467.305 104.305 466.118V463.75ZM114.734 465.727C114.734 467.42 114.445 468.678 113.867 469.5C113.289 470.323 112.385 470.735 111.156 470.735C109.943 470.735 109.044 470.334 108.461 469.532C107.878 468.724 107.576 467.521 107.555 465.922V463.993C107.555 462.321 107.844 461.079 108.422 460.266C109 459.454 109.906 459.047 111.141 459.047C112.365 459.047 113.266 459.441 113.844 460.227C114.422 461.008 114.719 462.217 114.734 463.852V465.727ZM113.289 463.75C113.289 462.527 113.117 461.636 112.773 461.079C112.43 460.516 111.885 460.235 111.141 460.235C110.401 460.235 109.862 460.514 109.523 461.071C109.185 461.628 109.01 462.485 109 463.641V465.954C109 467.183 109.177 468.092 109.531 468.68C109.891 469.264 110.432 469.555 111.156 469.555C111.87 469.555 112.398 469.279 112.742 468.727C113.091 468.175 113.273 467.305 113.289 466.118V463.75Z" fill="white"/>
<path d="M82.1016 411.579H74.6484V410.54L78.5859 406.165C79.1693 405.503 79.5703 404.967 79.7891 404.555C80.013 404.139 80.125 403.709 80.125 403.266C80.125 402.672 79.9453 402.185 79.5859 401.805C79.2266 401.425 78.7474 401.235 78.1484 401.235C77.4297 401.235 76.8698 401.441 76.4688 401.852C76.0729 402.258 75.875 402.826 75.875 403.555H74.4297C74.4297 402.508 74.7656 401.662 75.4375 401.016C76.1146 400.37 77.0182 400.047 78.1484 400.047C79.2057 400.047 80.0417 400.326 80.6562 400.883C81.2708 401.435 81.5781 402.172 81.5781 403.094C81.5781 404.214 80.8646 405.547 79.4375 407.094L76.3906 410.399H82.1016V411.579ZM89.7344 407.758H91.3125V408.938H89.7344V411.579H88.2812V408.938H83.1016V408.086L88.1953 400.204H89.7344V407.758ZM84.7422 407.758H88.2812V402.18L88.1094 402.493L84.7422 407.758ZM99.75 406.727C99.75 408.42 99.4609 409.678 98.8828 410.5C98.3047 411.323 97.401 411.735 96.1719 411.735C94.9583 411.735 94.0599 411.334 93.4766 410.532C92.8932 409.724 92.5911 408.521 92.5703 406.922V404.993C92.5703 403.321 92.8594 402.079 93.4375 401.266C94.0156 400.454 94.9219 400.047 96.1562 400.047C97.3802 400.047 98.2812 400.441 98.8594 401.227C99.4375 402.008 99.7344 403.217 99.75 404.852V406.727ZM98.3047 404.75C98.3047 403.527 98.1328 402.636 97.7891 402.079C97.4453 401.516 96.901 401.235 96.1562 401.235C95.4167 401.235 94.8776 401.514 94.5391 402.071C94.2005 402.628 94.026 403.485 94.0156 404.641V406.954C94.0156 408.183 94.1927 409.092 94.5469 409.68C94.9062 410.264 95.4479 410.555 96.1719 410.555C96.8854 410.555 97.4141 410.279 97.7578 409.727C98.1068 409.175 98.2891 408.305 98.3047 407.118V404.75ZM108.734 406.727C108.734 408.42 108.445 409.678 107.867 410.5C107.289 411.323 106.385 411.735 105.156 411.735C103.943 411.735 103.044 411.334 102.461 410.532C101.878 409.724 101.576 408.521 101.555 406.922V404.993C101.555 403.321 101.844 402.079 102.422 401.266C103 400.454 103.906 400.047 105.141 400.047C106.365 400.047 107.266 400.441 107.844 401.227C108.422 402.008 108.719 403.217 108.734 404.852V406.727ZM107.289 404.75C107.289 403.527 107.117 402.636 106.773 402.079C106.43 401.516 105.885 401.235 105.141 401.235C104.401 401.235 103.862 401.514 103.523 402.071C103.185 402.628 103.01 403.485 103 404.641V406.954C103 408.183 103.177 409.092 103.531 409.68C103.891 410.264 104.432 410.555 105.156 410.555C105.87 410.555 106.398 410.279 106.742 409.727C107.091 409.175 107.273 408.305 107.289 407.118V404.75Z" fill="white"/>
<path d="M89.1016 351.579H81.6484V350.54L85.5859 346.165C86.1693 345.503 86.5703 344.967 86.7891 344.555C87.013 344.139 87.125 343.709 87.125 343.266C87.125 342.672 86.9453 342.185 86.5859 341.805C86.2266 341.425 85.7474 341.235 85.1484 341.235C84.4297 341.235 83.8698 341.441 83.4688 341.852C83.0729 342.258 82.875 342.826 82.875 343.555H81.4297C81.4297 342.508 81.7656 341.662 82.4375 341.016C83.1146 340.37 84.0182 340.047 85.1484 340.047C86.2057 340.047 87.0417 340.326 87.6562 340.883C88.2708 341.435 88.5781 342.172 88.5781 343.094C88.5781 344.214 87.8646 345.547 86.4375 347.094L83.3906 350.399H89.1016V351.579ZM91.2969 345.875L91.875 340.204H97.7031V341.54H93.1016L92.7578 344.641C93.3151 344.313 93.9479 344.149 94.6562 344.149C95.6927 344.149 96.5156 344.493 97.125 345.18C97.7344 345.862 98.0391 346.787 98.0391 347.954C98.0391 349.125 97.7214 350.05 97.0859 350.727C96.4557 351.399 95.5729 351.735 94.4375 351.735C93.4323 351.735 92.612 351.456 91.9766 350.899C91.3411 350.342 90.9792 349.571 90.8906 348.586H92.2578C92.3464 349.237 92.5781 349.73 92.9531 350.063C93.3281 350.391 93.8229 350.555 94.4375 350.555C95.1094 350.555 95.6354 350.326 96.0156 349.868C96.401 349.409 96.5938 348.777 96.5938 347.969C96.5938 347.209 96.3854 346.599 95.9688 346.141C95.5573 345.678 95.0078 345.446 94.3203 345.446C93.6901 345.446 93.1953 345.584 92.8359 345.86L92.4531 346.172L91.2969 345.875ZM106.75 346.727C106.75 348.42 106.461 349.678 105.883 350.5C105.305 351.323 104.401 351.735 103.172 351.735C101.958 351.735 101.06 351.334 100.477 350.532C99.8932 349.724 99.5911 348.521 99.5703 346.922V344.993C99.5703 343.321 99.8594 342.079 100.438 341.266C101.016 340.454 101.922 340.047 103.156 340.047C104.38 340.047 105.281 340.441 105.859 341.227C106.438 342.008 106.734 343.217 106.75 344.852V346.727ZM105.305 344.75C105.305 343.527 105.133 342.636 104.789 342.079C104.445 341.516 103.901 341.235 103.156 341.235C102.417 341.235 101.878 341.514 101.539 342.071C101.201 342.628 101.026 343.485 101.016 344.641V346.954C101.016 348.183 101.193 349.092 101.547 349.68C101.906 350.264 102.448 350.555 103.172 350.555C103.885 350.555 104.414 350.279 104.758 349.727C105.107 349.175 105.289 348.305 105.305 347.118V344.75ZM115.734 346.727C115.734 348.42 115.445 349.678 114.867 350.5C114.289 351.323 113.385 351.735 112.156 351.735C110.943 351.735 110.044 351.334 109.461 350.532C108.878 349.724 108.576 348.521 108.555 346.922V344.993C108.555 343.321 108.844 342.079 109.422 341.266C110 340.454 110.906 340.047 112.141 340.047C113.365 340.047 114.266 340.441 114.844 341.227C115.422 342.008 115.719 343.217 115.734 344.852V346.727ZM114.289 344.75C114.289 343.527 114.117 342.636 113.773 342.079C113.43 341.516 112.885 341.235 112.141 341.235C111.401 341.235 110.862 341.514 110.523 342.071C110.185 342.628 110.01 343.485 110 344.641V346.954C110 348.183 110.177 349.092 110.531 349.68C110.891 350.264 111.432 350.555 112.156 350.555C112.87 350.555 113.398 350.279 113.742 349.727C114.091 349.175 114.273 348.305 114.289 347.118V344.75Z" fill="white"/>
<path d="M103.102 295.579H95.6484V294.54L99.5859 290.165C100.169 289.503 100.57 288.967 100.789 288.555C101.013 288.139 101.125 287.709 101.125 287.266C101.125 286.672 100.945 286.185 100.586 285.805C100.227 285.425 99.7474 285.235 99.1484 285.235C98.4297 285.235 97.8698 285.441 97.4688 285.852C97.0729 286.258 96.875 286.826 96.875 287.555H95.4297C95.4297 286.508 95.7656 285.662 96.4375 285.016C97.1146 284.37 98.0182 284.047 99.1484 284.047C100.206 284.047 101.042 284.326 101.656 284.883C102.271 285.435 102.578 286.172 102.578 287.094C102.578 288.214 101.865 289.547 100.438 291.094L97.3906 294.399H103.102V295.579ZM110.305 284.196V285.422H110.039C108.914 285.443 108.018 285.777 107.352 286.422C106.685 287.068 106.299 287.977 106.195 289.149C106.794 288.461 107.612 288.118 108.648 288.118C109.638 288.118 110.427 288.467 111.016 289.165C111.609 289.862 111.906 290.764 111.906 291.868C111.906 293.04 111.586 293.977 110.945 294.68C110.31 295.383 109.456 295.735 108.383 295.735C107.294 295.735 106.411 295.318 105.734 294.485C105.057 293.646 104.719 292.568 104.719 291.25V290.696C104.719 288.602 105.164 287.003 106.055 285.899C106.951 284.79 108.281 284.222 110.047 284.196H110.305ZM108.406 289.321C107.911 289.321 107.456 289.469 107.039 289.766C106.622 290.063 106.333 290.435 106.172 290.883V291.415C106.172 292.352 106.383 293.107 106.805 293.68C107.227 294.253 107.753 294.54 108.383 294.54C109.034 294.54 109.544 294.3 109.914 293.821C110.289 293.342 110.477 292.714 110.477 291.938C110.477 291.157 110.286 290.527 109.906 290.047C109.531 289.563 109.031 289.321 108.406 289.321ZM120.75 290.727C120.75 292.42 120.461 293.678 119.883 294.5C119.305 295.323 118.401 295.735 117.172 295.735C115.958 295.735 115.06 295.334 114.477 294.532C113.893 293.724 113.591 292.521 113.57 290.922V288.993C113.57 287.321 113.859 286.079 114.438 285.266C115.016 284.454 115.922 284.047 117.156 284.047C118.38 284.047 119.281 284.441 119.859 285.227C120.438 286.008 120.734 287.217 120.75 288.852V290.727ZM119.305 288.75C119.305 287.527 119.133 286.636 118.789 286.079C118.445 285.516 117.901 285.235 117.156 285.235C116.417 285.235 115.878 285.514 115.539 286.071C115.201 286.628 115.026 287.485 115.016 288.641V290.954C115.016 292.183 115.193 293.092 115.547 293.68C115.906 294.264 116.448 294.555 117.172 294.555C117.885 294.555 118.414 294.279 118.758 293.727C119.107 293.175 119.289 292.305 119.305 291.118V288.75ZM129.734 290.727C129.734 292.42 129.445 293.678 128.867 294.5C128.289 295.323 127.385 295.735 126.156 295.735C124.943 295.735 124.044 295.334 123.461 294.532C122.878 293.724 122.576 292.521 122.555 290.922V288.993C122.555 287.321 122.844 286.079 123.422 285.266C124 284.454 124.906 284.047 126.141 284.047C127.365 284.047 128.266 284.441 128.844 285.227C129.422 286.008 129.719 287.217 129.734 288.852V290.727ZM128.289 288.75C128.289 287.527 128.117 286.636 127.773 286.079C127.43 285.516 126.885 285.235 126.141 285.235C125.401 285.235 124.862 285.514 124.523 286.071C124.185 286.628 124.01 287.485 124 288.641V290.954C124 292.183 124.177 293.092 124.531 293.68C124.891 294.264 125.432 294.555 126.156 294.555C126.87 294.555 127.398 294.279 127.742 293.727C128.091 293.175 128.273 292.305 128.289 291.118V288.75Z" fill="white"/>
<path d="M132.102 244.579H124.648V243.54L128.586 239.165C129.169 238.503 129.57 237.967 129.789 237.555C130.013 237.139 130.125 236.709 130.125 236.266C130.125 235.672 129.945 235.185 129.586 234.805C129.227 234.425 128.747 234.235 128.148 234.235C127.43 234.235 126.87 234.441 126.469 234.852C126.073 235.258 125.875 235.826 125.875 236.555H124.43C124.43 235.508 124.766 234.662 125.438 234.016C126.115 233.37 127.018 233.047 128.148 233.047C129.206 233.047 130.042 233.326 130.656 233.883C131.271 234.435 131.578 235.172 131.578 236.094C131.578 237.214 130.865 238.547 129.438 240.094L126.391 243.399H132.102V244.579ZM140.977 234.016L136.266 244.579H134.75L139.445 234.391H133.289V233.204H140.977V234.016ZM149.75 239.727C149.75 241.42 149.461 242.678 148.883 243.5C148.305 244.323 147.401 244.735 146.172 244.735C144.958 244.735 144.06 244.334 143.477 243.532C142.893 242.724 142.591 241.521 142.57 239.922V237.993C142.57 236.321 142.859 235.079 143.438 234.266C144.016 233.454 144.922 233.047 146.156 233.047C147.38 233.047 148.281 233.441 148.859 234.227C149.438 235.008 149.734 236.217 149.75 237.852V239.727ZM148.305 237.75C148.305 236.527 148.133 235.636 147.789 235.079C147.445 234.516 146.901 234.235 146.156 234.235C145.417 234.235 144.878 234.514 144.539 235.071C144.201 235.628 144.026 236.485 144.016 237.641V239.954C144.016 241.183 144.193 242.092 144.547 242.68C144.906 243.264 145.448 243.555 146.172 243.555C146.885 243.555 147.414 243.279 147.758 242.727C148.107 242.175 148.289 241.305 148.305 240.118V237.75ZM158.734 239.727C158.734 241.42 158.445 242.678 157.867 243.5C157.289 244.323 156.385 244.735 155.156 244.735C153.943 244.735 153.044 244.334 152.461 243.532C151.878 242.724 151.576 241.521 151.555 239.922V237.993C151.555 236.321 151.844 235.079 152.422 234.266C153 233.454 153.906 233.047 155.141 233.047C156.365 233.047 157.266 233.441 157.844 234.227C158.422 235.008 158.719 236.217 158.734 237.852V239.727ZM157.289 237.75C157.289 236.527 157.117 235.636 156.773 235.079C156.43 234.516 155.885 234.235 155.141 234.235C154.401 234.235 153.862 234.514 153.523 235.071C153.185 235.628 153.01 236.485 153 237.641V239.954C153 241.183 153.177 242.092 153.531 242.68C153.891 243.264 154.432 243.555 155.156 243.555C155.87 243.555 156.398 243.279 156.742 242.727C157.091 242.175 157.273 241.305 157.289 240.118V237.75Z" fill="white"/>
<path d="M171.102 195.579H163.648V194.54L167.586 190.165C168.169 189.503 168.57 188.967 168.789 188.555C169.013 188.139 169.125 187.709 169.125 187.266C169.125 186.672 168.945 186.185 168.586 185.805C168.227 185.425 167.747 185.235 167.148 185.235C166.43 185.235 165.87 185.441 165.469 185.852C165.073 186.258 164.875 186.826 164.875 187.555H163.43C163.43 186.508 163.766 185.662 164.438 185.016C165.115 184.37 166.018 184.047 167.148 184.047C168.206 184.047 169.042 184.326 169.656 184.883C170.271 185.435 170.578 186.172 170.578 187.094C170.578 188.214 169.865 189.547 168.438 191.094L165.391 194.399H171.102V195.579ZM179.531 187.172C179.531 187.74 179.38 188.245 179.078 188.688C178.781 189.131 178.378 189.477 177.867 189.727C178.461 189.982 178.93 190.355 179.273 190.844C179.622 191.334 179.797 191.889 179.797 192.508C179.797 193.493 179.464 194.277 178.797 194.86C178.135 195.443 177.263 195.735 176.18 195.735C175.086 195.735 174.208 195.443 173.547 194.86C172.891 194.271 172.562 193.487 172.562 192.508C172.562 191.894 172.729 191.339 173.062 190.844C173.401 190.349 173.867 189.974 174.461 189.719C173.956 189.469 173.557 189.123 173.266 188.68C172.974 188.237 172.828 187.735 172.828 187.172C172.828 186.214 173.135 185.454 173.75 184.891C174.365 184.329 175.174 184.047 176.18 184.047C177.18 184.047 177.987 184.329 178.602 184.891C179.221 185.454 179.531 186.214 179.531 187.172ZM178.352 192.477C178.352 191.842 178.148 191.323 177.742 190.922C177.341 190.521 176.815 190.321 176.164 190.321C175.513 190.321 174.99 190.519 174.594 190.915C174.203 191.31 174.008 191.831 174.008 192.477C174.008 193.123 174.198 193.631 174.578 194C174.964 194.37 175.497 194.555 176.18 194.555C176.857 194.555 177.388 194.37 177.773 194C178.159 193.625 178.352 193.118 178.352 192.477ZM176.18 185.235C175.612 185.235 175.151 185.412 174.797 185.766C174.448 186.115 174.273 186.592 174.273 187.196C174.273 187.774 174.445 188.243 174.789 188.602C175.138 188.956 175.602 189.133 176.18 189.133C176.758 189.133 177.219 188.956 177.562 188.602C177.911 188.243 178.086 187.774 178.086 187.196C178.086 186.618 177.906 186.146 177.547 185.782C177.188 185.417 176.732 185.235 176.18 185.235ZM188.75 190.727C188.75 192.42 188.461 193.678 187.883 194.5C187.305 195.323 186.401 195.735 185.172 195.735C183.958 195.735 183.06 195.334 182.477 194.532C181.893 193.724 181.591 192.521 181.57 190.922V188.993C181.57 187.321 181.859 186.079 182.438 185.266C183.016 184.454 183.922 184.047 185.156 184.047C186.38 184.047 187.281 184.441 187.859 185.227C188.438 186.008 188.734 187.217 188.75 188.852V190.727ZM187.305 188.75C187.305 187.527 187.133 186.636 186.789 186.079C186.445 185.516 185.901 185.235 185.156 185.235C184.417 185.235 183.878 185.514 183.539 186.071C183.201 186.628 183.026 187.485 183.016 188.641V190.954C183.016 192.183 183.193 193.092 183.547 193.68C183.906 194.264 184.448 194.555 185.172 194.555C185.885 194.555 186.414 194.279 186.758 193.727C187.107 193.175 187.289 192.305 187.305 191.118V188.75ZM197.734 190.727C197.734 192.42 197.445 193.678 196.867 194.5C196.289 195.323 195.385 195.735 194.156 195.735C192.943 195.735 192.044 195.334 191.461 194.532C190.878 193.724 190.576 192.521 190.555 190.922V188.993C190.555 187.321 190.844 186.079 191.422 185.266C192 184.454 192.906 184.047 194.141 184.047C195.365 184.047 196.266 184.441 196.844 185.227C197.422 186.008 197.719 187.217 197.734 188.852V190.727ZM196.289 188.75C196.289 187.527 196.117 186.636 195.773 186.079C195.43 185.516 194.885 185.235 194.141 185.235C193.401 185.235 192.862 185.514 192.523 186.071C192.185 186.628 192.01 187.485 192 188.641V190.954C192 192.183 192.177 193.092 192.531 193.68C192.891 194.264 193.432 194.555 194.156 194.555C194.87 194.555 195.398 194.279 195.742 193.727C196.091 193.175 196.273 192.305 196.289 191.118V188.75Z" fill="white"/>
<path d="M212.102 157.579H204.648V156.54L208.586 152.165C209.169 151.503 209.57 150.967 209.789 150.555C210.013 150.139 210.125 149.709 210.125 149.266C210.125 148.672 209.945 148.185 209.586 147.805C209.227 147.425 208.747 147.235 208.148 147.235C207.43 147.235 206.87 147.441 206.469 147.852C206.073 148.258 205.875 148.826 205.875 149.555H204.43C204.43 148.508 204.766 147.662 205.438 147.016C206.115 146.37 207.018 146.047 208.148 146.047C209.206 146.047 210.042 146.326 210.656 146.883C211.271 147.435 211.578 148.172 211.578 149.094C211.578 150.214 210.865 151.547 209.438 153.094L206.391 156.399H212.102V157.579ZM219.172 152.579C218.87 152.938 218.508 153.227 218.086 153.446C217.669 153.665 217.211 153.774 216.711 153.774C216.055 153.774 215.482 153.612 214.992 153.29C214.508 152.967 214.133 152.514 213.867 151.93C213.602 151.342 213.469 150.693 213.469 149.985C213.469 149.224 213.612 148.54 213.898 147.93C214.19 147.321 214.602 146.855 215.133 146.532C215.664 146.209 216.284 146.047 216.992 146.047C218.117 146.047 219.003 146.469 219.648 147.313C220.299 148.152 220.625 149.297 220.625 150.75V151.172C220.625 153.386 220.188 155.003 219.312 156.024C218.438 157.04 217.117 157.56 215.352 157.586H215.07V156.368H215.375C216.568 156.347 217.484 156.037 218.125 155.438C218.766 154.834 219.115 153.881 219.172 152.579ZM216.945 152.579C217.43 152.579 217.875 152.43 218.281 152.133C218.693 151.836 218.992 151.469 219.18 151.032V150.454C219.18 149.506 218.974 148.735 218.562 148.141C218.151 147.547 217.63 147.25 217 147.25C216.365 147.25 215.854 147.495 215.469 147.985C215.083 148.469 214.891 149.11 214.891 149.907C214.891 150.683 215.076 151.323 215.445 151.829C215.82 152.329 216.32 152.579 216.945 152.579ZM229.75 152.727C229.75 154.42 229.461 155.678 228.883 156.5C228.305 157.323 227.401 157.735 226.172 157.735C224.958 157.735 224.06 157.334 223.477 156.532C222.893 155.724 222.591 154.521 222.57 152.922V150.993C222.57 149.321 222.859 148.079 223.438 147.266C224.016 146.454 224.922 146.047 226.156 146.047C227.38 146.047 228.281 146.441 228.859 147.227C229.438 148.008 229.734 149.217 229.75 150.852V152.727ZM228.305 150.75C228.305 149.527 228.133 148.636 227.789 148.079C227.445 147.516 226.901 147.235 226.156 147.235C225.417 147.235 224.878 147.514 224.539 148.071C224.201 148.628 224.026 149.485 224.016 150.641V152.954C224.016 154.183 224.193 155.092 224.547 155.68C224.906 156.264 225.448 156.555 226.172 156.555C226.885 156.555 227.414 156.279 227.758 155.727C228.107 155.175 228.289 154.305 228.305 153.118V150.75ZM238.734 152.727C238.734 154.42 238.445 155.678 237.867 156.5C237.289 157.323 236.385 157.735 235.156 157.735C233.943 157.735 233.044 157.334 232.461 156.532C231.878 155.724 231.576 154.521 231.555 152.922V150.993C231.555 149.321 231.844 148.079 232.422 147.266C233 146.454 233.906 146.047 235.141 146.047C236.365 146.047 237.266 146.441 237.844 147.227C238.422 148.008 238.719 149.217 238.734 150.852V152.727ZM237.289 150.75C237.289 149.527 237.117 148.636 236.773 148.079C236.43 147.516 235.885 147.235 235.141 147.235C234.401 147.235 233.862 147.514 233.523 148.071C233.185 148.628 233.01 149.485 233 150.641V152.954C233 154.183 233.177 155.092 233.531 155.68C233.891 156.264 234.432 156.555 235.156 156.555C235.87 156.555 236.398 156.279 236.742 155.727C237.091 155.175 237.273 154.305 237.289 153.118V150.75Z" fill="white"/>
<path d="M265.75 124.188H266.836C267.518 124.178 268.055 123.998 268.445 123.649C268.836 123.3 269.031 122.829 269.031 122.235C269.031 120.902 268.367 120.235 267.039 120.235C266.414 120.235 265.914 120.415 265.539 120.774C265.169 121.128 264.984 121.599 264.984 122.188H263.539C263.539 121.287 263.867 120.54 264.523 119.946C265.185 119.347 266.023 119.047 267.039 119.047C268.112 119.047 268.953 119.331 269.562 119.899C270.172 120.467 270.477 121.256 270.477 122.266C270.477 122.761 270.315 123.24 269.992 123.704C269.674 124.167 269.24 124.514 268.688 124.743C269.312 124.941 269.794 125.269 270.133 125.727C270.477 126.185 270.648 126.745 270.648 127.407C270.648 128.428 270.315 129.237 269.648 129.836C268.982 130.435 268.115 130.735 267.047 130.735C265.979 130.735 265.109 130.446 264.438 129.868C263.771 129.29 263.438 128.527 263.438 127.579H264.891C264.891 128.178 265.086 128.657 265.477 129.016C265.867 129.375 266.391 129.555 267.047 129.555C267.745 129.555 268.279 129.373 268.648 129.008C269.018 128.644 269.203 128.12 269.203 127.438C269.203 126.777 269 126.269 268.594 125.915C268.188 125.56 267.602 125.378 266.836 125.368H265.75V124.188ZM279.766 125.727C279.766 127.42 279.477 128.678 278.898 129.5C278.32 130.323 277.417 130.735 276.188 130.735C274.974 130.735 274.076 130.334 273.492 129.532C272.909 128.724 272.607 127.521 272.586 125.922V123.993C272.586 122.321 272.875 121.079 273.453 120.266C274.031 119.454 274.938 119.047 276.172 119.047C277.396 119.047 278.297 119.441 278.875 120.227C279.453 121.008 279.75 122.217 279.766 123.852V125.727ZM278.32 123.75C278.32 122.527 278.148 121.636 277.805 121.079C277.461 120.516 276.917 120.235 276.172 120.235C275.432 120.235 274.893 120.514 274.555 121.071C274.216 121.628 274.042 122.485 274.031 123.641V125.954C274.031 127.183 274.208 128.092 274.562 128.68C274.922 129.264 275.464 129.555 276.188 129.555C276.901 129.555 277.43 129.279 277.773 128.727C278.122 128.175 278.305 127.305 278.32 126.118V123.75ZM288.75 125.727C288.75 127.42 288.461 128.678 287.883 129.5C287.305 130.323 286.401 130.735 285.172 130.735C283.958 130.735 283.06 130.334 282.477 129.532C281.893 128.724 281.591 127.521 281.57 125.922V123.993C281.57 122.321 281.859 121.079 282.438 120.266C283.016 119.454 283.922 119.047 285.156 119.047C286.38 119.047 287.281 119.441 287.859 120.227C288.438 121.008 288.734 122.217 288.75 123.852V125.727ZM287.305 123.75C287.305 122.527 287.133 121.636 286.789 121.079C286.445 120.516 285.901 120.235 285.156 120.235C284.417 120.235 283.878 120.514 283.539 121.071C283.201 121.628 283.026 122.485 283.016 123.641V125.954C283.016 127.183 283.193 128.092 283.547 128.68C283.906 129.264 284.448 129.555 285.172 129.555C285.885 129.555 286.414 129.279 286.758 128.727C287.107 128.175 287.289 127.305 287.305 126.118V123.75ZM297.734 125.727C297.734 127.42 297.445 128.678 296.867 129.5C296.289 130.323 295.385 130.735 294.156 130.735C292.943 130.735 292.044 130.334 291.461 129.532C290.878 128.724 290.576 127.521 290.555 125.922V123.993C290.555 122.321 290.844 121.079 291.422 120.266C292 119.454 292.906 119.047 294.141 119.047C295.365 119.047 296.266 119.441 296.844 120.227C297.422 121.008 297.719 122.217 297.734 123.852V125.727ZM296.289 123.75C296.289 122.527 296.117 121.636 295.773 121.079C295.43 120.516 294.885 120.235 294.141 120.235C293.401 120.235 292.862 120.514 292.523 121.071C292.185 121.628 292.01 122.485 292 123.641V125.954C292 127.183 292.177 128.092 292.531 128.68C292.891 129.264 293.432 129.555 294.156 129.555C294.87 129.555 295.398 129.279 295.742 128.727C296.091 128.175 296.273 127.305 296.289 126.118V123.75Z" fill="white"/>
<path d="M330.75 109.188H331.836C332.518 109.178 333.055 108.998 333.445 108.649C333.836 108.3 334.031 107.829 334.031 107.235C334.031 105.902 333.367 105.235 332.039 105.235C331.414 105.235 330.914 105.415 330.539 105.774C330.169 106.128 329.984 106.599 329.984 107.188H328.539C328.539 106.287 328.867 105.54 329.523 104.946C330.185 104.347 331.023 104.047 332.039 104.047C333.112 104.047 333.953 104.331 334.562 104.899C335.172 105.467 335.477 106.256 335.477 107.266C335.477 107.761 335.315 108.24 334.992 108.704C334.674 109.167 334.24 109.514 333.688 109.743C334.312 109.941 334.794 110.269 335.133 110.727C335.477 111.185 335.648 111.745 335.648 112.407C335.648 113.428 335.315 114.237 334.648 114.836C333.982 115.435 333.115 115.735 332.047 115.735C330.979 115.735 330.109 115.446 329.438 114.868C328.771 114.29 328.438 113.527 328.438 112.579H329.891C329.891 113.178 330.086 113.657 330.477 114.016C330.867 114.375 331.391 114.555 332.047 114.555C332.745 114.555 333.279 114.373 333.648 114.008C334.018 113.644 334.203 113.12 334.203 112.438C334.203 111.777 334 111.269 333.594 110.915C333.188 110.56 332.602 110.378 331.836 110.368H330.75V109.188ZM342.383 115.579H340.93V105.946L338.016 107.016V105.704L342.156 104.149H342.383V115.579ZM353.75 110.727C353.75 112.42 353.461 113.678 352.883 114.5C352.305 115.323 351.401 115.735 350.172 115.735C348.958 115.735 348.06 115.334 347.477 114.532C346.893 113.724 346.591 112.521 346.57 110.922V108.993C346.57 107.321 346.859 106.079 347.438 105.266C348.016 104.454 348.922 104.047 350.156 104.047C351.38 104.047 352.281 104.441 352.859 105.227C353.438 106.008 353.734 107.217 353.75 108.852V110.727ZM352.305 108.75C352.305 107.527 352.133 106.636 351.789 106.079C351.445 105.516 350.901 105.235 350.156 105.235C349.417 105.235 348.878 105.514 348.539 106.071C348.201 106.628 348.026 107.485 348.016 108.641V110.954C348.016 112.183 348.193 113.092 348.547 113.68C348.906 114.264 349.448 114.555 350.172 114.555C350.885 114.555 351.414 114.279 351.758 113.727C352.107 113.175 352.289 112.305 352.305 111.118V108.75ZM362.734 110.727C362.734 112.42 362.445 113.678 361.867 114.5C361.289 115.323 360.385 115.735 359.156 115.735C357.943 115.735 357.044 115.334 356.461 114.532C355.878 113.724 355.576 112.521 355.555 110.922V108.993C355.555 107.321 355.844 106.079 356.422 105.266C357 104.454 357.906 104.047 359.141 104.047C360.365 104.047 361.266 104.441 361.844 105.227C362.422 106.008 362.719 107.217 362.734 108.852V110.727ZM361.289 108.75C361.289 107.527 361.117 106.636 360.773 106.079C360.43 105.516 359.885 105.235 359.141 105.235C358.401 105.235 357.862 105.514 357.523 106.071C357.185 106.628 357.01 107.485 357 108.641V110.954C357 112.183 357.177 113.092 357.531 113.68C357.891 114.264 358.432 114.555 359.156 114.555C359.87 114.555 360.398 114.279 360.742 113.727C361.091 113.175 361.273 112.305 361.289 111.118V108.75Z" fill="white"/>
<path d="M704.992 343.016L700.281 353.579H698.766L703.461 343.391H697.305V342.204H704.992V343.016ZM713.766 348.727C713.766 350.42 713.477 351.678 712.898 352.5C712.32 353.323 711.417 353.735 710.188 353.735C708.974 353.735 708.076 353.334 707.492 352.532C706.909 351.724 706.607 350.521 706.586 348.922V346.993C706.586 345.321 706.875 344.079 707.453 343.266C708.031 342.454 708.938 342.047 710.172 342.047C711.396 342.047 712.297 342.441 712.875 343.227C713.453 344.008 713.75 345.217 713.766 346.852V348.727ZM712.32 346.75C712.32 345.527 712.148 344.636 711.805 344.079C711.461 343.516 710.917 343.235 710.172 343.235C709.432 343.235 708.893 343.514 708.555 344.071C708.216 344.628 708.042 345.485 708.031 346.641V348.954C708.031 350.183 708.208 351.092 708.562 351.68C708.922 352.264 709.464 352.555 710.188 352.555C710.901 352.555 711.43 352.279 711.773 351.727C712.122 351.175 712.305 350.305 712.32 349.118V346.75ZM722.75 348.727C722.75 350.42 722.461 351.678 721.883 352.5C721.305 353.323 720.401 353.735 719.172 353.735C717.958 353.735 717.06 353.334 716.477 352.532C715.893 351.724 715.591 350.521 715.57 348.922V346.993C715.57 345.321 715.859 344.079 716.438 343.266C717.016 342.454 717.922 342.047 719.156 342.047C720.38 342.047 721.281 342.441 721.859 343.227C722.438 344.008 722.734 345.217 722.75 346.852V348.727ZM721.305 346.75C721.305 345.527 721.133 344.636 720.789 344.079C720.445 343.516 719.901 343.235 719.156 343.235C718.417 343.235 717.878 343.514 717.539 344.071C717.201 344.628 717.026 345.485 717.016 346.641V348.954C717.016 350.183 717.193 351.092 717.547 351.68C717.906 352.264 718.448 352.555 719.172 352.555C719.885 352.555 720.414 352.279 720.758 351.727C721.107 351.175 721.289 350.305 721.305 349.118V346.75Z" fill="white"/>
<path d="M690.32 287.196V288.422H690.055C688.93 288.443 688.034 288.777 687.367 289.422C686.701 290.068 686.315 290.977 686.211 292.149C686.81 291.461 687.628 291.118 688.664 291.118C689.654 291.118 690.443 291.467 691.031 292.165C691.625 292.862 691.922 293.764 691.922 294.868C691.922 296.04 691.602 296.977 690.961 297.68C690.326 298.383 689.471 298.735 688.398 298.735C687.31 298.735 686.427 298.318 685.75 297.485C685.073 296.646 684.734 295.568 684.734 294.25V293.696C684.734 291.602 685.18 290.003 686.07 288.899C686.966 287.79 688.297 287.222 690.062 287.196H690.32ZM688.422 292.321C687.927 292.321 687.471 292.469 687.055 292.766C686.638 293.063 686.349 293.435 686.188 293.883V294.415C686.188 295.352 686.398 296.107 686.82 296.68C687.242 297.253 687.768 297.54 688.398 297.54C689.049 297.54 689.56 297.3 689.93 296.821C690.305 296.342 690.492 295.714 690.492 294.938C690.492 294.157 690.302 293.527 689.922 293.047C689.547 292.563 689.047 292.321 688.422 292.321ZM700.766 293.727C700.766 295.42 700.477 296.678 699.898 297.5C699.32 298.323 698.417 298.735 697.188 298.735C695.974 298.735 695.076 298.334 694.492 297.532C693.909 296.724 693.607 295.521 693.586 293.922V291.993C693.586 290.321 693.875 289.079 694.453 288.266C695.031 287.454 695.938 287.047 697.172 287.047C698.396 287.047 699.297 287.441 699.875 288.227C700.453 289.008 700.75 290.217 700.766 291.852V293.727ZM699.32 291.75C699.32 290.527 699.148 289.636 698.805 289.079C698.461 288.516 697.917 288.235 697.172 288.235C696.432 288.235 695.893 288.514 695.555 289.071C695.216 289.628 695.042 290.485 695.031 291.641V293.954C695.031 295.183 695.208 296.092 695.562 296.68C695.922 297.264 696.464 297.555 697.188 297.555C697.901 297.555 698.43 297.279 698.773 296.727C699.122 296.175 699.305 295.305 699.32 294.118V291.75ZM709.75 293.727C709.75 295.42 709.461 296.678 708.883 297.5C708.305 298.323 707.401 298.735 706.172 298.735C704.958 298.735 704.06 298.334 703.477 297.532C702.893 296.724 702.591 295.521 702.57 293.922V291.993C702.57 290.321 702.859 289.079 703.438 288.266C704.016 287.454 704.922 287.047 706.156 287.047C707.38 287.047 708.281 287.441 708.859 288.227C709.438 289.008 709.734 290.217 709.75 291.852V293.727ZM708.305 291.75C708.305 290.527 708.133 289.636 707.789 289.079C707.445 288.516 706.901 288.235 706.156 288.235C705.417 288.235 704.878 288.514 704.539 289.071C704.201 289.628 704.026 290.485 704.016 291.641V293.954C704.016 295.183 704.193 296.092 704.547 296.68C704.906 297.264 705.448 297.555 706.172 297.555C706.885 297.555 707.414 297.279 707.758 296.727C708.107 296.175 708.289 295.305 708.305 294.118V291.75Z" fill="white"/>
<path d="M655.312 239.875L655.891 234.204H661.719V235.54H657.117L656.773 238.641C657.331 238.313 657.964 238.149 658.672 238.149C659.708 238.149 660.531 238.493 661.141 239.18C661.75 239.862 662.055 240.787 662.055 241.954C662.055 243.125 661.737 244.05 661.102 244.727C660.471 245.399 659.589 245.735 658.453 245.735C657.448 245.735 656.628 245.456 655.992 244.899C655.357 244.342 654.995 243.571 654.906 242.586H656.273C656.362 243.237 656.594 243.73 656.969 244.063C657.344 244.391 657.839 244.555 658.453 244.555C659.125 244.555 659.651 244.326 660.031 243.868C660.417 243.409 660.609 242.777 660.609 241.969C660.609 241.209 660.401 240.599 659.984 240.141C659.573 239.678 659.023 239.446 658.336 239.446C657.706 239.446 657.211 239.584 656.852 239.86L656.469 240.172L655.312 239.875ZM670.766 240.727C670.766 242.42 670.477 243.678 669.898 244.5C669.32 245.323 668.417 245.735 667.188 245.735C665.974 245.735 665.076 245.334 664.492 244.532C663.909 243.724 663.607 242.521 663.586 240.922V238.993C663.586 237.321 663.875 236.079 664.453 235.266C665.031 234.454 665.938 234.047 667.172 234.047C668.396 234.047 669.297 234.441 669.875 235.227C670.453 236.008 670.75 237.217 670.766 238.852V240.727ZM669.32 238.75C669.32 237.527 669.148 236.636 668.805 236.079C668.461 235.516 667.917 235.235 667.172 235.235C666.432 235.235 665.893 235.514 665.555 236.071C665.216 236.628 665.042 237.485 665.031 238.641V240.954C665.031 242.183 665.208 243.092 665.562 243.68C665.922 244.264 666.464 244.555 667.188 244.555C667.901 244.555 668.43 244.279 668.773 243.727C669.122 243.175 669.305 242.305 669.32 241.118V238.75ZM679.75 240.727C679.75 242.42 679.461 243.678 678.883 244.5C678.305 245.323 677.401 245.735 676.172 245.735C674.958 245.735 674.06 245.334 673.477 244.532C672.893 243.724 672.591 242.521 672.57 240.922V238.993C672.57 237.321 672.859 236.079 673.438 235.266C674.016 234.454 674.922 234.047 676.156 234.047C677.38 234.047 678.281 234.441 678.859 235.227C679.438 236.008 679.734 237.217 679.75 238.852V240.727ZM678.305 238.75C678.305 237.527 678.133 236.636 677.789 236.079C677.445 235.516 676.901 235.235 676.156 235.235C675.417 235.235 674.878 235.514 674.539 236.071C674.201 236.628 674.026 237.485 674.016 238.641V240.954C674.016 242.183 674.193 243.092 674.547 243.68C674.906 244.264 675.448 244.555 676.172 244.555C676.885 244.555 677.414 244.279 677.758 243.727C678.107 243.175 678.289 242.305 678.305 241.118V238.75Z" fill="white"/>
<path d="M616.75 191.758H618.328V192.938H616.75V195.579H615.297V192.938H610.117V192.086L615.211 184.204H616.75V191.758ZM611.758 191.758H615.297V186.18L615.125 186.493L611.758 191.758ZM626.766 190.727C626.766 192.42 626.477 193.678 625.898 194.5C625.32 195.323 624.417 195.735 623.188 195.735C621.974 195.735 621.076 195.334 620.492 194.532C619.909 193.724 619.607 192.521 619.586 190.922V188.993C619.586 187.321 619.875 186.079 620.453 185.266C621.031 184.454 621.938 184.047 623.172 184.047C624.396 184.047 625.297 184.441 625.875 185.227C626.453 186.008 626.75 187.217 626.766 188.852V190.727ZM625.32 188.75C625.32 187.527 625.148 186.636 624.805 186.079C624.461 185.516 623.917 185.235 623.172 185.235C622.432 185.235 621.893 185.514 621.555 186.071C621.216 186.628 621.042 187.485 621.031 188.641V190.954C621.031 192.183 621.208 193.092 621.562 193.68C621.922 194.264 622.464 194.555 623.188 194.555C623.901 194.555 624.43 194.279 624.773 193.727C625.122 193.175 625.305 192.305 625.32 191.118V188.75ZM635.75 190.727C635.75 192.42 635.461 193.678 634.883 194.5C634.305 195.323 633.401 195.735 632.172 195.735C630.958 195.735 630.06 195.334 629.477 194.532C628.893 193.724 628.591 192.521 628.57 190.922V188.993C628.57 187.321 628.859 186.079 629.438 185.266C630.016 184.454 630.922 184.047 632.156 184.047C633.38 184.047 634.281 184.441 634.859 185.227C635.438 186.008 635.734 187.217 635.75 188.852V190.727ZM634.305 188.75C634.305 187.527 634.133 186.636 633.789 186.079C633.445 185.516 632.901 185.235 632.156 185.235C631.417 185.235 630.878 185.514 630.539 186.071C630.201 186.628 630.026 187.485 630.016 188.641V190.954C630.016 192.183 630.193 193.092 630.547 193.68C630.906 194.264 631.448 194.555 632.172 194.555C632.885 194.555 633.414 194.279 633.758 193.727C634.107 193.175 634.289 192.305 634.305 191.118V188.75Z" fill="white"/>
<path d="M561.75 152.188H562.836C563.518 152.178 564.055 151.998 564.445 151.649C564.836 151.3 565.031 150.829 565.031 150.235C565.031 148.902 564.367 148.235 563.039 148.235C562.414 148.235 561.914 148.415 561.539 148.774C561.169 149.128 560.984 149.599 560.984 150.188H559.539C559.539 149.287 559.867 148.54 560.523 147.946C561.185 147.347 562.023 147.047 563.039 147.047C564.112 147.047 564.953 147.331 565.562 147.899C566.172 148.467 566.477 149.256 566.477 150.266C566.477 150.761 566.315 151.24 565.992 151.704C565.674 152.167 565.24 152.514 564.688 152.743C565.312 152.941 565.794 153.269 566.133 153.727C566.477 154.185 566.648 154.745 566.648 155.407C566.648 156.428 566.315 157.237 565.648 157.836C564.982 158.435 564.115 158.735 563.047 158.735C561.979 158.735 561.109 158.446 560.438 157.868C559.771 157.29 559.438 156.527 559.438 155.579H560.891C560.891 156.178 561.086 156.657 561.477 157.016C561.867 157.375 562.391 157.555 563.047 157.555C563.745 157.555 564.279 157.373 564.648 157.008C565.018 156.644 565.203 156.12 565.203 155.438C565.203 154.777 565 154.269 564.594 153.915C564.188 153.56 563.602 153.378 562.836 153.368H561.75V152.188ZM575.766 153.727C575.766 155.42 575.477 156.678 574.898 157.5C574.32 158.323 573.417 158.735 572.188 158.735C570.974 158.735 570.076 158.334 569.492 157.532C568.909 156.724 568.607 155.521 568.586 153.922V151.993C568.586 150.321 568.875 149.079 569.453 148.266C570.031 147.454 570.938 147.047 572.172 147.047C573.396 147.047 574.297 147.441 574.875 148.227C575.453 149.008 575.75 150.217 575.766 151.852V153.727ZM574.32 151.75C574.32 150.527 574.148 149.636 573.805 149.079C573.461 148.516 572.917 148.235 572.172 148.235C571.432 148.235 570.893 148.514 570.555 149.071C570.216 149.628 570.042 150.485 570.031 151.641V153.954C570.031 155.183 570.208 156.092 570.562 156.68C570.922 157.264 571.464 157.555 572.188 157.555C572.901 157.555 573.43 157.279 573.773 156.727C574.122 156.175 574.305 155.305 574.32 154.118V151.75ZM584.75 153.727C584.75 155.42 584.461 156.678 583.883 157.5C583.305 158.323 582.401 158.735 581.172 158.735C579.958 158.735 579.06 158.334 578.477 157.532C577.893 156.724 577.591 155.521 577.57 153.922V151.993C577.57 150.321 577.859 149.079 578.438 148.266C579.016 147.454 579.922 147.047 581.156 147.047C582.38 147.047 583.281 147.441 583.859 148.227C584.438 149.008 584.734 150.217 584.75 151.852V153.727ZM583.305 151.75C583.305 150.527 583.133 149.636 582.789 149.079C582.445 148.516 581.901 148.235 581.156 148.235C580.417 148.235 579.878 148.514 579.539 149.071C579.201 149.628 579.026 150.485 579.016 151.641V153.954C579.016 155.183 579.193 156.092 579.547 156.68C579.906 157.264 580.448 157.555 581.172 157.555C581.885 157.555 582.414 157.279 582.758 156.727C583.107 156.175 583.289 155.305 583.305 154.118V151.75Z" fill="white"/>
<path d="M516.102 131.579H508.648V130.54L512.586 126.165C513.169 125.503 513.57 124.967 513.789 124.555C514.013 124.139 514.125 123.709 514.125 123.266C514.125 122.672 513.945 122.185 513.586 121.805C513.227 121.425 512.747 121.235 512.148 121.235C511.43 121.235 510.87 121.441 510.469 121.852C510.073 122.258 509.875 122.826 509.875 123.555H508.43C508.43 122.508 508.766 121.662 509.438 121.016C510.115 120.37 511.018 120.047 512.148 120.047C513.206 120.047 514.042 120.326 514.656 120.883C515.271 121.435 515.578 122.172 515.578 123.094C515.578 124.214 514.865 125.547 513.438 127.094L510.391 130.399H516.102V131.579ZM524.766 126.727C524.766 128.42 524.477 129.678 523.898 130.5C523.32 131.323 522.417 131.735 521.188 131.735C519.974 131.735 519.076 131.334 518.492 130.532C517.909 129.724 517.607 128.521 517.586 126.922V124.993C517.586 123.321 517.875 122.079 518.453 121.266C519.031 120.454 519.938 120.047 521.172 120.047C522.396 120.047 523.297 120.441 523.875 121.227C524.453 122.008 524.75 123.217 524.766 124.852V126.727ZM523.32 124.75C523.32 123.527 523.148 122.636 522.805 122.079C522.461 121.516 521.917 121.235 521.172 121.235C520.432 121.235 519.893 121.514 519.555 122.071C519.216 122.628 519.042 123.485 519.031 124.641V126.954C519.031 128.183 519.208 129.092 519.562 129.68C519.922 130.264 520.464 130.555 521.188 130.555C521.901 130.555 522.43 130.279 522.773 129.727C523.122 129.175 523.305 128.305 523.32 127.118V124.75ZM533.75 126.727C533.75 128.42 533.461 129.678 532.883 130.5C532.305 131.323 531.401 131.735 530.172 131.735C528.958 131.735 528.06 131.334 527.477 130.532C526.893 129.724 526.591 128.521 526.57 126.922V124.993C526.57 123.321 526.859 122.079 527.438 121.266C528.016 120.454 528.922 120.047 530.156 120.047C531.38 120.047 532.281 120.441 532.859 121.227C533.438 122.008 533.734 123.217 533.75 124.852V126.727ZM532.305 124.75C532.305 123.527 532.133 122.636 531.789 122.079C531.445 121.516 530.901 121.235 530.156 121.235C529.417 121.235 528.878 121.514 528.539 122.071C528.201 122.628 528.026 123.485 528.016 124.641V126.954C528.016 128.183 528.193 129.092 528.547 129.68C528.906 130.264 529.448 130.555 530.172 130.555C530.885 130.555 531.414 130.279 531.758 129.727C532.107 129.175 532.289 128.305 532.305 127.118V124.75Z" fill="white"/>
<path d="M455.398 116.579H453.945V106.946L451.031 108.016V106.704L455.172 105.149H455.398V116.579ZM466.766 111.727C466.766 113.42 466.477 114.678 465.898 115.5C465.32 116.323 464.417 116.735 463.188 116.735C461.974 116.735 461.076 116.334 460.492 115.532C459.909 114.724 459.607 113.521 459.586 111.922V109.993C459.586 108.321 459.875 107.079 460.453 106.266C461.031 105.454 461.938 105.047 463.172 105.047C464.396 105.047 465.297 105.441 465.875 106.227C466.453 107.008 466.75 108.217 466.766 109.852V111.727ZM465.32 109.75C465.32 108.527 465.148 107.636 464.805 107.079C464.461 106.516 463.917 106.235 463.172 106.235C462.432 106.235 461.893 106.514 461.555 107.071C461.216 107.628 461.042 108.485 461.031 109.641V111.954C461.031 113.183 461.208 114.092 461.562 114.68C461.922 115.264 462.464 115.555 463.188 115.555C463.901 115.555 464.43 115.279 464.773 114.727C465.122 114.175 465.305 113.305 465.32 112.118V109.75ZM475.75 111.727C475.75 113.42 475.461 114.678 474.883 115.5C474.305 116.323 473.401 116.735 472.172 116.735C470.958 116.735 470.06 116.334 469.477 115.532C468.893 114.724 468.591 113.521 468.57 111.922V109.993C468.57 108.321 468.859 107.079 469.438 106.266C470.016 105.454 470.922 105.047 472.156 105.047C473.38 105.047 474.281 105.441 474.859 106.227C475.438 107.008 475.734 108.217 475.75 109.852V111.727ZM474.305 109.75C474.305 108.527 474.133 107.636 473.789 107.079C473.445 106.516 472.901 106.235 472.156 106.235C471.417 106.235 470.878 106.514 470.539 107.071C470.201 107.628 470.026 108.485 470.016 109.641V111.954C470.016 113.183 470.193 114.092 470.547 114.68C470.906 115.264 471.448 115.555 472.172 115.555C472.885 115.555 473.414 115.279 473.758 114.727C474.107 114.175 474.289 113.305 474.305 112.118V109.75Z" fill="white"/>
<path d="M405.781 108.727C405.781 110.42 405.492 111.678 404.914 112.5C404.336 113.323 403.432 113.735 402.203 113.735C400.99 113.735 400.091 113.334 399.508 112.532C398.924 111.724 398.622 110.521 398.602 108.922V106.993C398.602 105.321 398.891 104.079 399.469 103.266C400.047 102.454 400.953 102.047 402.188 102.047C403.411 102.047 404.312 102.441 404.891 103.227C405.469 104.008 405.766 105.217 405.781 106.852V108.727ZM404.336 106.75C404.336 105.527 404.164 104.636 403.82 104.079C403.477 103.516 402.932 103.235 402.188 103.235C401.448 103.235 400.909 103.514 400.57 104.071C400.232 104.628 400.057 105.485 400.047 106.641V108.954C400.047 110.183 400.224 111.092 400.578 111.68C400.938 112.264 401.479 112.555 402.203 112.555C402.917 112.555 403.445 112.279 403.789 111.727C404.138 111.175 404.32 110.305 404.336 109.118V106.75ZM412.383 113.579H410.93V103.946L408.016 105.016V103.704L412.156 102.149H412.383V113.579Z" fill="white"/>
</svg>
