<svg width="1197" height="1093" viewBox="0 0 1197 1093" fill="none" xmlns="http://www.w3.org/2000/svg">
<path d="M437.362 223.945C436.898 223.022 435.803 222.606 434.844 222.988C354.462 255.024 291.639 314.743 258.559 390.551C258.117 391.565 258.589 392.744 259.606 393.178L267.865 396.702C268.88 397.135 270.053 396.663 270.495 395.652C302.353 322.686 362.782 265.181 440.099 234.251C441.192 233.813 441.684 232.534 441.155 231.482L437.362 223.945Z" fill="#DBE060"/>
<circle cx="486.943" cy="204.852" r="8" fill="#DBE060"/>
<circle cx="520.943" cy="195.852" r="8" fill="#DBE060"/>
<circle cx="557.943" cy="189.852" r="8" fill="#DBE060"/>
<circle cx="592.943" cy="187.852" r="8" fill="#DBE060"/>
<circle cx="629.943" cy="188.852" r="8" fill="#DBE060"/>
<path d="M962 594.5C962 795.256 799.256 958 598.5 958C397.744 958 235 795.256 235 594.5C235 393.744 397.744 231 598.5 231C799.256 231 962 393.744 962 594.5ZM249.792 594.5C249.792 787.086 405.914 943.208 598.5 943.208C791.086 943.208 947.208 787.086 947.208 594.5C947.208 401.914 791.086 245.792 598.5 245.792C405.914 245.792 249.792 401.914 249.792 594.5Z" fill="#5FA9C8"/>
<path d="M948.329 543.689C953.795 542.895 957.596 537.817 956.652 532.375C944.959 464.96 914.459 402.14 868.573 351.204C820.454 297.789 757.575 259.842 687.889 242.162C618.204 224.483 544.84 227.865 477.076 251.88C412.458 274.78 355.699 315.463 313.282 369.149C309.858 373.483 310.778 379.759 315.204 383.062L328.504 392.989C332.93 396.292 339.185 395.371 342.622 391.048C380.7 343.157 431.505 306.856 489.301 286.374C550.242 264.776 616.22 261.735 678.89 277.634C741.56 293.534 798.108 327.66 841.383 375.698C882.424 421.256 909.779 477.386 920.421 537.638C921.382 543.077 926.44 546.868 931.906 546.074L948.329 543.689Z" fill="#5FA9C8"/>
<path d="M261.861 486.628C256.602 484.942 250.958 487.836 249.418 493.14C244.78 509.112 241.244 525.383 238.835 541.84C238.035 547.304 241.968 552.279 247.453 552.929L263.933 554.88C269.418 555.53 274.375 551.607 275.192 546.145C277.305 532.017 280.342 518.043 284.283 504.312C285.806 499.003 282.925 493.377 277.665 491.692L261.861 486.628Z" fill="#5FA9C8"/>
<path d="M245.209 606.64C239.689 606.83 235.354 611.461 235.695 616.973C240.546 695.3 270.631 770.058 321.584 829.978C372.538 889.899 441.49 931.605 518.02 948.979C523.406 950.202 528.673 946.667 529.747 941.25L532.975 924.971C534.049 919.553 530.523 914.306 525.141 913.067C456.708 897.309 395.069 859.903 349.463 806.271C303.857 752.64 276.841 685.791 272.285 615.716C271.926 610.205 267.314 605.881 261.794 606.07L245.209 606.64Z" fill="#5FA9C8"/>
<g opacity="0.8" filter="url(#filter0_d)">
<path d="M974.839 921.412C1033.49 853.899 1072.89 771.852 1088.92 683.872C1104.96 595.892 1097.03 505.22 1065.97 421.358C1034.9 337.497 981.857 263.536 912.381 207.227C842.906 150.918 759.563 114.335 671.087 101.313C582.612 88.2912 492.262 99.3098 409.51 133.214C326.757 167.118 254.649 222.659 200.743 294.015C146.837 365.37 113.119 449.914 103.124 538.782C93.1281 627.65 107.223 717.571 143.931 799.119L184.058 781.056C150.591 706.707 137.741 624.724 146.854 543.7C155.967 462.677 186.708 385.597 235.856 320.54C285.003 255.484 350.746 204.846 426.193 173.935C501.641 143.024 584.014 132.978 664.68 144.85C745.345 156.722 821.331 190.076 884.673 241.414C948.015 292.752 996.38 360.184 1024.7 436.643C1053.02 513.101 1060.25 595.769 1045.63 675.983C1031.01 756.196 995.086 831 941.617 892.553L974.839 921.412Z" fill="#A3C4E7"/>
</g>
<defs>
<filter id="filter0_d" x="0" y="0" width="1197" height="1025.41" filterUnits="userSpaceOnUse" color-interpolation-filters="sRGB">
<feFlood flood-opacity="0" result="BackgroundImageFix"/>
<feColorMatrix in="SourceAlpha" type="matrix" values="0 0 0 0 0 0 0 0 0 0 0 0 0 0 0 0 0 0 127 0" result="hardAlpha"/>
<feOffset dy="4"/>
<feGaussianBlur stdDeviation="50"/>
<feColorMatrix type="matrix" values="0 0 0 0 0.639216 0 0 0 0 0.768627 0 0 0 0 0.905882 0 0 0 1 0"/>
<feBlend mode="normal" in2="BackgroundImageFix" result="effect1_dropShadow"/>
<feBlend mode="normal" in="SourceGraphic" in2="effect1_dropShadow" result="shape"/>
</filter>
</defs>
</svg>
