


<svg  class="spin" width="1060" height="1060" viewBox="0 0 1060 1060" fill="none" xmlns="http://www.w3.org/2000/svg">
<rect x="515.445" y="142.012" width="29.099" height="189.144" rx="14.5495" fill="#07C4FF"/>
<rect x="515.445" y="728.842" width="29.099" height="189.144" rx="14.5495" fill="#07C4FF"/>
<rect x="142.012" y="544.548" width="29.099" height="189.144" rx="14.5495" transform="rotate(-90 142.012 544.548)" fill="#07C4FF"/>
<rect x="728.844" y="544.548" width="29.099" height="189.144" rx="14.5495" transform="rotate(-90 728.844 544.548)" fill="#07C4FF"/>
<rect x="245.359" y="265.938" width="29.099" height="189.144" rx="14.5495" transform="rotate(-45 245.359 265.938)" fill="#07C4FF"/>
<rect x="660.309" y="680.89" width="29.099" height="189.144" rx="14.5495" transform="rotate(-45 660.309 680.89)" fill="#07C4FF"/>
<rect x="794.059" y="245.362" width="29.099" height="189.144" rx="14.5495" transform="rotate(45 794.059 245.362)" fill="#07C4FF"/>
<rect x="379.109" y="660.314" width="29.099" height="189.144" rx="14.5495" transform="rotate(45 379.109 660.314)" fill="#07C4FF"/>
<rect x="415.531" y="158.997" width="29.099" height="189.144" rx="14.5495" transform="rotate(-15 415.531 158.997)" fill="#07C4FF"/>
<rect x="567.414" y="725.832" width="29.099" height="189.144" rx="14.5495" transform="rotate(-15 567.414 725.832)" fill="#07C4FF"/>
<rect x="159" y="644.47" width="29.099" height="189.144" rx="14.5495" transform="rotate(-105 159 644.47)" fill="#07C4FF"/>
<rect x="725.836" y="492.588" width="29.099" height="189.144" rx="14.5495" transform="rotate(-105 725.836 492.588)" fill="#07C4FF"/>
<rect x="186.723" y="348.605" width="29.099" height="189.144" rx="14.5495" transform="rotate(-60 186.723 348.605)" fill="#07C4FF"/>
<rect x="694.934" y="642.02" width="29.099" height="189.144" rx="14.5495" transform="rotate(-60 694.934 642.02)" fill="#07C4FF"/>
<rect x="711.395" y="186.717" width="29.099" height="189.144" rx="14.5495" transform="rotate(30 711.395 186.717)" fill="#07C4FF"/>
<rect x="417.98" y="694.927" width="29.099" height="189.144" rx="14.5495" transform="rotate(30 417.98 694.927)" fill="#07C4FF"/>
<rect x="323.406" y="201.267" width="29.099" height="189.144" rx="14.5495" transform="rotate(-30 323.406 201.267)" fill="#07C4FF"/>
<rect x="616.82" y="709.477" width="29.099" height="189.144" rx="14.5495" transform="rotate(-30 616.82 709.477)" fill="#07C4FF"/>
<rect x="201.266" y="736.592" width="29.099" height="189.144" rx="14.5495" transform="rotate(-120 201.266 736.592)" fill="#07C4FF"/>
<rect x="709.477" y="443.177" width="29.099" height="189.144" rx="14.5495" transform="rotate(-120 709.477 443.177)" fill="#07C4FF"/>
<rect x="151.473" y="443.634" width="29.099" height="189.144" rx="14.5495" transform="rotate(-75 151.473 443.634)" fill="#07C4FF"/>
<rect x="718.309" y="595.517" width="29.099" height="189.144" rx="14.5495" transform="rotate(-75 718.309 595.517)" fill="#07C4FF"/>
<rect x="616.363" y="151.466" width="29.099" height="189.144" rx="14.5495" transform="rotate(15 616.363 151.466)" fill="#07C4FF"/>
<rect x="464.48" y="718.301" width="29.099" height="189.144" rx="14.5495" transform="rotate(15 464.48 718.301)" fill="#07C4FF"/>
</svg>
