<svg width="2050" height="628" viewBox="0 0 2050 628" fill="none" xmlns="http://www.w3.org/2000/svg">
<g filter="url(#filter0_d)">
<rect x="1746" y="160" width="40" height="260" fill="#F81442"/>
<rect x="1736" y="371" width="50" height="49" fill="#F81442"/>
<rect x="1736" y="160" width="50" height="49" fill="#F81442"/>
<rect x="1786" y="270" width="164" height="40" fill="#F81442"/>
<rect x="1674" y="210" width="40" height="160" fill="#F81442"/>
<rect width="40" height="260" transform="matrix(-1 0 0 1 304 160)" fill="#F81442"/>
<rect width="50" height="49" transform="matrix(-1 0 0 1 314 371)" fill="#F81442"/>
<rect width="50" height="49" transform="matrix(-1 0 0 1 314 160)" fill="#F81442"/>
<rect x="100" y="270" width="164" height="40" fill="#F81442"/>
<rect width="40" height="160" transform="matrix(-1 0 0 1 376 210)" fill="#F81442"/>
</g>
<g filter="url(#filter1_d)">
<path d="M629.012 492.6C626.246 492.6 623.562 492.233 620.962 491.5C618.396 490.733 616.329 489.75 614.762 488.55L617.512 482.45C619.012 483.55 620.796 484.433 622.862 485.1C624.929 485.767 626.996 486.1 629.062 486.1C631.362 486.1 633.062 485.767 634.162 485.1C635.262 484.4 635.812 483.483 635.812 482.35C635.812 481.517 635.479 480.833 634.812 480.3C634.179 479.733 633.346 479.283 632.312 478.95C631.312 478.617 629.946 478.25 628.212 477.85C625.546 477.217 623.362 476.583 621.662 475.95C619.962 475.317 618.496 474.3 617.262 472.9C616.062 471.5 615.462 469.633 615.462 467.3C615.462 465.267 616.012 463.433 617.112 461.8C618.212 460.133 619.862 458.817 622.062 457.85C624.296 456.883 627.012 456.4 630.212 456.4C632.446 456.4 634.629 456.667 636.762 457.2C638.896 457.733 640.762 458.5 642.362 459.5L639.862 465.65C636.629 463.817 633.396 462.9 630.162 462.9C627.896 462.9 626.212 463.267 625.112 464C624.046 464.733 623.512 465.7 623.512 466.9C623.512 468.1 624.129 469 625.362 469.6C626.629 470.167 628.546 470.733 631.112 471.3C633.779 471.933 635.962 472.567 637.662 473.2C639.362 473.833 640.812 474.833 642.012 476.2C643.246 477.567 643.862 479.417 643.862 481.75C643.862 483.75 643.296 485.583 642.162 487.25C641.062 488.883 639.396 490.183 637.162 491.15C634.929 492.117 632.212 492.6 629.012 492.6ZM669.909 463.6H658.709V457H689.209V463.6H678.009V492H669.909V463.6ZM729.617 492L722.867 482.25H722.467H715.417V492H707.317V457H722.467C725.567 457 728.25 457.517 730.517 458.55C732.817 459.583 734.584 461.05 735.817 462.95C737.05 464.85 737.667 467.1 737.667 469.7C737.667 472.3 737.034 474.55 735.767 476.45C734.534 478.317 732.767 479.75 730.467 480.75L738.317 492H729.617ZM729.467 469.7C729.467 467.733 728.834 466.233 727.567 465.2C726.3 464.133 724.45 463.6 722.017 463.6H715.417V475.8H722.017C724.45 475.8 726.3 475.267 727.567 474.2C728.834 473.133 729.467 471.633 729.467 469.7ZM773.385 492.6C768.385 492.6 764.485 491.217 761.685 488.45C758.918 485.683 757.535 481.733 757.535 476.6V457H765.635V476.3C765.635 482.567 768.235 485.7 773.435 485.7C775.968 485.7 777.901 484.95 779.235 483.45C780.568 481.917 781.235 479.533 781.235 476.3V457H789.235V476.6C789.235 481.733 787.835 485.683 785.035 488.45C782.268 491.217 778.385 492.6 773.385 492.6ZM827.739 492.6C824.172 492.6 820.939 491.833 818.039 490.3C815.172 488.733 812.906 486.583 811.239 483.85C809.606 481.083 808.789 477.967 808.789 474.5C808.789 471.033 809.606 467.933 811.239 465.2C812.906 462.433 815.172 460.283 818.039 458.75C820.939 457.183 824.189 456.4 827.789 456.4C830.822 456.4 833.556 456.933 835.989 458C838.456 459.067 840.522 460.6 842.189 462.6L836.989 467.4C834.622 464.667 831.689 463.3 828.189 463.3C826.022 463.3 824.089 463.783 822.389 464.75C820.689 465.683 819.356 467 818.389 468.7C817.456 470.4 816.989 472.333 816.989 474.5C816.989 476.667 817.456 478.6 818.389 480.3C819.356 482 820.689 483.333 822.389 484.3C824.089 485.233 826.022 485.7 828.189 485.7C831.689 485.7 834.622 484.317 836.989 481.55L842.189 486.35C840.522 488.383 838.456 489.933 835.989 491C833.522 492.067 830.772 492.6 827.739 492.6ZM868.317 463.6H857.117V457H887.617V463.6H876.417V492H868.317V463.6ZM920.689 492.6C915.689 492.6 911.789 491.217 908.989 488.45C906.223 485.683 904.839 481.733 904.839 476.6V457H912.939V476.3C912.939 482.567 915.539 485.7 920.739 485.7C923.273 485.7 925.206 484.95 926.539 483.45C927.873 481.917 928.539 479.533 928.539 476.3V457H936.539V476.6C936.539 481.733 935.139 485.683 932.339 488.45C929.573 491.217 925.689 492.6 920.689 492.6ZM980.594 492L973.844 482.25H973.444H966.394V492H958.294V457H973.444C976.544 457 979.227 457.517 981.494 458.55C983.794 459.583 985.56 461.05 986.794 462.95C988.027 464.85 988.644 467.1 988.644 469.7C988.644 472.3 988.01 474.55 986.744 476.45C985.51 478.317 983.744 479.75 981.444 480.75L989.294 492H980.594ZM980.444 469.7C980.444 467.733 979.81 466.233 978.544 465.2C977.277 464.133 975.427 463.6 972.994 463.6H966.394V475.8H972.994C975.427 475.8 977.277 475.267 978.544 474.2C979.81 473.133 980.444 471.633 980.444 469.7ZM1031.86 484.5H1015.61L1012.51 492H1004.21L1019.81 457H1027.81L1043.46 492H1034.96L1031.86 484.5ZM1029.31 478.35L1023.76 464.95L1018.21 478.35H1029.31ZM1060.84 457H1068.94V485.4H1086.49V492H1060.84V457ZM1140.78 463.5V472.75H1156.98V479.25H1140.78V492H1132.68V457H1159.13V463.5H1140.78ZM1199.95 484.5H1183.7L1180.6 492H1172.3L1187.9 457H1195.9L1211.55 492H1203.05L1199.95 484.5ZM1197.4 478.35L1191.85 464.95L1186.3 478.35H1197.4ZM1228.93 457H1237.03V492H1228.93V457ZM1259.08 457H1267.18V485.4H1284.73V492H1259.08V457ZM1318.12 492.6C1313.12 492.6 1309.22 491.217 1306.42 488.45C1303.65 485.683 1302.27 481.733 1302.27 476.6V457H1310.37V476.3C1310.37 482.567 1312.97 485.7 1318.17 485.7C1320.7 485.7 1322.64 484.95 1323.97 483.45C1325.3 481.917 1325.97 479.533 1325.97 476.3V457H1333.97V476.6C1333.97 481.733 1332.57 485.683 1329.77 488.45C1327 491.217 1323.12 492.6 1318.12 492.6ZM1378.03 492L1371.28 482.25H1370.88H1363.83V492H1355.73V457H1370.88C1373.98 457 1376.66 457.517 1378.93 458.55C1381.23 459.583 1382.99 461.05 1384.23 462.95C1385.46 464.85 1386.08 467.1 1386.08 469.7C1386.08 472.3 1385.44 474.55 1384.18 476.45C1382.94 478.317 1381.18 479.75 1378.88 480.75L1386.73 492H1378.03ZM1377.88 469.7C1377.88 467.733 1377.24 466.233 1375.98 465.2C1374.71 464.133 1372.86 463.6 1370.43 463.6H1363.83V475.8H1370.43C1372.86 475.8 1374.71 475.267 1375.98 474.2C1377.24 473.133 1377.88 471.633 1377.88 469.7ZM1433.34 485.5V492H1406.24V457H1432.69V463.5H1414.29V471.1H1430.54V477.4H1414.29V485.5H1433.34Z" fill="#F81442"/>
<path d="M749.206 233L707.986 359H676.666L648.946 273.68L620.326 359H589.186L547.786 233H578.026L606.466 321.56L636.166 233H663.166L691.966 322.28L721.306 233H749.206ZM844.246 332H785.746L774.586 359H744.706L800.866 233H829.666L886.006 359H855.406L844.246 332ZM835.066 309.86L815.086 261.62L795.106 309.86H835.066ZM979.359 359L955.059 323.9H953.619H928.239V359H899.079V233H953.619C964.779 233 974.439 234.86 982.599 238.58C990.879 242.3 997.239 247.58 1001.68 254.42C1006.12 261.26 1008.34 269.36 1008.34 278.72C1008.34 288.08 1006.06 296.18 1001.5 303.02C997.059 309.74 990.699 314.9 982.419 318.5L1010.68 359H979.359ZM978.819 278.72C978.819 271.64 976.539 266.24 971.979 262.52C967.419 258.68 960.759 256.76 951.999 256.76H928.239V300.68H951.999C960.759 300.68 967.419 298.76 971.979 294.92C976.539 291.08 978.819 285.68 978.819 278.72ZM1147 233V359H1123.06L1060.24 282.5V359H1031.44V233H1055.56L1118.2 309.5V233H1147ZM1176.81 233H1205.97V359H1176.81V233ZM1351.44 233V359H1327.5L1264.68 282.5V359H1235.88V233H1260L1322.64 309.5V233H1351.44ZM1466.39 294.02H1493.03V345.14C1486.19 350.3 1478.27 354.26 1469.27 357.02C1460.27 359.78 1451.21 361.16 1442.09 361.16C1429.01 361.16 1417.25 358.4 1406.81 352.88C1396.37 347.24 1388.15 339.5 1382.15 329.66C1376.27 319.7 1373.33 308.48 1373.33 296C1373.33 283.52 1376.27 272.36 1382.15 262.52C1388.15 252.56 1396.43 244.82 1406.99 239.3C1417.55 233.66 1429.43 230.84 1442.63 230.84C1453.67 230.84 1463.69 232.7 1472.69 236.42C1481.69 240.14 1489.25 245.54 1495.37 252.62L1476.65 269.9C1467.65 260.42 1456.79 255.68 1444.07 255.68C1436.03 255.68 1428.89 257.36 1422.65 260.72C1416.41 264.08 1411.55 268.82 1408.07 274.94C1404.59 281.06 1402.85 288.08 1402.85 296C1402.85 303.8 1404.59 310.76 1408.07 316.88C1411.55 323 1416.35 327.8 1422.47 331.28C1428.71 334.64 1435.79 336.32 1443.71 336.32C1452.11 336.32 1459.67 334.52 1466.39 330.92V294.02Z" fill="#F81442"/>
<path d="M710.432 160L707.732 156.1H707.572H704.752V160H701.512V146H707.572C708.812 146 709.885 146.207 710.792 146.62C711.712 147.033 712.418 147.62 712.912 148.38C713.405 149.14 713.652 150.04 713.652 151.08C713.652 152.12 713.398 153.02 712.892 153.78C712.398 154.527 711.692 155.1 710.772 155.5L713.912 160H710.432ZM710.372 151.08C710.372 150.293 710.118 149.693 709.612 149.28C709.105 148.853 708.365 148.64 707.392 148.64H704.752V153.52H707.392C708.365 153.52 709.105 153.307 709.612 152.88C710.118 152.453 710.372 151.853 710.372 151.08ZM727.939 160.24C725.939 160.24 724.379 159.687 723.259 158.58C722.152 157.473 721.599 155.893 721.599 153.84V146H724.839V153.72C724.839 156.227 725.879 157.48 727.959 157.48C728.972 157.48 729.745 157.18 730.279 156.58C730.812 155.967 731.079 155.013 731.079 153.72V146H734.279V153.84C734.279 155.893 733.719 157.473 732.599 158.58C731.492 159.687 729.939 160.24 727.939 160.24ZM755.82 146V160H753.16L746.18 151.5V160H742.98V146H745.66L752.62 154.5V146H755.82ZM777.473 146V160H774.813L767.833 151.5V160H764.633V146H767.313L774.273 154.5V146H777.473ZM786.285 146H789.525V160H786.285V146ZM811.188 146V160H808.528L801.548 151.5V160H798.348V146H801.028L807.987 154.5V146H811.188ZM829.46 152.78H832.42V158.46C831.66 159.033 830.78 159.473 829.78 159.78C828.78 160.087 827.773 160.24 826.76 160.24C825.307 160.24 824 159.933 822.84 159.32C821.68 158.693 820.767 157.833 820.1 156.74C819.447 155.633 819.12 154.387 819.12 153C819.12 151.613 819.447 150.373 820.1 149.28C820.767 148.173 821.687 147.313 822.86 146.7C824.033 146.073 825.353 145.76 826.82 145.76C828.047 145.76 829.16 145.967 830.16 146.38C831.16 146.793 832 147.393 832.68 148.18L830.6 150.1C829.6 149.047 828.393 148.52 826.98 148.52C826.087 148.52 825.293 148.707 824.6 149.08C823.907 149.453 823.367 149.98 822.98 150.66C822.593 151.34 822.4 152.12 822.4 153C822.4 153.867 822.593 154.64 822.98 155.32C823.367 156 823.9 156.533 824.58 156.92C825.273 157.293 826.06 157.48 826.94 157.48C827.873 157.48 828.713 157.28 829.46 156.88V152.78ZM852.094 146H858.454C859.974 146 861.314 146.293 862.474 146.88C863.647 147.453 864.554 148.267 865.194 149.32C865.847 150.373 866.174 151.6 866.174 153C866.174 154.4 865.847 155.627 865.194 156.68C864.554 157.733 863.647 158.553 862.474 159.14C861.314 159.713 859.974 160 858.454 160H852.094V146ZM858.294 157.34C859.694 157.34 860.807 156.953 861.634 156.18C862.474 155.393 862.894 154.333 862.894 153C862.894 151.667 862.474 150.613 861.634 149.84C860.807 149.053 859.694 148.66 858.294 148.66H855.334V157.34H858.294ZM874.117 146H877.357V160H874.117V146ZM895.4 157H888.9L887.66 160H884.34L890.58 146H893.78L900.04 160H896.64L895.4 157ZM894.38 154.54L892.16 149.18L889.94 154.54H894.38ZM916.257 152.78H919.217V158.46C918.457 159.033 917.577 159.473 916.577 159.78C915.577 160.087 914.57 160.24 913.557 160.24C912.103 160.24 910.797 159.933 909.637 159.32C908.477 158.693 907.563 157.833 906.897 156.74C906.243 155.633 905.917 154.387 905.917 153C905.917 151.613 906.243 150.373 906.897 149.28C907.563 148.173 908.483 147.313 909.657 146.7C910.83 146.073 912.15 145.76 913.617 145.76C914.843 145.76 915.957 145.967 916.957 146.38C917.957 146.793 918.797 147.393 919.477 148.18L917.397 150.1C916.397 149.047 915.19 148.52 913.777 148.52C912.883 148.52 912.09 148.707 911.397 149.08C910.703 149.453 910.163 149.98 909.777 150.66C909.39 151.34 909.197 152.12 909.197 153C909.197 153.867 909.39 154.64 909.777 155.32C910.163 156 910.697 156.533 911.377 156.92C912.07 157.293 912.857 157.48 913.737 157.48C914.67 157.48 915.51 157.28 916.257 156.88V152.78ZM940.566 146V160H937.906L930.926 151.5V160H927.726V146H930.406L937.366 154.5V146H940.566ZM956.159 160.24C954.705 160.24 953.392 159.927 952.219 159.3C951.059 158.673 950.145 157.813 949.479 156.72C948.825 155.613 948.499 154.373 948.499 153C948.499 151.627 948.825 150.393 949.479 149.3C950.145 148.193 951.059 147.327 952.219 146.7C953.392 146.073 954.705 145.76 956.159 145.76C957.612 145.76 958.919 146.073 960.079 146.7C961.239 147.327 962.152 148.193 962.819 149.3C963.485 150.393 963.819 151.627 963.819 153C963.819 154.373 963.485 155.613 962.819 156.72C962.152 157.813 961.239 158.673 960.079 159.3C958.919 159.927 957.612 160.24 956.159 160.24ZM956.159 157.48C956.985 157.48 957.732 157.293 958.399 156.92C959.065 156.533 959.585 156 959.959 155.32C960.345 154.64 960.539 153.867 960.539 153C960.539 152.133 960.345 151.36 959.959 150.68C959.585 150 959.065 149.473 958.399 149.1C957.732 148.713 956.985 148.52 956.159 148.52C955.332 148.52 954.585 148.713 953.919 149.1C953.252 149.473 952.725 150 952.339 150.68C951.965 151.36 951.779 152.133 951.779 153C951.779 153.867 951.965 154.64 952.339 155.32C952.725 156 953.252 156.533 953.919 156.92C954.585 157.293 955.332 157.48 956.159 157.48ZM976.354 160.24C975.247 160.24 974.174 160.093 973.134 159.8C972.107 159.493 971.28 159.1 970.654 158.62L971.754 156.18C972.354 156.62 973.067 156.973 973.894 157.24C974.72 157.507 975.547 157.64 976.374 157.64C977.294 157.64 977.974 157.507 978.414 157.24C978.854 156.96 979.074 156.593 979.074 156.14C979.074 155.807 978.94 155.533 978.674 155.32C978.42 155.093 978.087 154.913 977.674 154.78C977.274 154.647 976.727 154.5 976.034 154.34C974.967 154.087 974.094 153.833 973.414 153.58C972.734 153.327 972.147 152.92 971.654 152.36C971.174 151.8 970.934 151.053 970.934 150.12C970.934 149.307 971.154 148.573 971.594 147.92C972.034 147.253 972.694 146.727 973.574 146.34C974.467 145.953 975.554 145.76 976.834 145.76C977.727 145.76 978.6 145.867 979.454 146.08C980.307 146.293 981.054 146.6 981.694 147L980.694 149.46C979.4 148.727 978.107 148.36 976.814 148.36C975.907 148.36 975.234 148.507 974.794 148.8C974.367 149.093 974.154 149.48 974.154 149.96C974.154 150.44 974.4 150.8 974.894 151.04C975.4 151.267 976.167 151.493 977.194 151.72C978.26 151.973 979.134 152.227 979.814 152.48C980.494 152.733 981.074 153.133 981.554 153.68C982.047 154.227 982.294 154.967 982.294 155.9C982.294 156.7 982.067 157.433 981.614 158.1C981.174 158.753 980.507 159.273 979.614 159.66C978.72 160.047 977.634 160.24 976.354 160.24ZM990.008 146H993.248V160H990.008V146ZM1004.97 148.64H1000.49V146H1012.69V148.64H1008.21V160H1004.97V148.64ZM1026.44 160.24C1025.01 160.24 1023.72 159.933 1022.56 159.32C1021.41 158.693 1020.5 157.833 1019.84 156.74C1019.18 155.633 1018.86 154.387 1018.86 153C1018.86 151.613 1019.18 150.373 1019.84 149.28C1020.5 148.173 1021.41 147.313 1022.56 146.7C1023.72 146.073 1025.02 145.76 1026.46 145.76C1027.67 145.76 1028.76 145.973 1029.74 146.4C1030.72 146.827 1031.55 147.44 1032.22 148.24L1030.14 150.16C1029.19 149.067 1028.02 148.52 1026.62 148.52C1025.75 148.52 1024.98 148.713 1024.3 149.1C1023.62 149.473 1023.08 150 1022.7 150.68C1022.32 151.36 1022.14 152.133 1022.14 153C1022.14 153.867 1022.32 154.64 1022.7 155.32C1023.08 156 1023.62 156.533 1024.3 156.92C1024.98 157.293 1025.75 157.48 1026.62 157.48C1028.02 157.48 1029.19 156.927 1030.14 155.82L1032.22 157.74C1031.55 158.553 1030.72 159.173 1029.74 159.6C1028.75 160.027 1027.65 160.24 1026.44 160.24ZM1044.39 160.24C1043.28 160.24 1042.21 160.093 1041.17 159.8C1040.14 159.493 1039.32 159.1 1038.69 158.62L1039.79 156.18C1040.39 156.62 1041.1 156.973 1041.93 157.24C1042.76 157.507 1043.58 157.64 1044.41 157.64C1045.33 157.64 1046.01 157.507 1046.45 157.24C1046.89 156.96 1047.11 156.593 1047.11 156.14C1047.11 155.807 1046.98 155.533 1046.71 155.32C1046.46 155.093 1046.12 154.913 1045.71 154.78C1045.31 154.647 1044.76 154.5 1044.07 154.34C1043 154.087 1042.13 153.833 1041.45 153.58C1040.77 153.327 1040.18 152.92 1039.69 152.36C1039.21 151.8 1038.97 151.053 1038.97 150.12C1038.97 149.307 1039.19 148.573 1039.63 147.92C1040.07 147.253 1040.73 146.727 1041.61 146.34C1042.5 145.953 1043.59 145.76 1044.87 145.76C1045.76 145.76 1046.64 145.867 1047.49 146.08C1048.34 146.293 1049.09 146.6 1049.73 147L1048.73 149.46C1047.44 148.727 1046.14 148.36 1044.85 148.36C1043.94 148.36 1043.27 148.507 1042.83 148.8C1042.4 149.093 1042.19 149.48 1042.19 149.96C1042.19 150.44 1042.44 150.8 1042.93 151.04C1043.44 151.267 1044.2 151.493 1045.23 151.72C1046.3 151.973 1047.17 152.227 1047.85 152.48C1048.53 152.733 1049.11 153.133 1049.59 153.68C1050.08 154.227 1050.33 154.967 1050.33 155.9C1050.33 156.7 1050.1 157.433 1049.65 158.1C1049.21 158.753 1048.54 159.273 1047.65 159.66C1046.76 160.047 1045.67 160.24 1044.39 160.24ZM1059.41 156.28C1059.97 156.28 1060.43 156.46 1060.79 156.82C1061.15 157.167 1061.33 157.627 1061.33 158.2C1061.33 158.467 1061.3 158.733 1061.23 159C1061.17 159.267 1061.02 159.667 1060.79 160.2L1059.65 163.08H1057.67L1058.55 159.9C1058.22 159.767 1057.95 159.553 1057.75 159.26C1057.57 158.953 1057.47 158.6 1057.47 158.2C1057.47 157.627 1057.65 157.167 1058.01 156.82C1058.39 156.46 1058.85 156.28 1059.41 156.28ZM1086.39 146C1087.63 146 1088.71 146.207 1089.61 146.62C1090.53 147.033 1091.24 147.62 1091.73 148.38C1092.23 149.14 1092.47 150.04 1092.47 151.08C1092.47 152.107 1092.23 153.007 1091.73 153.78C1091.24 154.54 1090.53 155.127 1089.61 155.54C1088.71 155.94 1087.63 156.14 1086.39 156.14H1083.57V160H1080.33V146H1086.39ZM1086.21 153.5C1087.19 153.5 1087.93 153.293 1088.43 152.88C1088.94 152.453 1089.19 151.853 1089.19 151.08C1089.19 150.293 1088.94 149.693 1088.43 149.28C1087.93 148.853 1087.19 148.64 1086.21 148.64H1083.57V153.5H1086.21ZM1100.29 146H1103.53V157.36H1110.55V160H1100.29V146ZM1128.7 157.4V160H1117.86V146H1128.44V148.6H1121.08V151.64H1127.58V154.16H1121.08V157.4H1128.7ZM1145.99 157H1139.49L1138.25 160H1134.93L1141.17 146H1144.37L1150.63 160H1147.23L1145.99 157ZM1144.97 154.54L1142.75 149.18L1140.53 154.54H1144.97ZM1162.19 160.24C1161.08 160.24 1160.01 160.093 1158.97 159.8C1157.94 159.493 1157.11 159.1 1156.49 158.62L1157.59 156.18C1158.19 156.62 1158.9 156.973 1159.73 157.24C1160.55 157.507 1161.38 157.64 1162.21 157.64C1163.13 157.64 1163.81 157.507 1164.25 157.24C1164.69 156.96 1164.91 156.593 1164.91 156.14C1164.91 155.807 1164.77 155.533 1164.51 155.32C1164.25 155.093 1163.92 154.913 1163.51 154.78C1163.11 154.647 1162.56 154.5 1161.87 154.34C1160.8 154.087 1159.93 153.833 1159.25 153.58C1158.57 153.327 1157.98 152.92 1157.49 152.36C1157.01 151.8 1156.77 151.053 1156.77 150.12C1156.77 149.307 1156.99 148.573 1157.43 147.92C1157.87 147.253 1158.53 146.727 1159.41 146.34C1160.3 145.953 1161.39 145.76 1162.67 145.76C1163.56 145.76 1164.43 145.867 1165.29 146.08C1166.14 146.293 1166.89 146.6 1167.53 147L1166.53 149.46C1165.23 148.727 1163.94 148.36 1162.65 148.36C1161.74 148.36 1161.07 148.507 1160.63 148.8C1160.2 149.093 1159.99 149.48 1159.99 149.96C1159.99 150.44 1160.23 150.8 1160.73 151.04C1161.23 151.267 1162 151.493 1163.03 151.72C1164.09 151.973 1164.97 152.227 1165.65 152.48C1166.33 152.733 1166.91 153.133 1167.39 153.68C1167.88 154.227 1168.13 154.967 1168.13 155.9C1168.13 156.7 1167.9 157.433 1167.45 158.1C1167.01 158.753 1166.34 159.273 1165.45 159.66C1164.55 160.047 1163.47 160.24 1162.19 160.24ZM1186.68 157.4V160H1175.84V146H1186.42V148.6H1179.06V151.64H1185.56V154.16H1179.06V157.4H1186.68ZM1210.52 160.24C1209.42 160.24 1208.34 160.093 1207.3 159.8C1206.28 159.493 1205.45 159.1 1204.82 158.62L1205.92 156.18C1206.52 156.62 1207.24 156.973 1208.06 157.24C1208.89 157.507 1209.72 157.64 1210.54 157.64C1211.46 157.64 1212.14 157.507 1212.58 157.24C1213.02 156.96 1213.24 156.593 1213.24 156.14C1213.24 155.807 1213.11 155.533 1212.84 155.32C1212.59 155.093 1212.26 154.913 1211.84 154.78C1211.44 154.647 1210.9 154.5 1210.2 154.34C1209.14 154.087 1208.26 153.833 1207.58 153.58C1206.9 153.327 1206.32 152.92 1205.82 152.36C1205.34 151.8 1205.1 151.053 1205.1 150.12C1205.1 149.307 1205.32 148.573 1205.76 147.92C1206.2 147.253 1206.86 146.727 1207.74 146.34C1208.64 145.953 1209.72 145.76 1211 145.76C1211.9 145.76 1212.77 145.867 1213.62 146.08C1214.48 146.293 1215.22 146.6 1215.86 147L1214.86 149.46C1213.57 148.727 1212.28 148.36 1210.98 148.36C1210.08 148.36 1209.4 148.507 1208.96 148.8C1208.54 149.093 1208.32 149.48 1208.32 149.96C1208.32 150.44 1208.57 150.8 1209.06 151.04C1209.57 151.267 1210.34 151.493 1211.36 151.72C1212.43 151.973 1213.3 152.227 1213.98 152.48C1214.66 152.733 1215.24 153.133 1215.72 153.68C1216.22 154.227 1216.46 154.967 1216.46 155.9C1216.46 156.7 1216.24 157.433 1215.78 158.1C1215.34 158.753 1214.68 159.273 1213.78 159.66C1212.89 160.047 1211.8 160.24 1210.52 160.24ZM1226.88 148.64H1222.4V146H1234.6V148.64H1230.12V160H1226.88V148.64ZM1250.36 157H1243.86L1242.62 160H1239.3L1245.54 146H1248.74L1255 160H1251.6L1250.36 157ZM1249.34 154.54L1247.12 149.18L1244.9 154.54H1249.34ZM1274.79 146V160H1272.13L1265.15 151.5V160H1261.95V146H1264.63L1271.59 154.5V146H1274.79ZM1283.61 146H1289.97C1291.49 146 1292.83 146.293 1293.99 146.88C1295.16 147.453 1296.07 148.267 1296.71 149.32C1297.36 150.373 1297.69 151.6 1297.69 153C1297.69 154.4 1297.36 155.627 1296.71 156.68C1296.07 157.733 1295.16 158.553 1293.99 159.14C1292.83 159.713 1291.49 160 1289.97 160H1283.61V146ZM1289.81 157.34C1291.21 157.34 1292.32 156.953 1293.15 156.18C1293.99 155.393 1294.41 154.333 1294.41 153C1294.41 151.667 1293.99 150.613 1293.15 149.84C1292.32 149.053 1291.21 148.66 1289.81 148.66H1286.85V157.34H1289.81ZM1327.07 152.72C1327.87 152.973 1328.5 153.4 1328.95 154C1329.41 154.587 1329.63 155.313 1329.63 156.18C1329.63 157.407 1329.15 158.353 1328.19 159.02C1327.25 159.673 1325.86 160 1324.03 160H1316.79V146H1323.63C1325.34 146 1326.65 146.327 1327.55 146.98C1328.47 147.633 1328.93 148.52 1328.93 149.64C1328.93 150.32 1328.77 150.927 1328.43 151.46C1328.11 151.993 1327.66 152.413 1327.07 152.72ZM1320.01 148.44V151.74H1323.23C1324.03 151.74 1324.64 151.6 1325.05 151.32C1325.47 151.04 1325.67 150.627 1325.67 150.08C1325.67 149.533 1325.47 149.127 1325.05 148.86C1324.64 148.58 1324.03 148.44 1323.23 148.44H1320.01ZM1323.79 157.56C1324.65 157.56 1325.29 157.42 1325.71 157.14C1326.15 156.86 1326.37 156.427 1326.37 155.84C1326.37 154.68 1325.51 154.1 1323.79 154.1H1320.01V157.56H1323.79ZM1344.01 155.04V160H1340.77V155L1335.35 146H1338.79L1342.53 152.22L1346.27 146H1349.45L1344.01 155.04Z" fill="#F81442"/>
</g>
<g filter="url(#filter2_d)">
<rect x="324" y="97" width="1402" height="426" rx="21" stroke="#F81442" stroke-width="2"/>
</g>
<defs>
<filter id="filter0_d" x="0" y="60" width="2050" height="460" filterUnits="userSpaceOnUse" color-interpolation-filters="sRGB">
<feFlood flood-opacity="0" result="BackgroundImageFix"/>
<feColorMatrix in="SourceAlpha" type="matrix" values="0 0 0 0 0 0 0 0 0 0 0 0 0 0 0 0 0 0 127 0"/>
<feOffset/>
<feGaussianBlur stdDeviation="50"/>
<feColorMatrix type="matrix" values="0 0 0 0 0.972549 0 0 0 0 0.0784314 0 0 0 0 0.258824 0 0 0 1 0"/>
<feBlend mode="normal" in2="BackgroundImageFix" result="effect1_dropShadow"/>
<feBlend mode="normal" in="SourceGraphic" in2="effect1_dropShadow" result="shape"/>
</filter>
<filter id="filter1_d" x="447.787" y="49.7598" width="1147.58" height="546.841" filterUnits="userSpaceOnUse" color-interpolation-filters="sRGB">
<feFlood flood-opacity="0" result="BackgroundImageFix"/>
<feColorMatrix in="SourceAlpha" type="matrix" values="0 0 0 0 0 0 0 0 0 0 0 0 0 0 0 0 0 0 127 0"/>
<feOffset dy="4"/>
<feGaussianBlur stdDeviation="50"/>
<feColorMatrix type="matrix" values="0 0 0 0 0.972549 0 0 0 0 0.0784314 0 0 0 0 0.258824 0 0 0 1 0"/>
<feBlend mode="normal" in2="BackgroundImageFix" result="effect1_dropShadow"/>
<feBlend mode="normal" in="SourceGraphic" in2="effect1_dropShadow" result="shape"/>
</filter>
<filter id="filter2_d" x="223" y="0" width="1604" height="628" filterUnits="userSpaceOnUse" color-interpolation-filters="sRGB">
<feFlood flood-opacity="0" result="BackgroundImageFix"/>
<feColorMatrix in="SourceAlpha" type="matrix" values="0 0 0 0 0 0 0 0 0 0 0 0 0 0 0 0 0 0 127 0"/>
<feOffset dy="4"/>
<feGaussianBlur stdDeviation="50"/>
<feColorMatrix type="matrix" values="0 0 0 0 0.972549 0 0 0 0 0.0784314 0 0 0 0 0.258824 0 0 0 1 0"/>
<feBlend mode="normal" in2="BackgroundImageFix" result="effect1_dropShadow"/>
<feBlend mode="normal" in="SourceGraphic" in2="effect1_dropShadow" result="shape"/>
</filter>
</defs>
</svg>
